<svg width="271" height="227" viewBox="0 0 271 227" fill="none" xmlns="http://www.w3.org/2000/svg">
<path d="M231.25 0.75C232.121 0.744844 232.993 0.739687 233.891 0.734375C236.503 0.95753 238.694 1.38929 241.219 2.02344C247.123 3.41016 252.873 3.03987 258.891 2.74609C263.247 2.6332 265.352 2.58153 269.109 5.00781C269.733 5.66523 270.357 6.32266 271 7C270.67 7.99 270.34 8.98 270 10C268.824 10.4022 268.824 10.4022 267.625 10.8125C263.893 12.5009 263.47 14.1918 262 18C261.557 19.8529 261.12 21.7072 260.687 23.5625C259.268 28.9982 257.849 31.1475 253 34C251.484 34.1547 251.484 34.1547 249.937 34.3125C246.964 34.6717 246.964 34.6717 245.793 36.6523C245.215 37.6907 245.215 37.6907 244.625 38.75C241.364 44.6036 236.516 46.9846 230.437 49.4375C221.576 54.4978 217.665 71.6833 214.4 80.8806C213.613 83.0952 212.814 85.3046 212.012 87.5137C211.499 88.9372 210.987 90.361 210.477 91.7852C210.241 92.4373 210.006 93.0894 209.763 93.7612C204.403 108.914 204.216 129.89 210.711 144.664C212.044 147.156 212.044 147.156 214 150C215.146 161.116 213.84 169.441 206.812 178.25C199.345 186.125 191.42 187.714 181.094 189.328C167.361 191.496 152.905 198.095 143 208C142.602 209.988 142.262 211.989 142 214C141.01 214 140.02 214 139 214C139 213.01 139 212.02 139 211C130.92 211.282 130.92 211.282 124 215C122.617 216.78 121.339 218.585 120.113 220.477C119 222 119 222 117 223C115.012 222.914 115.012 222.914 112.687 222.625C111.879 222.531 111.071 222.437 110.238 222.34C108 222 108 222 105.375 221.187C102.118 220.93 100.416 222.229 97.7461 223.992C92.2749 227.15 84.7131 226.806 78.7148 225.504C75.1483 224.288 72.7125 222.861 70 220.25C67.1112 217.556 67.1112 217.556 63.1875 218.375C62.5107 218.508 61.834 218.641 61.1367 218.777C56.3774 219.273 51.837 217.343 48.039 214.566C47.0916 213.791 47.0916 213.791 46.125 213C42.936 210.393 40.3261 209.403 36.3125 208.5C32.4548 207.572 31.0849 207.074 28 204.375C25.9762 200.96 24.8043 197.835 23.6914 194.051C22.8775 191.637 21.6299 189.94 20 188C20 187.34 20 186.68 20 186C19.1647 185.66 19.1647 185.66 18.3125 185.312C13.096 182.352 9.37039 177.738 7.31247 172.125C6.86413 169.076 6.94083 166.075 6.99997 163C6.00997 162.67 5.01997 162.34 3.99997 162C1.45655 158.49 1.47304 154.375 1.24997 150.187C1.20977 149.441 1.16957 148.695 1.12815 147.927C0.733301 138.124 0.664378 127.983 6.99997 120C7.65997 120 8.31997 120 8.99997 120C8.91876 119.224 8.83755 118.448 8.75388 117.648C8.19127 108.027 10.5391 100.813 16 93C19.4043 89.5906 23.0876 86.7986 27 84C32.8122 79.4759 36.8325 74.6126 41.0625 68.5898C44.5826 63.8845 48.1062 60.7642 53.5625 58.5625C56.9529 57.0214 57.5265 56.5495 59.5625 53.75C63.9003 48.2195 70.7633 45.8549 77 43C82.1978 40.5977 82.1978 40.5977 86.9375 37.4375C89.031 35.9784 90.5084 35.5078 92.9375 34.8125C100.2 32.5558 106.614 27.9944 112.859 23.7305C121.261 18.2951 133.721 15.5443 143.5 17.5C143.995 17.665 144.49 17.83 145 18C145.33 17.01 145.66 16.02 146 15C152.625 11.8392 159.877 10.537 167.09 9.50391C169.896 9.01793 172.423 8.26195 175.125 7.375C180.962 5.66237 186.607 5.80096 192.631 6.02295C197.247 6.1613 200.617 5.65039 205 4C207.562 3.58594 207.562 3.58594 210 3.375C210.86 3.29895 211.72 3.22289 212.605 3.14453C215 3 215 3 218.312 3.0625C221.01 3.16448 221.01 3.16448 223.34 2.01172C226.18 0.931644 228.226 0.732315 231.25 0.75ZM222 6C222 8.31 222 10.62 222 13C221.01 13 220.02 13 219 13C219 11.35 219 9.7 219 8C213.893 5.02087 209.306 6.15758 203.777 7.56641C199.175 9.07177 196.641 10.7737 194 15C193.67 15.99 193.34 16.98 193 18C192.34 18 191.68 18 191 18C191.309 17.2575 191.619 16.515 191.937 15.75C192.812 13.4876 193.443 11.3503 194 9C185.675 8.64267 177.806 8.75237 170 12C169.67 12.66 169.34 13.32 169 14C169.33 14.99 169.66 15.98 170 17C169.278 16.2781 168.556 15.5562 167.812 14.8125C165.187 13.0098 164.015 12.9985 160.777 13.332C154.316 14.5334 154.316 14.5334 149 18C149.887 18.3506 150.774 18.7013 151.687 19.0625C155.869 21.5084 157.405 23.9542 160 28C157.181 26.8516 155.879 25.8575 153.875 23.4883C150.26 20.3593 147.289 20.0234 142.687 19.875C141.895 19.8442 141.102 19.8134 140.286 19.7817C125.614 19.5917 113.946 26.122 102 34C104.788 37.8468 107.391 40.0839 111.5 42.4375C117.022 45.8298 119.622 48.9822 122.312 54.875C123.82 57.6661 125.185 59.397 127.312 61.6875C131.504 66.2805 134.225 71.4701 137 77C139.887 75.6912 141.921 74.2622 144.187 72.0625C148.04 68.6369 152.066 67.2754 157 66C157 66.66 157 67.32 157 68C155.298 68.495 155.298 68.495 153.562 69C148.019 71.0331 144.168 74.9383 140 79C140.33 79.66 140.66 80.32 141 81C142.32 81 143.64 81 145 81C144.938 82.155 144.876 83.31 144.812 84.5C144.919 94.6028 150.229 100.094 157 107C157.567 107.53 158.134 108.06 158.719 108.605C160 110 160 110 161 113C159.35 112.01 157.7 111.02 156 110C155.567 111.093 155.134 112.186 154.687 113.312C152.538 118.274 152.538 118.274 150 120C148.68 120 147.36 120 146 120C145.67 119.34 145.34 118.68 145 118C145.763 117.918 146.526 117.835 147.312 117.75C150.057 117.206 150.057 117.206 151.812 115.312C153.481 112.064 153.687 110.64 153 107C151.968 105.607 150.876 104.257 149.75 102.937C145.771 98.2463 144.426 93.6475 143.02 87.7227C142.288 84.8824 142.288 84.8824 140.012 83.8711C139.348 83.5836 138.684 83.2962 138 83C136.922 81.1719 136.922 81.1719 136 79C132.452 72.7167 128.711 66.4931 124 61C123.67 61 123.34 61 123 61C123 62.98 123 64.96 123 67C122.34 66.67 121.68 66.34 121 66C120.727 63.7422 120.727 63.7422 120.625 60.875C120.202 55.8351 119.618 51.7385 116 48C113.039 45.7765 110.015 43.7591 106.875 41.7969C104 40 104 40 101.918 38.2383C99.3934 36.6084 98.2218 36.8331 95.3125 37.4375C90.5317 38.5644 87.2178 40.6238 83.2851 43.4883C80.1804 45.5422 76.9129 46.6977 73.4414 47.9961C69.7225 49.5253 66.1172 51.44 63 54C63 54.66 63 55.32 63 56C62.34 56 61.68 56 61 56C60.67 56.99 60.34 57.98 60 59C61.8719 61.6943 61.8719 61.6943 64 64C63.1956 63.4431 62.3912 62.8862 61.5625 62.3125C57.2553 60.7257 55.4161 61.0885 51.2422 62.7187C47.2316 65.0105 44.7058 68.3268 42 72C41.1956 73.0106 40.3912 74.0212 39.5625 75.0625C37.5945 78.7623 37.4989 80.8481 38 85C38.6851 87.122 39.4595 89.1563 40.3437 91.2031C41 93 41 93 41 96C38.2709 91.8415 36.6589 87.6609 35 83C22.8735 88.6725 16.7045 95.7743 12 108C10.6128 112.176 11.6575 114.824 13 119C13.3413 120.331 13.6792 121.664 14 123C12.68 122.67 11.36 122.34 9.99997 122C5.66785 126.332 4.49422 131.04 3.99997 137C4.39461 139.226 4.39461 139.226 4.99997 141C5.39185 140.051 5.78372 139.102 6.18747 138.125C8.19791 134.659 9.22697 134.02 13 133C13 133.99 13 134.98 13 136C12.3967 136.255 11.7934 136.51 11.1718 136.773C7.46018 138.87 5.6911 142.166 3.99997 146C3.16673 150.587 3.71314 154.908 5.99997 159C6.98997 159.66 7.97997 160.32 8.99997 161C9.32997 160.01 9.65997 159.02 9.99997 158C10.66 157.67 11.32 157.34 12 157C11.6493 157.949 11.2987 158.898 10.9375 159.875C9.61036 164.705 9.57479 169.182 11 174C13.5836 178.038 16.7376 181.098 20.625 183.875C25.2501 188.013 27.3621 194.169 29.375 199.937C30.8045 203.247 30.8045 203.247 34.1875 205C42.7466 207.245 48.4079 204.314 55.8711 200.094C62.8503 195.424 67.0646 189.265 71 182C71.66 181.67 72.32 181.34 73 181C67.9744 193.771 61.4926 200.372 48.875 205.875C47.9262 206.246 46.9775 206.617 46 207C47.4047 211.214 49.7833 211.926 53.5976 213.914C58.4343 216.1 62.1931 216.48 67.1875 214.812C70.4705 213.423 72.7841 211.862 75 209C75 208.34 75 207.68 75 207C75.99 207 76.98 207 78 207C75.9399 210.605 73.6487 213.803 71 217C71.9075 217.804 72.815 218.609 73.75 219.437C74.5157 220.116 74.5157 220.116 75.2969 220.809C79.967 224.076 86.5761 223.683 92 223C94.6916 221.849 97.1567 220.49 99.7031 219.051C103.247 217.43 105.319 217.926 109 219C109.66 219.33 110.32 219.66 111 220C113.783 220.838 113.783 220.838 117 220C118.973 217.845 120.579 215.6 122.191 213.164C124.97 209.839 127.692 209.187 131.895 208.586C132.857 208.516 133.82 208.447 134.812 208.375C136.276 208.263 136.276 208.263 137.77 208.148C138.506 208.099 139.242 208.05 140 208C140.082 207.381 140.165 206.762 140.25 206.125C141 204 141 204 142.742 202.957C143.86 202.483 143.86 202.483 145 202C146.718 200.911 148.425 199.805 150.125 198.687C159.409 192.768 168.387 188.978 179 186C179.014 185.166 179.028 184.332 179.043 183.473C179.427 174.42 180.903 167.994 187.5 161.562C189.945 160.035 192.276 158.934 195 158C192.478 160.522 189.958 163.04 187.375 165.5C181.981 171.178 181.052 176.275 181 184C182.022 185.252 182.022 185.252 184.187 185.055C192.548 184.521 198.562 182.841 204.266 176.469C209.94 169.038 212.535 163.467 212 154C210.804 150.454 210.804 150.454 209.125 147C204.77 137.574 203.682 130.051 203.75 119.75C203.742 118.586 203.734 117.422 203.727 116.223C203.757 102.586 207.057 91.393 211.937 78.8125C212.482 77.389 213.026 75.9652 213.568 74.541C214.594 71.8531 215.624 69.1671 216.66 66.4829C218.129 62.6636 219.572 58.8353 221 55C219.896 54.6191 219.896 54.6191 218.77 54.2305C217.794 53.8863 216.818 53.5421 215.812 53.1875C214.85 52.8511 213.887 52.5146 212.895 52.168C205.598 49.2236 205.598 49.2236 203.687 45.3125C203.347 44.1678 203.347 44.1678 203 43C203.99 43 204.98 43 206 43C206.057 43.6033 206.113 44.2066 206.172 44.8281C206.837 47.2217 206.837 47.2217 209.328 48.4844C210.292 48.902 211.257 49.3197 212.25 49.75C213.204 50.178 214.158 50.6059 215.141 51.0469C218.043 52.0144 219.974 52.4027 223 52C224.8 50.8678 224.8 50.8678 226.312 49.25C228.806 46.9247 231.01 45.3846 234.125 44C239.076 41.6972 241.481 38.417 244.375 33.8125C245.273 31.8049 245.273 31.8049 244 29C244.557 29.33 245.114 29.66 245.687 30C248.459 31.1986 250.014 31.5226 253 31C257.515 26.3635 258.409 21.4086 259.875 15.2773C261.065 11.8109 262.327 10.4109 265 8C265 7.34 265 6.68 265 6C263.396 5.94584 261.792 5.90713 260.187 5.875C259.294 5.8518 258.401 5.82859 257.48 5.80469C254.746 5.81714 254.746 5.81714 252 8C252.99 8.99 252.99 8.99 254 10C254.625 12.125 254.625 12.125 255 14C254.529 13.5669 254.059 13.1337 253.574 12.6875C252.64 11.8522 252.64 11.8522 251.687 11C251.073 10.4431 250.458 9.88625 249.824 9.3125C247.969 7.70798 247.969 7.70798 245 8C245 7.34 245 6.68 245 6C237.644 3.77936 228.965 1.89911 222 6Z" fill="white"/>
<path d="M121 91.0001C124 94.2001 124 94.2001 124 97.0001C122.062 96.6876 122.062 96.6876 120 96.0001C119.505 94.5151 119.505 94.5151 119 93.0001C111.871 92.5283 105.907 92.5737 100 97.0001C99.34 97.9901 98.68 98.9801 98 100C96.0054 101.093 93.9675 101.951 91.875 102.84C89.5317 104.29 88.9122 105.42 88 108C88 109.32 88 110.64 88 112C87.34 112 86.68 112 86 112C86 111.34 86 110.68 86 110C82.331 111.931 80.4707 113.112 79 117C78.6846 118.994 78.3738 120.989 78.1154 122.991C77.2058 129.774 76.3989 135.447 71.25 140.352C66.7393 143.656 61.9444 146.402 57 149C57.7476 149.364 58.4953 149.727 59.2656 150.102C65.2479 153.155 68.2831 155.361 72 161C74.6871 162.1 77.1084 162.518 80 163C80.0412 162.278 80.0825 161.556 80.125 160.813C81.382 156.772 83.5428 155.327 87 153C89.875 152.688 89.875 152.688 92 153C90.7487 156.754 89.4347 157.241 86 159C85.34 159 84.68 159 84 159C83.67 160.98 83.34 162.96 83 165C83.5775 165.206 84.155 165.413 84.75 165.625C87.8631 167.528 89.2074 169.863 91 173C91 173.99 91 174.98 91 176C91.7218 176.289 92.4437 176.578 93.1875 176.875C94.8958 177.558 96.5974 178.259 98.2851 178.992C101.258 180.096 104.135 180.663 107.25 181.25C115.25 183.069 121.336 186.024 125.937 193C128.512 197.652 130 201.632 130 207C128.515 206.505 128.515 206.505 127 206C125.93 203.27 125.93 203.27 124.875 199.813C122.796 194.241 121.099 191.077 115.891 188.145C109.788 185.728 103.412 184.338 97 183C98.1795 184.365 98.1795 184.365 99.3828 185.758C103.288 190.456 105.405 195.104 104.937 201.313C104 205 104 205 102.312 206.938C99.5528 208.206 97.008 208.658 94 209C94 208.01 94 207.02 94 206C95.98 205.34 97.96 204.68 100 204C101.631 198.23 100.619 194.801 97.8125 189.555C95.1101 185.746 91.7036 183.027 88.0117 180.203C86 178 86 178 85.832 174.984C85.8874 174 85.9429 173.015 86 172C85.5498 169.661 85.5498 169.661 84 168C81.0693 167.078 81.0693 167.078 77.6875 166.625C70.3718 165.16 70.3718 165.16 67.6875 161.938C66 159 66 159 66 157C64.8037 156.608 63.6075 156.216 62.375 155.813C57.0926 154.057 51.8683 152.15 46.6367 150.25C43.1382 149.048 39.6273 148.047 36.0625 147.063C31.0092 145.585 28.2004 143.71 24.4843 140.086C22.8755 138.661 22.8755 138.661 19.8125 139.25C16.4352 141.351 14.9417 143.565 13 147C12.34 146.67 11.68 146.34 11 146C12.249 141.004 13.8029 138.938 18 136C18.66 135.34 19.32 134.68 20 134C19.505 133.134 19.505 133.134 19 132.25C18 130 18 130 18 126C18.99 126 19.98 126 21 126C21.3635 126.82 21.727 127.64 22.1015 128.484C26.2051 137.281 28.9501 140.608 38 144C40.0334 144.552 42.0758 145.072 44.125 145.563C47.1383 146.288 50.0589 147.02 53 148C55.3462 146.741 55.3462 146.741 57.75 144.875C58.633 144.225 59.516 143.576 60.4258 142.906C61.2752 142.277 62.1247 141.648 63 141C64.3117 140.124 65.6241 139.249 66.9375 138.375C71.1063 135.142 72.7215 132.68 73.5898 127.441C73.8213 124.858 74.0505 122.275 74.2773 119.691C75.2846 114.546 77.9175 110.34 82 107C82.66 107 83.32 107 84 107C84.165 106.278 84.33 105.556 84.5 104.813C86.6494 100.782 89.9544 98.9807 94 97.0001C94.66 97.0001 95.32 97.0001 96 97.0001C96 96.3401 96 95.6801 96 95.0001C97.4357 94.1844 98.8736 93.3726 100.312 92.5626C101.513 91.8839 101.513 91.8839 102.738 91.1915C108.764 88.0173 114.837 88.1989 121 91.0001Z" fill="white"/>
<path d="M215 16C215.495 17.485 215.495 17.485 216 19C215.12 19.098 214.239 19.196 213.332 19.2969C212.171 19.4465 211.009 19.596 209.812 19.75C208.09 19.9589 208.09 19.9589 206.332 20.1719C202.589 21.1021 200.712 22.2877 198 25C197.114 28.1387 197.114 28.1387 197 31C199.475 31.495 199.475 31.495 202 32C202 32.66 202 33.32 202 34C200.948 33.9588 199.896 33.9175 198.812 33.875C194.995 34.5885 194.995 34.5885 193.492 37.0118C190.849 42.1787 189.156 47.3267 188 53C188.99 52.67 189.98 52.34 191 52C191 53.32 191 54.64 191 56C190.34 56.66 189.68 57.32 189 58C188.386 60.1895 187.854 62.4024 187.375 64.625C187.115 65.8136 186.854 67.0021 186.586 68.2266C186.393 69.1418 186.199 70.0571 186 71C186.626 70.9884 187.253 70.9768 187.898 70.9649C188.716 70.9559 189.533 70.9468 190.375 70.9375C191.593 70.9201 191.593 70.9201 192.836 70.9024C195 71 195 71 197 72C196.67 72.9901 196.34 73.98 196 75C192.7 74.67 189.4 74.34 186 74C185.856 75.2994 185.711 76.5988 185.562 77.9375C185.125 81.875 185.125 81.875 184 83C183.814 84.6397 183.814 84.6397 183.625 86.3125C183 90 183 90 181.312 92.125C180.879 92.7438 180.446 93.3625 180 94C180.851 97.1709 182.171 99.2565 184 102C185.287 110.142 183.195 116.092 179 123C179.849 123.814 179.849 123.814 180.715 124.645C181.448 125.36 182.182 126.075 182.937 126.813C183.668 127.52 184.399 128.228 185.152 128.957C188.338 132.479 188.111 135.636 188.062 140.188C188.053 141.274 188.044 142.361 188.035 143.481C188.024 144.312 188.012 145.143 188 146C187.34 146 186.68 146 186 146C185.853 145.047 185.706 144.095 185.555 143.113C184.456 134.977 184.456 134.977 179.812 128.625C178.884 128.089 177.956 127.553 177 127C173.288 129.475 173.153 130.854 171.937 135.063C171.596 136.232 171.254 137.401 170.902 138.606C170.171 141.358 169.545 144.082 169 146.875C167.852 152.39 165.802 156.799 161 160C161 155.813 161.996 154.034 163.91 150.438C165.965 145.841 166.922 140.901 168 136C167.466 136.217 166.933 136.433 166.383 136.656C160.435 138.879 155.319 139.356 149 139C149 138.01 149 137.02 149 136C149.857 135.879 150.714 135.758 151.598 135.633C160.487 134.544 160.487 134.544 169 132C169.706 130.35 170.366 128.68 171 127C172.113 125.229 173.261 123.48 174.437 121.75C178.882 114.843 178.882 114.843 181 107C179.503 101.573 176.427 97.3932 173 93C172.34 92.67 171.68 92.34 171 92C171 91.01 171 90.02 171 89C172.702 89.2785 172.702 89.2785 174.437 89.5625C175.613 89.7069 176.789 89.8513 178 90C179.385 88.837 179.385 88.837 179.187 85.625C179.305 81.9033 179.305 81.9033 177 79C177 77.68 177 76.3601 177 75C179.993 75.9978 180.948 76.7523 183 79C182.988 78.4316 182.977 77.8631 182.965 77.2774C182.922 73.6248 182.973 70.1859 183.5 66.5625C183.913 63.6215 183.977 61.1875 183.875 58.25C183.804 48.9064 186.974 40.7741 192 33C192.495 32.505 192.495 32.505 193 32C193.103 30.7625 193.206 29.525 193.312 28.25C193.785 24.1323 194.973 21.941 198 19C202.661 15.671 209.447 15.8265 215 16Z" fill="white"/>
<path d="M111 52.9999C108.259 56.1796 105.742 57.6235 101.863 59.1601C97.4881 61.1321 93.8917 64.0853 90.5625 67.4999C85.6833 72.2601 79.0163 76.9999 72 76.9999C72.0232 77.9899 72.0464 78.9799 72.0703 79.9999C72.3812 98.4608 72.3812 98.4608 66.8593 104.437C60.4681 109.808 46.5919 120 38 120C38.2495 118.15 38.2495 118.15 39 116C40.7466 114.707 40.7466 114.707 43.0078 113.598C43.8302 113.182 44.6526 112.766 45.5 112.338C46.3662 111.917 47.2325 111.496 48.125 111.062C58.4651 106.477 58.4651 106.477 66.3398 98.8242C68.1033 92.5195 69.1338 86.4013 67 79.9999C62.2668 82.7968 60.0003 85.2851 57 89.9999C56.34 89.9999 55.68 89.9999 55 89.9999C54.5625 87.9374 54.5625 87.9374 55 84.9999C59.5216 78.791 65.2451 76.2701 72.25 73.6874C80.1847 70.549 85.4043 67.4988 91.3711 61.3788C96.0714 57.1255 104.73 50.9098 111 52.9999Z" fill="white"/>
<path d="M125 98C125.99 98 126.98 98 128 98C135.439 106.584 138.408 118.156 139.25 129.312C138.982 132.197 138.107 134.343 137 137C137.33 137.66 137.66 138.32 138 139C137.958 140.752 137.911 142.505 137.832 144.256C137.356 156.503 140.995 165.647 149 175C156.134 174.263 160.727 170.656 166 166C167.776 163.682 168.822 161.692 170 159C170.99 159 171.98 159 173 159C172.674 164.378 169.736 167.438 166 171C160.422 175.693 155.501 179.509 148 179C141.462 174.486 136.78 165.175 134.457 157.648C133.454 151.838 133.791 145.871 134 140C132.68 139.34 131.36 138.68 130 138C130 137.01 130 136.02 130 135C131.98 134.505 131.98 134.505 134 134C136.346 123.123 132.724 112.313 127 103C126.34 102.34 125.68 101.68 125 101C125 100.01 125 99.02 125 98Z" fill="white"/>
<path d="M104 108C104.99 108 105.98 108 107 108C106.988 109.279 106.977 110.557 106.965 111.875C106.955 113.583 106.946 115.292 106.937 117C106.929 117.839 106.921 118.678 106.912 119.543C106.712 130.629 106.712 130.629 112 140C112 140.99 112 141.98 112 143C109 143 109 143 107.312 141.5C106.879 141.005 106.446 140.51 106 140C104.638 144.257 104.047 148.594 105.73 152.844C109.498 159.482 116.255 168.389 123.715 170.922C126.406 171.276 126.406 171.276 130 171C130 171.99 130 172.98 130 174C124.922 174.452 121.229 174.771 116.812 172C115.842 171.032 114.907 170.028 114 169C113.12 168.041 113.12 168.041 112.223 167.062C110.441 165.073 108.718 163.044 107 161C106.237 160.154 105.474 159.309 104.687 158.437C100.392 152.232 100.769 146.114 102 139C102.33 138.01 102.66 137.02 103 136C103.07 134.539 103.084 133.076 103.062 131.613C103.055 130.757 103.047 129.9 103.039 129.018C103.013 127.234 102.987 125.45 102.961 123.666C102.913 118.336 103.214 113.274 104 108Z" fill="white"/>
<path d="M35 153C35.66 153 36.32 153 37 153C36.7834 154.33 36.7834 154.33 36.5625 155.687C36.6346 158.957 36.6346 158.957 38.4883 160.371C39.7259 161.194 40.988 161.981 42.2734 162.727C44.3276 164.242 45.0269 165.671 46 168C50.6687 166.699 55.1054 165.455 59.4375 163.25C62 162 62 162 65 163C65 163.66 65 164.32 65 165C61.9378 166.292 58.8752 167.584 55.8125 168.875C54.9482 169.24 54.0838 169.605 53.1933 169.98C49.142 171.688 45.0915 173.39 41 175C39.8846 181.047 39.7468 184.535 43 190C43 190.99 43 191.98 43 193C40.0131 191.958 39.1449 191.298 37.7343 188.398C37.4095 187.401 37.0847 186.403 36.75 185.375C36.4148 184.372 36.0797 183.369 35.7343 182.336C35.492 181.565 35.2497 180.794 35 180C34.5462 180.495 34.0925 180.99 33.625 181.5C32 183 32 183 30 183C30 180.875 30 180.875 31 178C34.5466 174.608 38.1194 171.921 43 171C41.0059 167.75 39.3202 165.253 36.3125 162.875C34 161 34 161 33.0625 159C32.9844 156.501 33.7168 155.113 35 153Z" fill="white"/>
<path d="M126 26C126.66 26 127.32 26 128 26C128.928 27.1756 128.928 27.1756 129.875 28.375C132.528 31.652 134.425 32.7471 138.578 33.4141C139.46 33.4837 140.342 33.5533 141.25 33.625C142.142 33.6998 143.034 33.7745 143.953 33.8516C144.966 33.925 144.966 33.925 146 34C146 34.99 146 35.98 146 37C145.01 37.495 145.01 37.495 144 38C145.767 39.3172 147.539 40.6286 149.312 41.9375C150.299 42.6684 151.285 43.3993 152.301 44.1523C156.719 47.1767 160.775 47.5206 166 47C170.077 46.0134 173.14 44.9407 176 41.8125C176.33 41.2144 176.66 40.6163 177 40C177.99 40.33 178.98 40.66 180 41C179.341 43.6366 178.662 45.4816 176.484 47.1875C170.27 50.862 164.152 51.6756 157 51C150.899 48.8394 144.924 44.1297 140.504 39.3984C138.674 37.6971 136.95 37.0216 134.625 36.125C130.423 34.3565 127.96 32.4372 125 29C125.33 28.01 125.66 27.02 126 26Z" fill="white"/>
<path d="M30 108C30.99 108 31.98 108 33 108C32.835 108.66 32.67 109.32 32.5 110C31.8401 113.959 31.5521 116.969 32 121C35.6956 124.432 39.0305 125.527 44 126C43.67 126.99 43.34 127.98 43 129C34.0857 128.245 34.0857 128.245 30 125C28.2202 122.094 27.7267 119.89 27.75 116.5C27.7448 115.747 27.7397 114.994 27.7343 114.219C28.0275 111.77 28.7818 110.127 30 108Z" fill="white"/>
</svg>
