<svg width="254" height="213" viewBox="0 0 254 213" fill="none" xmlns="http://www.w3.org/2000/svg">
<path d="M216.482 0.44959C217.299 0.444754 218.117 0.439919 218.959 0.434937C221.408 0.644213 223.464 1.04912 225.831 1.64383C231.368 2.94431 236.76 2.59705 242.404 2.32154C246.489 2.21567 248.463 2.16722 251.987 4.44261C252.572 5.05914 253.157 5.67568 253.76 6.3109C253.451 7.23933 253.141 8.16776 252.822 9.12433C251.72 9.5015 251.72 9.5015 250.595 9.8863C247.095 11.4697 246.698 13.0554 245.32 16.6268C244.905 18.3645 244.495 20.1034 244.089 21.8434C242.757 26.941 241.427 28.9566 236.88 31.6317C235.458 31.7768 235.458 31.7768 234.008 31.9248C231.219 32.2617 231.219 32.2617 230.121 34.1191C229.579 35.0929 229.579 35.0929 229.025 36.0863C225.967 41.5759 221.421 43.8088 215.72 46.1092C207.41 50.8548 203.742 66.9715 200.68 75.5968C199.942 77.6737 199.192 79.7457 198.44 81.8174C197.96 83.1524 197.48 84.4877 197.001 85.8232C196.78 86.4348 196.559 87.0463 196.332 87.6764C191.305 101.887 191.13 121.558 197.22 135.414C198.47 137.751 198.47 137.751 200.305 140.418C201.38 150.842 200.155 158.65 193.564 166.911C186.561 174.296 179.13 175.786 169.445 177.3C156.567 179.333 143.01 185.521 133.721 194.811C133.348 196.675 133.029 198.552 132.783 200.437C131.854 200.437 130.926 200.437 129.969 200.437C129.969 199.509 129.969 198.581 129.969 197.624C122.392 197.888 122.392 197.888 115.902 201.375C114.605 203.044 113.406 204.737 112.257 206.511C111.213 207.94 111.213 207.94 109.338 208.878C107.473 208.797 107.473 208.797 105.293 208.526C104.535 208.438 103.777 208.35 102.996 208.259C100.897 207.94 100.897 207.94 98.4355 207.178C95.3809 206.937 93.7851 208.154 91.281 209.808C86.1501 212.77 79.0585 212.447 73.4333 211.226C70.0887 210.085 67.8043 208.747 65.2605 206.299C62.5513 203.772 62.5513 203.772 58.8716 204.54C58.237 204.665 57.6023 204.789 56.9484 204.918C52.4851 205.383 48.2271 203.573 44.6653 200.969C43.7768 200.241 43.7768 200.241 42.8703 199.5C39.8796 197.054 37.432 196.126 33.668 195.279C30.0503 194.409 28.7655 193.942 25.8725 191.411C23.9745 188.208 22.8755 185.277 21.8318 181.729C21.0685 179.465 19.8986 177.874 18.37 176.054C18.37 175.435 18.37 174.816 18.37 174.179C17.5866 173.86 17.5866 173.86 16.7875 173.534C11.8954 170.757 8.40149 166.43 6.47155 161.167C6.05109 158.308 6.12302 155.493 6.17849 152.609C5.25006 152.3 4.32163 151.99 3.36506 151.671C0.979816 148.379 0.995283 144.521 0.786085 140.593C0.748383 139.894 0.71068 139.194 0.671835 138.473C0.301545 129.28 0.236908 119.77 6.17849 112.283C6.79744 112.283 7.4164 112.283 8.05411 112.283C7.97795 111.556 7.90179 110.828 7.82332 110.078C7.2957 101.055 9.49752 94.29 14.6188 86.9625C17.8114 83.7651 21.2656 81.1467 24.9347 78.5222C30.3855 74.2795 34.1557 69.7187 38.1226 64.0704C41.4238 59.6577 44.7283 56.7314 49.8452 54.6667C53.0248 53.2215 53.5627 52.7789 55.4721 50.1535C59.5402 44.967 65.9763 42.7494 71.8251 40.072C76.6997 37.8191 76.6997 37.8191 81.1446 34.8555C83.1079 33.4871 84.4935 33.0457 86.7715 32.3937C93.5822 30.2773 99.5977 25.9997 105.454 22.0009C113.334 16.9036 125.019 14.3238 134.189 16.1579C134.654 16.3126 135.118 16.4674 135.596 16.6268C135.906 15.6984 136.215 14.7699 136.534 13.8134C142.747 10.8491 149.548 9.62792 156.312 8.65908C158.944 8.20333 161.314 7.49437 163.848 6.66258C169.321 5.05646 174.616 5.18642 180.265 5.39461C184.594 5.52435 187.755 5.04522 191.865 3.49747C194.268 3.10916 194.268 3.10916 196.554 2.91134C197.36 2.84001 198.166 2.76869 198.997 2.6952C201.243 2.55966 201.243 2.55966 204.349 2.61827C206.879 2.71392 206.879 2.71392 209.064 1.63284C211.727 0.619937 213.646 0.433005 216.482 0.44959ZM207.807 5.37309C207.807 7.53943 207.807 9.70577 207.807 11.9378C206.879 11.9378 205.951 11.9378 204.994 11.9378C204.994 10.3904 204.994 8.84298 204.994 7.24871C200.205 4.45485 195.903 5.52087 190.718 6.84208C186.402 8.25383 184.026 9.84989 181.549 13.8134C181.239 14.7418 180.93 15.6702 180.611 16.6268C179.992 16.6268 179.373 16.6268 178.735 16.6268C179.026 15.9305 179.316 15.2342 179.615 14.5167C180.434 12.395 181.026 10.3906 181.549 8.18652C173.742 7.85141 166.362 7.95429 159.041 10.9999C158.732 11.6189 158.422 12.2379 158.104 12.8756C158.413 13.804 158.723 14.7324 159.041 15.689C158.364 15.012 157.687 14.335 156.99 13.6375C154.528 11.9469 153.428 11.9363 150.392 12.2491C144.333 13.3758 144.333 13.3758 139.347 16.6268C140.179 16.9556 141.011 17.2844 141.868 17.6232C145.789 19.917 147.229 22.2107 149.663 26.0049C147.02 24.9279 145.799 23.9957 143.919 21.7738C140.529 18.8393 137.743 18.5243 133.427 18.3852C132.684 18.3563 131.941 18.3275 131.175 18.2977C117.416 18.1195 106.473 24.2437 95.2704 31.6317C97.8851 35.2393 100.326 37.3373 104.18 39.5445C109.358 42.7259 111.797 45.6821 114.32 51.2085C115.733 53.826 117.014 55.4493 119.009 57.5973C122.94 61.9047 125.491 66.7716 128.094 71.9576C130.801 70.7302 132.708 69.39 134.834 67.3271C138.447 64.1146 142.223 62.8377 146.85 61.6416C146.85 62.2606 146.85 62.8796 146.85 63.5173C145.254 63.9815 145.254 63.9815 143.626 64.4551C138.427 66.3617 134.816 70.0241 130.907 73.8332C131.217 74.4521 131.526 75.0711 131.845 75.7088C133.083 75.7088 134.321 75.7088 135.596 75.7088C135.538 76.792 135.48 77.8751 135.42 78.9911C135.52 88.4657 140.5 93.615 146.85 100.092C147.382 100.589 147.914 101.086 148.462 101.597C149.663 102.905 149.663 102.905 150.601 105.719C149.054 104.79 147.506 103.862 145.912 102.905C145.506 103.93 145.1 104.956 144.681 106.012C142.666 110.665 142.666 110.665 140.285 112.283C139.047 112.283 137.809 112.283 136.534 112.283C136.224 111.664 135.915 111.045 135.596 110.408C136.312 110.33 137.027 110.253 137.765 110.173C140.339 109.663 140.339 109.663 141.985 107.887C143.549 104.841 143.743 103.505 143.099 100.092C142.13 98.7851 141.107 97.519 140.051 96.282C136.319 91.8825 135.058 87.5698 133.739 82.0134C133.053 79.3497 133.053 79.3497 130.918 78.4013C130.296 78.1317 129.673 77.8622 129.031 77.5844C128.02 75.87 128.02 75.87 127.156 73.8332C123.829 67.9406 120.32 62.104 115.902 56.9526C115.593 56.9526 115.283 56.9526 114.964 56.9526C114.964 58.8095 114.964 60.6663 114.964 62.5795C114.345 62.27 113.726 61.9605 113.089 61.6416C112.832 59.5243 112.832 59.5243 112.737 56.8354C112.341 52.1089 111.792 48.2671 108.4 44.7611C105.623 42.6758 102.786 40.7839 99.8422 38.9437C97.146 37.2586 97.146 37.2586 95.1934 35.6064C92.8259 34.0779 91.7272 34.2887 88.9988 34.8555C84.5153 35.9123 81.4075 37.8436 77.7194 40.5299C74.8077 42.4561 71.7435 43.5397 68.4879 44.7574C65.0003 46.1915 61.6192 47.9872 58.6958 50.3879C58.6958 51.0069 58.6958 51.6258 58.6958 52.2636C58.0769 52.2636 57.4579 52.2636 56.8202 52.2636C56.5107 53.192 56.2012 54.1204 55.8824 55.077C57.6379 57.6038 57.6379 57.6038 59.6336 59.766C58.8793 59.2438 58.1249 58.7215 57.3477 58.1835C53.3084 56.6953 51.5835 57.0356 47.6692 58.5645C43.9081 60.7137 41.5394 63.8237 39.0018 67.2685C38.2475 68.2163 37.4931 69.164 36.7159 70.1405C34.8703 73.6103 34.7806 75.5663 35.2506 79.46C35.8931 81.4501 36.6193 83.3579 37.4486 85.2774C38.064 86.9625 38.064 86.9625 38.064 89.7759C35.5047 85.876 33.9929 81.9555 32.4371 77.5844C21.0648 82.9041 15.2795 89.5643 10.8675 101.03C9.5666 104.946 10.5464 107.429 11.8053 111.346C12.1255 112.594 12.4424 113.843 12.7432 115.097C11.5052 114.787 10.2673 114.478 8.99192 114.159C4.92921 118.222 3.82857 122.637 3.36506 128.226C3.73516 130.313 3.73516 130.313 4.30287 131.977C4.67037 131.088 5.03788 130.198 5.41652 129.281C7.30193 126.03 8.26699 125.431 11.8053 124.475C11.8053 125.403 11.8053 126.332 11.8053 127.288C11.2396 127.528 10.6738 127.767 10.0909 128.014C6.61007 129.979 4.95102 133.071 3.36506 136.666C2.58364 140.968 3.09606 145.02 5.24068 148.858C6.16911 149.477 7.09754 150.096 8.05411 150.734C8.36358 149.805 8.67306 148.877 8.99192 147.92C9.61087 147.611 10.2298 147.301 10.8675 146.982C10.5387 147.872 10.2099 148.762 9.87111 149.678C8.62654 154.208 8.59317 158.406 9.92972 162.925C12.3527 166.712 15.3105 169.582 18.9561 172.186C23.2936 176.067 25.2743 181.84 27.162 187.249C28.5026 190.353 28.5026 190.353 31.6752 191.997C39.702 194.103 45.0112 191.354 52.0103 187.396C58.5554 183.016 62.5077 177.241 66.1983 170.428C66.8172 170.118 67.4362 169.809 68.0739 169.49C63.3609 181.466 57.2822 187.657 45.4492 192.818C44.5595 193.166 43.6698 193.514 42.753 193.873C44.0704 197.825 46.3011 198.492 49.8782 200.357C54.4141 202.407 57.9391 202.764 62.6229 201.199C65.7018 199.896 67.8715 198.433 69.9495 195.748C69.9495 195.129 69.9495 194.51 69.9495 193.873C70.878 193.873 71.8064 193.873 72.7629 193.873C70.831 197.254 68.6822 200.253 66.1983 203.251C67.0493 204.005 67.9004 204.76 68.7773 205.537C69.4953 206.173 69.4953 206.173 70.2279 206.823C74.6076 209.886 80.8057 209.519 85.8923 208.878C88.4165 207.798 90.7283 206.524 93.1163 205.174C96.4395 203.654 98.383 204.12 101.835 205.126C102.454 205.436 103.073 205.745 103.711 206.064C106.32 206.85 106.32 206.85 109.338 206.064C111.188 204.043 112.694 201.938 114.206 199.653C116.812 196.536 119.365 195.924 123.306 195.36C124.209 195.295 125.112 195.23 126.042 195.162C127.415 195.057 127.415 195.057 128.815 194.95C129.506 194.904 130.196 194.858 130.907 194.811C130.984 194.23 131.062 193.65 131.142 193.052C131.845 191.059 131.845 191.059 133.479 190.081C134.527 189.637 134.527 189.637 135.596 189.184C137.207 188.162 138.808 187.125 140.402 186.077C149.109 180.526 157.529 176.971 167.482 174.179C167.495 173.397 167.508 172.614 167.522 171.809C167.882 163.319 169.266 157.293 175.453 151.261C177.746 149.828 179.932 148.796 182.487 147.92C180.121 150.286 177.759 152.646 175.336 154.954C170.277 160.278 169.406 165.058 169.357 172.303C170.316 173.477 170.316 173.477 172.347 173.292C180.187 172.791 185.827 171.216 191.176 165.24C196.498 158.272 198.931 153.047 198.429 144.169C197.308 140.844 197.308 140.844 195.733 137.604C191.649 128.765 190.629 121.709 190.692 112.049C190.685 110.957 190.678 109.866 190.67 108.741C190.699 95.9528 193.794 85.4555 198.371 73.6573C198.881 72.3224 199.391 70.9871 199.9 69.6515C200.862 67.1308 201.828 64.6118 202.799 62.0945C204.178 58.5127 205.531 54.9225 206.87 51.3257C205.834 50.9685 205.834 50.9685 204.778 50.6041C203.863 50.2813 202.948 49.9585 202.005 49.626C201.102 49.3104 200.199 48.9949 199.268 48.6698C192.425 45.9086 192.425 45.9086 190.634 42.2407C190.315 41.1672 190.315 41.1672 189.989 40.072C190.918 40.072 191.846 40.072 192.803 40.072C192.856 40.6378 192.909 41.2036 192.964 41.7865C193.588 44.0312 193.588 44.0312 195.924 45.2153C196.828 45.607 197.732 45.9987 198.664 46.4022C199.558 46.8036 200.453 47.205 201.375 47.6185C204.097 48.5258 205.908 48.89 208.745 48.5123C210.433 47.4506 210.433 47.4506 211.852 45.9333C214.19 43.7526 216.257 42.3083 219.178 41.0098C223.822 38.8503 226.077 35.774 228.791 31.4559C229.633 29.5732 229.633 29.5732 228.439 26.9427C228.962 27.2522 229.484 27.5617 230.022 27.8805C232.621 29.0046 234.079 29.3084 236.88 28.8183C241.114 24.4702 241.952 19.8234 243.327 14.0735C244.443 10.8226 245.627 9.50971 248.133 7.24871C248.133 6.62975 248.133 6.0108 248.133 5.37309C246.629 5.3223 245.125 5.286 243.62 5.25586C242.782 5.2341 241.945 5.21234 241.081 5.18992C238.517 5.2016 238.517 5.2016 235.942 7.24871C236.87 8.17714 236.87 8.17714 237.817 9.12433C238.403 11.1172 238.403 11.1172 238.755 12.8756C238.314 12.4694 237.873 12.0632 237.418 11.6447C236.542 10.8613 236.542 10.8613 235.649 10.0621C235.072 9.53989 234.495 9.01765 233.901 8.47958C232.161 6.97485 232.161 6.97485 229.377 7.24871C229.377 6.62975 229.377 6.0108 229.377 5.37309C222.479 3.29055 214.339 1.52723 207.807 5.37309Z" fill="#1ABC9C"/>
<path d="M113.088 85.0867C115.902 88.0877 115.902 88.0877 115.902 90.7136C114.085 90.4205 114.085 90.4205 112.15 89.7758C111.686 88.3831 111.686 88.3831 111.213 86.9624C104.527 86.5199 98.9336 86.5625 93.3942 90.7136C92.7753 91.642 92.1563 92.5705 91.5186 93.527C89.6481 94.5519 87.7369 95.357 85.7745 96.1903C83.577 97.55 82.996 98.6099 82.1405 101.03C82.1405 102.267 82.1405 103.505 82.1405 104.781C81.5216 104.781 80.9026 104.781 80.2649 104.781C80.2649 104.162 80.2649 103.543 80.2649 102.905C76.8241 104.716 75.0795 105.823 73.7002 109.47C73.4045 111.34 73.113 113.21 72.8707 115.088C72.0177 121.449 71.261 126.769 66.4322 131.369C62.202 134.468 57.7054 137.043 53.0684 139.48C53.7696 139.821 54.4707 140.161 55.1931 140.513C60.8034 143.377 63.6498 145.445 67.1356 150.733C69.6556 151.765 71.9263 152.157 74.638 152.609C74.6767 151.932 74.7154 151.255 74.7553 150.558C75.9341 146.768 77.9605 145.413 81.2027 143.231C83.8989 142.938 83.8989 142.938 85.8918 143.231C84.7183 146.751 83.486 147.208 80.2649 148.858C79.6459 148.858 79.027 148.858 78.3893 148.858C78.0798 150.715 77.7703 152.572 77.4515 154.485C77.993 154.678 78.5346 154.871 79.0926 155.071C82.0122 156.855 83.2728 159.045 84.9539 161.987C84.9539 162.916 84.9539 163.844 84.9539 164.801C85.6309 165.071 86.3079 165.342 87.0054 165.621C88.6075 166.262 90.2033 166.919 91.786 167.607C94.5744 168.642 97.272 169.174 100.193 169.724C107.696 171.43 113.403 174.201 117.719 180.743C120.133 185.106 121.529 188.838 121.529 193.873C120.136 193.408 120.136 193.408 118.715 192.935C117.711 190.374 117.711 190.374 116.722 187.132C114.773 181.907 113.182 178.94 108.297 176.19C102.573 173.924 96.594 172.619 90.5808 171.365C91.6869 172.645 91.6869 172.645 92.8154 173.951C96.4773 178.358 98.4627 182.716 98.0247 188.539C97.1455 191.997 97.1455 191.997 95.5629 193.814C92.9748 195.003 90.5883 195.428 87.7674 195.748C87.7674 194.82 87.7674 193.891 87.7674 192.935C89.6242 192.316 91.4811 191.697 93.3942 191.059C94.9234 185.648 93.9746 182.432 91.3428 177.512C88.8084 173.94 85.6138 171.391 82.1515 168.742C80.2649 166.676 80.2649 166.676 80.1074 163.848C80.1594 162.924 80.2113 162.001 80.2649 161.049C79.8427 158.856 79.8427 158.856 78.3893 157.298C75.6409 156.433 75.6409 156.433 72.4694 156.009C65.6086 154.635 65.6086 154.635 63.0913 151.613C61.5087 148.858 61.5087 148.858 61.5087 146.982C60.3869 146.615 59.265 146.247 58.1091 145.869C53.1553 144.222 48.2559 142.434 43.3496 140.652C40.0688 139.524 36.7761 138.586 33.433 137.663C28.694 136.277 26.0599 134.519 22.575 131.12C21.0662 129.784 21.0662 129.784 18.1936 130.336C15.0264 132.307 13.6258 134.382 11.8048 137.604C11.1859 137.295 10.5669 136.985 9.9292 136.666C11.1005 131.981 12.5578 130.043 16.4939 127.288C17.1128 126.669 17.7318 126.05 18.3695 125.413C17.9053 124.6 17.9053 124.6 17.4317 123.771C16.4939 121.661 16.4939 121.661 16.4939 117.91C17.4223 117.91 18.3507 117.91 19.3073 117.91C19.6482 118.679 19.9891 119.448 20.3403 120.24C24.1887 128.489 26.763 131.61 35.25 134.791C37.1571 135.308 39.0724 135.796 40.9941 136.256C43.82 136.936 46.559 137.622 49.3172 138.542C51.5175 137.361 51.5175 137.361 53.7718 135.611C54.5999 135.002 55.428 134.393 56.2812 133.765C57.0778 133.175 57.8745 132.585 58.6953 131.977C59.9255 131.156 61.1562 130.335 62.3879 129.515C66.2975 126.484 67.8122 124.175 68.6265 119.262C68.8437 116.839 69.0586 114.417 69.2713 111.994C70.2159 107.168 72.6851 103.224 76.5137 100.092C77.1326 100.092 77.7516 100.092 78.3893 100.092C78.544 99.4147 78.6988 98.7377 78.8582 98.0402C80.8739 94.2607 83.9734 92.5711 87.7674 90.7136C88.3863 90.7136 89.0053 90.7136 89.643 90.7136C89.643 90.0946 89.643 89.4757 89.643 88.838C90.9894 88.073 92.3379 87.3118 93.6873 86.5521C94.8134 85.9156 94.8134 85.9156 95.9622 85.2662C101.613 82.2895 107.309 82.4598 113.088 85.0867Z" fill="#1ABC9C"/>
<path d="M201.243 14.7515C201.707 16.1441 201.707 16.1441 202.18 17.5649C201.355 17.6568 200.529 17.7487 199.678 17.8433C198.589 17.9836 197.5 18.1238 196.378 18.2683C194.762 18.4641 194.762 18.4641 193.114 18.6639C189.604 19.5362 187.843 20.6481 185.3 23.1918C184.469 26.1352 184.469 26.1352 184.362 28.8186C186.683 29.2828 186.683 29.2828 189.051 29.7564C189.051 30.3754 189.051 30.9943 189.051 31.6321C188.065 31.5934 187.078 31.5547 186.062 31.5148C182.482 32.1839 182.482 32.1839 181.072 34.4565C178.594 39.3021 177.006 44.1299 175.922 49.4504C176.85 49.141 177.779 48.8315 178.735 48.5126C178.735 49.7505 178.735 50.9884 178.735 52.2639C178.116 52.8828 177.497 53.5018 176.86 54.1395C176.284 56.1928 175.785 58.268 175.336 60.3525C175.091 61.4671 174.847 62.5817 174.596 63.73C174.414 64.5884 174.233 65.4467 174.046 66.331C174.634 66.3201 175.221 66.3092 175.826 66.298C176.593 66.2896 177.359 66.2811 178.149 66.2724C179.291 66.2561 179.291 66.2561 180.457 66.2394C182.486 66.331 182.486 66.331 184.362 67.2688C184.053 68.1972 183.743 69.1257 183.424 70.0822C180.329 69.7728 177.235 69.4633 174.046 69.1444C173.911 70.363 173.775 71.5816 173.636 72.8371C173.226 76.5297 173.226 76.5297 172.17 77.5847C171.996 79.1224 171.996 79.1224 171.819 80.6912C171.233 84.1494 171.233 84.1494 169.65 86.1422C169.244 86.7225 168.838 87.3028 168.419 87.9006C169.217 90.8743 170.455 92.8301 172.17 95.4031C173.377 103.038 171.416 108.619 167.481 115.097C168.278 115.86 168.278 115.86 169.09 116.639C169.778 117.31 170.465 117.981 171.174 118.672C171.86 119.336 172.545 120 173.251 120.684C176.238 123.987 176.026 126.947 175.98 131.216C175.972 132.235 175.963 133.254 175.955 134.304C175.944 135.084 175.933 135.863 175.922 136.667C175.303 136.667 174.684 136.667 174.046 136.667C173.908 135.773 173.77 134.88 173.628 133.96C172.598 126.329 172.598 126.329 168.243 120.372C167.373 119.869 166.503 119.366 165.606 118.848C162.125 121.169 161.998 122.462 160.858 126.409C160.538 127.506 160.217 128.602 159.887 129.732C159.201 132.314 158.615 134.868 158.103 137.487C157.027 142.659 155.104 146.794 150.601 149.796C150.601 145.87 151.535 144.201 153.33 140.828C155.257 136.518 156.154 131.885 157.166 127.289C156.665 127.492 156.165 127.695 155.649 127.904C150.071 129.989 145.273 130.436 139.347 130.102C139.347 129.174 139.347 128.245 139.347 127.289C140.151 127.175 140.955 127.061 141.783 126.944C150.12 125.923 150.12 125.923 158.103 123.537C158.766 121.99 159.385 120.423 159.979 118.848C161.023 117.188 162.1 115.547 163.203 113.925C167.371 107.447 167.371 107.447 169.357 100.092C167.953 95.0025 165.068 91.0827 161.855 86.9628C161.236 86.6533 160.617 86.3438 159.979 86.025C159.979 85.0966 159.979 84.1681 159.979 83.2116C161.575 83.4727 161.575 83.4727 163.203 83.7391C164.305 83.8745 165.408 84.0099 166.544 84.1494C167.843 83.0587 167.843 83.0587 167.657 80.0465C167.767 76.5562 167.767 76.5562 165.606 73.8335C165.606 72.5956 165.606 71.3577 165.606 70.0822C168.413 71.018 169.308 71.7255 171.233 73.8335C171.222 73.3004 171.211 72.7672 171.2 72.218C171.16 68.7926 171.207 65.5675 171.702 62.1695C172.089 59.4113 172.149 57.1287 172.053 54.3739C171.987 45.6113 174.96 37.9848 179.673 30.6942C180.137 30.23 180.137 30.23 180.611 29.7564C180.707 28.5959 180.804 27.4354 180.904 26.2397C181.347 22.378 182.461 20.323 185.3 17.5649C189.671 14.4429 196.035 14.5888 201.243 14.7515Z" fill="#1ABC9C"/>
<path d="M103.711 49.4497C101.14 52.4316 98.7796 53.7857 95.1421 55.2267C91.039 57.0761 87.6663 59.8456 84.5441 63.0479C79.9684 67.512 73.716 71.9571 67.136 71.9571C67.1578 72.8855 67.1795 73.8139 67.2019 74.7705C67.4935 92.0833 67.4935 92.0833 62.3151 97.6882C56.3213 102.725 43.3081 112.283 35.2505 112.283C35.4845 110.548 35.4845 110.548 36.1883 108.532C37.8263 107.319 37.8263 107.319 39.9469 106.279C40.7181 105.889 41.4894 105.499 42.2841 105.097C43.0964 104.703 43.9088 104.308 44.7458 103.901C54.4428 99.6007 54.4428 99.6007 61.8279 92.424C63.4816 86.5115 64.448 80.7738 62.447 74.7705C58.0082 77.3934 55.8826 79.727 53.0689 84.1486C52.4499 84.1486 51.831 84.1486 51.1932 84.1486C50.783 82.2144 50.783 82.2144 51.1932 79.4596C55.4336 73.6368 60.8012 71.2727 67.3705 68.8506C74.8117 65.9074 79.7067 63.0469 85.3024 57.3075C89.7104 53.3187 97.8301 47.4895 103.711 49.4497Z" fill="#1ABC9C"/>
<path d="M116.84 91.6514C117.768 91.6514 118.697 91.6514 119.653 91.6514C126.63 99.7015 129.414 110.554 130.204 121.017C129.952 123.722 129.132 125.734 128.094 128.226C128.403 128.845 128.713 129.464 129.031 130.102C128.992 131.745 128.948 133.388 128.874 135.031C128.427 146.516 131.84 155.091 139.347 163.863C146.038 163.172 150.345 159.789 155.29 155.422C156.955 153.248 157.937 151.382 159.041 148.858C159.97 148.858 160.898 148.858 161.855 148.858C161.549 153.902 158.793 156.771 155.29 160.111C150.059 164.513 145.444 168.091 138.409 167.614C132.278 163.38 127.888 154.649 125.709 147.59C124.768 142.141 125.084 136.545 125.28 131.039C124.042 130.42 122.804 129.801 121.529 129.164C121.529 128.235 121.529 127.307 121.529 126.35C123.386 125.886 123.386 125.886 125.28 125.412C127.48 115.212 124.083 105.074 118.715 96.3404C118.097 95.7215 117.478 95.1025 116.84 94.4648C116.84 93.5364 116.84 92.6079 116.84 91.6514Z" fill="#1ABC9C"/>
<path d="M97.1458 101.029C98.0742 101.029 99.0027 101.029 99.9592 101.029C99.9483 102.229 99.9375 103.428 99.9263 104.663C99.9175 106.265 99.9089 107.867 99.9006 109.47C99.8928 110.257 99.8849 111.044 99.8768 111.854C99.6889 122.251 99.6889 122.251 104.648 131.039C104.648 131.968 104.648 132.896 104.648 133.853C101.835 133.853 101.835 133.853 100.252 132.446C99.8461 131.982 99.4399 131.517 99.0214 131.039C97.7438 135.032 97.1898 139.099 98.7686 143.084C102.302 149.309 108.639 157.662 115.635 160.038C118.158 160.37 118.158 160.37 121.529 160.111C121.529 161.04 121.529 161.968 121.529 162.925C116.767 163.348 113.303 163.648 109.161 161.049C108.251 160.141 107.374 159.2 106.524 158.236C105.699 157.336 105.699 157.336 104.857 156.419C103.186 154.553 101.57 152.65 99.9592 150.733C99.2436 149.94 98.5279 149.147 97.7905 148.33C93.7619 142.511 94.1155 136.773 95.2702 130.101C95.5797 129.173 95.8891 128.245 96.208 127.288C96.2733 125.918 96.2872 124.545 96.2666 123.174C96.2593 122.371 96.2521 121.567 96.2446 120.74C96.2205 119.067 96.196 117.394 96.1714 115.721C96.1266 110.722 96.4088 105.975 97.1458 101.029Z" fill="#1ABC9C"/>
<path d="M32.437 143.231C33.0559 143.231 33.6749 143.231 34.3126 143.231C34.1095 144.479 34.1095 144.479 33.9023 145.751C33.9699 148.818 33.9699 148.818 35.7083 150.144C36.869 150.915 38.0526 151.653 39.258 152.353C41.1844 153.773 41.8402 155.113 42.7527 157.298C47.131 156.078 51.2917 154.912 55.3543 152.843C57.7574 151.671 57.7574 151.671 60.5708 152.609C60.5708 153.228 60.5708 153.847 60.5708 154.485C57.6991 155.697 54.827 156.908 51.9548 158.119C51.1443 158.461 50.3337 158.803 49.4986 159.155C45.6993 160.756 41.9008 162.353 38.0638 163.863C37.0178 169.534 36.8885 172.804 39.9393 177.929C39.9393 178.858 39.9393 179.786 39.9393 180.743C37.1383 179.766 36.3241 179.147 35.0013 176.427C34.6966 175.492 34.392 174.556 34.0781 173.592C33.7638 172.652 33.4495 171.711 33.1257 170.742C32.8984 170.019 32.6712 169.296 32.437 168.551C32.0115 169.016 31.586 169.48 31.1475 169.958C29.6236 171.365 29.6236 171.365 27.748 171.365C27.748 169.372 27.748 169.372 28.6858 166.676C32.0119 163.494 35.3624 160.975 39.9393 160.111C38.0693 157.064 36.4885 154.722 33.6679 152.492C31.4992 150.733 31.4992 150.733 30.62 148.858C30.5468 146.514 31.2337 145.213 32.437 143.231Z" fill="#1ABC9C"/>
<path d="M117.778 24.1295C118.397 24.1295 119.016 24.1295 119.653 24.1295C120.524 25.232 120.524 25.232 121.412 26.3568C123.9 29.43 125.679 30.457 129.574 31.0825C130.4 31.1478 131.227 31.2131 132.079 31.2803C132.916 31.3504 133.752 31.4205 134.614 31.4928C135.564 31.5617 135.564 31.5617 136.534 31.632C136.534 32.5604 136.534 33.4889 136.534 34.4454C135.605 34.9096 135.605 34.9096 134.658 35.3832C136.316 36.6185 137.977 37.8484 139.64 39.0759C140.565 39.7613 141.49 40.4467 142.443 41.153C146.586 43.9893 150.39 44.3117 155.29 43.8235C159.113 42.8983 161.986 41.8923 164.668 38.9586C164.978 38.3977 165.287 37.8368 165.606 37.2588C166.534 37.5683 167.463 37.8778 168.419 38.1967C167.801 40.6693 167.164 42.3995 165.122 43.9993C159.295 47.4453 153.557 48.2084 146.85 47.5747C141.128 45.5485 135.524 41.1317 131.38 36.6947C129.664 35.0992 128.046 34.4657 125.866 33.6248C121.926 31.9663 119.616 30.1664 116.84 26.9429C117.149 26.0145 117.459 25.0861 117.778 24.1295Z" fill="#1ABC9C"/>
<path d="M27.7483 101.029C28.6767 101.029 29.6051 101.029 30.5617 101.029C30.4069 101.648 30.2522 102.267 30.0928 102.905C29.474 106.618 29.2038 109.44 29.6239 113.221C33.0897 116.439 36.2172 117.466 40.8776 117.91C40.5681 118.838 40.2586 119.767 39.9398 120.723C31.5799 120.015 31.5799 120.015 27.7483 116.972C26.0792 114.247 25.6164 112.18 25.6382 109.001C25.6334 108.295 25.6285 107.589 25.6235 106.861C25.8984 104.565 26.6059 103.024 27.7483 101.029Z" fill="#1ABC9C"/>
</svg>
