<svg width="36" height="36" viewBox="0 0 36 36" fill="none" xmlns="http://www.w3.org/2000/svg">
<path fill-rule="evenodd" clip-rule="evenodd" d="M26.16 4.5C26.5578 4.50008 26.9393 4.65818 27.2205 4.9395L31.0605 8.7795C31.3417 9.06079 31.4997 9.44225 31.4997 9.84C31.4997 10.2377 31.3417 10.6192 31.0605 10.9005L27.291 14.67L21.33 8.709L25.0995 4.9395C25.3807 4.65818 25.7622 4.50008 26.16 4.5ZM19.209 10.83L4.9395 25.0995C4.65829 25.3808 4.50032 25.7623 4.50032 26.16C4.50032 26.5577 4.65829 26.9392 4.9395 27.2205L8.7795 31.0605C9.06079 31.3417 9.44225 31.4997 9.84 31.4997C10.2377 31.4997 10.6192 31.3417 10.9005 31.0605L25.17 16.791L19.209 10.83ZM9 9C9.39782 9 9.77936 9.15804 10.0607 9.43934C10.342 9.72064 10.5 10.1022 10.5 10.5V12H12C12.3978 12 12.7794 12.158 13.0607 12.4393C13.342 12.7206 13.5 13.1022 13.5 13.5C13.5 13.8978 13.342 14.2794 13.0607 14.5607C12.7794 14.842 12.3978 15 12 15H10.5V16.5C10.5 16.8978 10.342 17.2794 10.0607 17.5607C9.77936 17.842 9.39782 18 9 18C8.60218 18 8.22064 17.842 7.93934 17.5607C7.65804 17.2794 7.5 16.8978 7.5 16.5V15H6C5.60218 15 5.22064 14.842 4.93934 14.5607C4.65804 14.2794 4.5 13.8978 4.5 13.5C4.5 13.1022 4.65804 12.7206 4.93934 12.4393C5.22064 12.158 5.60218 12 6 12H7.5V10.5C7.5 10.1022 7.65804 9.72064 7.93934 9.43934C8.22064 9.15804 8.60218 9 9 9ZM22.5 22.5C22.8978 22.5 23.2794 22.658 23.5607 22.9393C23.842 23.2206 24 23.6022 24 24V25.5H25.5C25.8978 25.5 26.2794 25.658 26.5607 25.9393C26.842 26.2206 27 26.6022 27 27C27 27.3978 26.842 27.7794 26.5607 28.0607C26.2794 28.342 25.8978 28.5 25.5 28.5H24V30C24 30.3978 23.842 30.7794 23.5607 31.0607C23.2794 31.342 22.8978 31.5 22.5 31.5C22.1022 31.5 21.7206 31.342 21.4393 31.0607C21.158 30.7794 21 30.3978 21 30V28.5H19.5C19.1022 28.5 18.7206 28.342 18.4393 28.0607C18.158 27.7794 18 27.3978 18 27C18 26.6022 18.158 26.2206 18.4393 25.9393C18.7206 25.658 19.1022 25.5 19.5 25.5H21V24C21 23.6022 21.158 23.2206 21.4393 22.9393C21.7206 22.658 22.1022 22.5 22.5 22.5Z" fill="#1ABC9C"/>
<path d="M28.5 19.5H25.5V22.5H28.5V19.5ZM19.5 4.5H16.5V7.5H19.5V4.5ZM16.5 7.5H13.5V10.5H16.5V7.5ZM13.5 4.5H10.5V7.5H13.5V4.5ZM31.5 16.5H28.5V19.5H31.5V16.5ZM31.5 22.5H28.5V25.5H31.5V22.5Z" fill="#1ABC9C"/>
</svg>
