<svg width="322" height="62" viewBox="0 0 322 62" fill="none" xmlns="http://www.w3.org/2000/svg">
<path d="M67.1321 22.6225C70.104 22.6225 72.5137 20.3504 72.5137 17.547C72.5137 14.7448 70.104 12.4726 67.1321 12.4726C64.1596 12.4726 61.7486 14.7448 61.7486 17.547C61.7486 18.1771 61.877 18.7788 62.1 19.3356L55.5457 23.9532C54.1357 22.7384 52.2647 21.9913 50.2051 21.9913C49.5501 21.9913 48.9174 22.0748 48.3088 22.2163L44.6771 14.6465C45.5574 13.8709 46.1124 12.7692 46.1124 11.5437C46.1124 9.19709 44.0956 7.29541 41.6063 7.29541C39.1189 7.29541 37.1015 9.19709 37.1015 11.5437C37.1015 13.8897 39.1189 15.7913 41.6063 15.7913C41.8257 15.7913 42.0402 15.7709 42.2517 15.7425L45.8419 23.2287C44.248 24.2213 43.0622 25.7441 42.5548 27.5298L36.3453 27.0338C35.868 24.3787 33.4252 22.3555 30.4738 22.3555C27.1819 22.3555 24.5137 24.8719 24.5137 27.9753C24.5137 31.0792 27.1819 33.5957 30.4738 33.5957C33.0739 33.5957 35.2787 32.0241 36.094 29.8355L42.3324 30.3338C42.612 32.6161 43.9805 34.5809 45.9371 35.7627L44.715 38.6519L43.5786 41.3416C43.1779 41.2785 42.7681 41.2382 42.3487 41.2382C38.2301 41.2382 34.8942 44.3842 34.8942 48.2659C34.8942 52.1489 38.2301 55.2954 42.3487 55.2954C46.4649 55.2954 49.8026 52.1489 49.8026 48.2659C49.8026 45.8376 48.495 43.6967 46.5083 42.4331L47.6574 39.7121L48.8746 36.832C49.3085 36.9013 49.7502 36.9451 50.2051 36.9451C52.9438 36.9451 55.3595 35.636 56.7834 33.6451L62.2681 36.1559C62.2223 36.3911 62.1934 36.6326 62.1934 36.8797C62.1934 39.0638 64.0722 40.8337 66.3879 40.8337C68.7036 40.8337 70.5812 39.0638 70.5812 36.8797C70.5812 34.6951 68.7036 32.9252 66.3879 32.9252C65.1309 32.9252 64.0071 33.4491 63.2394 34.2741L57.7512 31.761C57.9976 31.0389 58.1338 30.2684 58.1338 29.4679C58.1338 28.2963 57.8397 27.1918 57.3318 26.2048L63.8866 21.5879C64.7892 22.2344 65.9112 22.6225 67.1321 22.6225Z" fill="url(#paint0_linear_557_618)"/>
<path d="M93.7617 49.7754C91.0417 49.7754 88.7057 49.3114 86.7537 48.3834C84.8337 47.4554 83.0897 46.0634 81.5217 44.2074L85.8417 39.8874C86.8337 41.1994 87.9857 42.2234 89.2977 42.9594C90.6097 43.6634 92.2097 44.0154 94.0977 44.0154C95.7937 44.0154 97.1377 43.6794 98.1297 43.0074C99.1537 42.3354 99.6657 41.4074 99.6657 40.2234C99.6657 39.1994 99.3777 38.3674 98.8017 37.7274C98.2257 37.0874 97.4577 36.5434 96.4977 36.0954C95.5697 35.6474 94.5297 35.2474 93.3777 34.8954C92.2577 34.5114 91.1217 34.0794 89.9697 33.5994C88.8497 33.1194 87.8097 32.5274 86.8497 31.8234C85.9217 31.0874 85.1697 30.1594 84.5937 29.0394C84.0177 27.8874 83.7297 26.4474 83.7297 24.7194C83.7297 22.6714 84.2257 20.9274 85.2177 19.4874C86.2097 18.0474 87.5697 16.9434 89.2977 16.1754C91.0257 15.4074 92.9777 15.0234 95.1537 15.0234C97.4577 15.0234 99.5377 15.4554 101.394 16.3194C103.25 17.1834 104.77 18.3034 105.954 19.6794L101.634 23.9994C100.642 22.9114 99.6177 22.1114 98.5617 21.5994C97.5377 21.0874 96.3697 20.8314 95.0577 20.8314C93.5537 20.8314 92.3697 21.1194 91.5057 21.6954C90.6417 22.2714 90.2097 23.1034 90.2097 24.1914C90.2097 25.1194 90.4977 25.8714 91.0737 26.4474C91.6497 27.0234 92.4017 27.5194 93.3297 27.9354C94.2897 28.3514 95.3297 28.7514 96.4497 29.1354C97.6017 29.5194 98.7377 29.9514 99.8577 30.4314C101.01 30.9114 102.05 31.5354 102.978 32.3034C103.938 33.0714 104.706 34.0634 105.282 35.2794C105.858 36.4634 106.146 37.9354 106.146 39.6954C106.146 42.8314 105.042 45.2954 102.834 47.0874C100.626 48.8794 97.6017 49.7754 93.7617 49.7754ZM117.312 49.4874L107.616 26.1114L114.432 26.1114L120.864 43.9674L118.56 43.9674L125.232 26.1114L132.096 26.1114L121.776 49.4874L117.312 49.4874ZM110.88 58.9914L117.936 44.0634L121.776 49.4874L117.552 58.9914L110.88 58.9914ZM150.32 49.2954L150.32 35.9994C150.32 34.6234 149.888 33.5034 149.024 32.6394C148.16 31.7754 147.04 31.3434 145.664 31.3434C144.768 31.3434 143.968 31.5354 143.264 31.9194C142.56 32.3034 142 32.8474 141.584 33.5514C141.2 34.2554 141.008 35.0714 141.008 35.9994L138.56 34.7514C138.56 32.9274 138.944 31.3434 139.712 29.9994C140.512 28.6234 141.6 27.5514 142.976 26.7834C144.384 26.0154 145.968 25.6314 147.728 25.6314C149.424 25.6314 150.944 26.0634 152.288 26.9274C153.632 27.7594 154.688 28.8634 155.456 30.2394C156.224 31.5834 156.608 33.0394 156.608 34.6074L156.608 49.2954L150.32 49.2954ZM134.72 49.2954L134.72 26.1114L141.008 26.1114L141.008 49.2954L134.72 49.2954ZM159.849 49.2954L173.433 15.5514L178.761 15.5514L192.297 49.2954L185.337 49.2954L174.873 21.5994L177.273 21.5994L166.665 49.2954L159.849 49.2954ZM167.049 43.0074L167.049 37.5354L185.193 37.5354L185.193 43.0074L167.049 43.0074ZM208.849 49.7754C207.185 49.7754 205.681 49.4394 204.337 48.7674C202.993 48.0634 201.921 47.1194 201.121 45.9354C200.321 44.7514 199.889 43.3914 199.825 41.8554L199.825 33.6474C199.889 32.1114 200.321 30.7514 201.121 29.5674C201.953 28.3514 203.025 27.3914 204.337 26.6874C205.681 25.9834 207.185 25.6314 208.849 25.6314C210.993 25.6314 212.913 26.1594 214.609 27.2154C216.305 28.2714 217.633 29.7114 218.593 31.5354C219.585 33.3594 220.081 35.4234 220.081 37.7274C220.081 39.9994 219.585 42.0474 218.593 43.8714C217.633 45.6954 216.305 47.1354 214.609 48.1914C212.913 49.2474 210.993 49.7754 208.849 49.7754ZM195.985 58.9914L195.985 26.1114L202.273 26.1114L202.273 32.2074L201.217 37.8234L202.225 43.4394L202.225 58.9914L195.985 58.9914ZM207.745 43.9674C208.897 43.9674 209.921 43.7114 210.817 43.1994C211.713 42.6554 212.401 41.9194 212.881 40.9914C213.393 40.0314 213.649 38.9274 213.649 37.6794C213.649 36.4634 213.393 35.3914 212.881 34.4634C212.401 33.5034 211.713 32.7674 210.817 32.2554C209.921 31.7114 208.897 31.4394 207.745 31.4394C206.625 31.4394 205.617 31.7114 204.721 32.2554C203.825 32.7674 203.121 33.5034 202.609 34.4634C202.129 35.3914 201.889 36.4634 201.889 37.6794C201.889 38.9274 202.129 40.0314 202.609 40.9914C203.121 41.9194 203.809 42.6554 204.673 43.1994C205.569 43.7114 206.593 43.9674 207.745 43.9674ZM237.068 49.7754C235.404 49.7754 233.9 49.4394 232.556 48.7674C231.212 48.0634 230.14 47.1194 229.34 45.9354C228.54 44.7514 228.108 43.3914 228.044 41.8554L228.044 33.6474C228.108 32.1114 228.54 30.7514 229.34 29.5674C230.172 28.3514 231.244 27.3914 232.556 26.6874C233.9 25.9834 235.404 25.6314 237.068 25.6314C239.212 25.6314 241.132 26.1594 242.828 27.2154C244.524 28.2714 245.852 29.7114 246.812 31.5354C247.804 33.3594 248.3 35.4234 248.3 37.7274C248.3 39.9994 247.804 42.0474 246.812 43.8714C245.852 45.6954 244.524 47.1354 242.828 48.1914C241.132 49.2474 239.212 49.7754 237.068 49.7754ZM224.204 58.9914L224.204 26.1114L230.492 26.1114L230.492 32.2074L229.436 37.8234L230.444 43.4394L230.444 58.9914L224.204 58.9914ZM235.964 43.9674C237.116 43.9674 238.14 43.7114 239.036 43.1994C239.932 42.6554 240.62 41.9194 241.1 40.9914C241.612 40.0314 241.868 38.9274 241.868 37.6794C241.868 36.4634 241.612 35.3914 241.1 34.4634C240.62 33.5034 239.932 32.7674 239.036 32.2554C238.14 31.7114 237.116 31.4394 235.964 31.4394C234.844 31.4394 233.836 31.7114 232.94 32.2554C232.044 32.7674 231.34 33.5034 230.828 34.4634C230.348 35.3914 230.108 36.4634 230.108 37.6794C230.108 38.9274 230.348 40.0314 230.828 40.9914C231.34 41.9194 232.028 42.6554 232.892 43.1994C233.788 43.7114 234.812 43.9674 235.964 43.9674ZM260.391 49.8234C259.079 49.8234 257.783 49.6474 256.503 49.2954C255.255 48.9434 254.103 48.4634 253.047 47.8554C251.991 47.2154 251.079 46.4474 250.311 45.5514L254.055 41.7594C254.855 42.6554 255.783 43.3274 256.839 43.7754C257.895 44.2234 259.063 44.4474 260.343 44.4474C261.367 44.4474 262.135 44.3034 262.647 44.0154C263.191 43.7274 263.463 43.2954 263.463 42.7194C263.463 42.0794 263.175 41.5834 262.599 41.2314C262.055 40.8794 261.335 40.5914 260.439 40.3674C259.543 40.1114 258.599 39.8394 257.607 39.5514C256.647 39.2314 255.719 38.8314 254.823 38.3514C253.927 37.8394 253.191 37.1514 252.615 36.2874C252.071 35.3914 251.799 34.2394 251.799 32.8314C251.799 31.3594 252.151 30.0794 252.855 28.9914C253.591 27.9034 254.631 27.0554 255.975 26.4474C257.319 25.8394 258.903 25.5354 260.727 25.5354C262.647 25.5354 264.375 25.8714 265.911 26.5434C267.479 27.2154 268.775 28.2234 269.799 29.5674L266.007 33.3594C265.303 32.4954 264.503 31.8714 263.607 31.4874C262.743 31.1034 261.799 30.9114 260.775 30.9114C259.847 30.9114 259.127 31.0554 258.615 31.3434C258.135 31.6314 257.895 32.0314 257.895 32.5434C257.895 33.1194 258.167 33.5674 258.711 33.8874C259.287 34.2074 260.023 34.4954 260.919 34.7514C261.815 34.9754 262.743 35.2474 263.703 35.5674C264.695 35.8554 265.623 36.2714 266.487 36.8154C267.383 37.3594 268.103 38.0794 268.647 38.9754C269.223 39.8714 269.511 41.0234 269.511 42.4314C269.511 44.7034 268.695 46.5114 267.063 47.8554C265.431 49.1674 263.207 49.8234 260.391 49.8234ZM284.839 49.7754C282.407 49.7754 280.247 49.2634 278.359 48.2394C276.471 47.1834 274.967 45.7434 273.847 43.9194C272.759 42.0954 272.215 40.0154 272.215 37.6794C272.215 35.3754 272.743 33.3274 273.799 31.5354C274.887 29.7114 276.359 28.2714 278.215 27.2154C280.071 26.1274 282.135 25.5834 284.407 25.5834C286.647 25.5834 288.615 26.0954 290.311 27.1194C292.039 28.1114 293.383 29.4874 294.343 31.2474C295.335 32.9754 295.831 34.9434 295.831 37.1514C295.831 37.5674 295.799 37.9994 295.735 38.4474C295.703 38.8634 295.623 39.3434 295.495 39.8874L276.007 39.9354L276.007 35.2314L292.567 35.1834L290.023 37.1514C289.959 35.7754 289.703 34.6234 289.255 33.6954C288.839 32.7674 288.215 32.0634 287.383 31.5834C286.583 31.0714 285.591 30.8154 284.407 30.8154C283.159 30.8154 282.071 31.1034 281.143 31.6794C280.215 32.2234 279.495 33.0074 278.983 34.0314C278.503 35.0234 278.263 36.2074 278.263 37.5834C278.263 38.9914 278.519 40.2234 279.031 41.2794C279.575 42.3034 280.343 43.1034 281.335 43.6794C282.327 44.2234 283.479 44.4954 284.791 44.4954C285.975 44.4954 287.047 44.3034 288.007 43.9194C288.967 43.5034 289.799 42.8954 290.503 42.0954L294.199 45.7914C293.079 47.1034 291.703 48.0954 290.071 48.7674C288.471 49.4394 286.727 49.7754 284.839 49.7754Z" fill="url(#paint1_linear_557_618)"/>
<defs>
<linearGradient id="paint0_linear_557_618" x1="24.5137" y1="31.2954" x2="72.5137" y2="31.2954" gradientUnits="userSpaceOnUse">
<stop stop-color="#0C6E5B"/>
<stop offset="1" stop-color="#18B596"/>
</linearGradient>
<linearGradient id="paint1_linear_557_618" x1="80.5137" y1="31.2954" x2="297.514" y2="31.2954" gradientUnits="userSpaceOnUse">
<stop stop-color="#18B596"/>
<stop offset="1" stop-color="#0C6E5B"/>
</linearGradient>
</defs>
</svg>
