<svg width="129" height="181" viewBox="0 0 129 181" fill="none" xmlns="http://www.w3.org/2000/svg">
<path d="M97.8836 2.19854C100.986 5.66345 102.51 8.65935 103.804 13.1409C105.379 18.4801 107.758 21.3712 111.577 25.3177C115.39 29.7635 116.108 34.828 116.464 40.5132C116.776 44.8633 118.132 47.547 120.655 51.0599C122.855 54.2787 122.902 57.496 123.146 61.2805C123.223 62.4308 123.301 63.5811 123.38 64.7662C123.458 65.9696 123.535 67.1731 123.615 68.413C123.769 70.7833 123.925 73.1535 124.084 75.5235C124.151 76.5762 124.219 77.629 124.289 78.7136C124.512 81.7117 124.512 81.7117 125.043 84.6234C125.46 87.1613 125.611 89.5033 125.615 92.0707C125.616 92.9242 125.617 93.7777 125.619 94.657C125.615 95.5323 125.611 96.4075 125.608 97.3093C125.611 98.1918 125.615 99.0742 125.619 99.9835C125.617 101.26 125.617 101.26 125.615 102.562C125.614 103.332 125.613 104.102 125.612 104.895C125.49 107.039 125.49 107.039 124.933 109.074C124.808 109.64 124.682 110.207 124.553 110.79C124.978 111.429 125.404 112.067 125.842 112.725C128.608 117.725 128.94 123.473 127.439 128.949C126.939 130.638 126.939 130.638 126.428 132.36C126.054 134.796 125.722 137.239 125.432 139.687C124.65 146.232 124.65 146.232 123.615 148.303C122.686 148.612 121.758 148.922 120.801 149.24C120.883 150.056 120.883 150.056 120.966 150.889C121.194 154.839 121.249 157.77 118.808 161.022C116.112 163.308 116.112 163.308 113.006 163.659C111.758 163.485 111.758 163.485 110.485 163.308C110.408 164.139 110.331 164.971 110.251 165.828C109.453 169.354 108.254 171.017 105.796 173.623C102.217 175.413 97.5089 174.833 93.5261 174.882C88.8698 175.047 86.2468 175.801 82.2456 178.38C78.6238 180.161 74.5957 180.009 70.6285 180.13C69.7738 180.181 68.9191 180.232 68.0386 180.285C61.6851 180.547 57.6634 179.503 52.224 176.144C50.4044 175.251 50.4044 175.251 48.4032 176.356C45.369 177.533 42.7461 177.794 39.505 178.019C38.4375 178.1 37.3701 178.181 36.2703 178.265C33.585 178.313 33.585 178.313 31.7094 177.375C31.7094 176.253 31.7094 175.131 31.7094 173.975C31.3253 169.021 28.9961 166.118 26.1412 162.253C21.6533 156.103 20.2822 151.625 19.9648 143.932C19.4169 140.092 18.1916 138.177 15.7667 135.173C14.5209 134.348 14.5209 134.348 13.25 133.507C9.90424 130.296 10.2762 126.921 10.0812 122.454C9.29576 110.051 9.29576 110.051 2.87179 99.8296C2.17547 99.4234 1.47914 99.0173 0.761719 98.5988C0.908251 96.9026 0.908251 96.9026 1.69953 94.8475C3.95613 93.3492 3.95613 93.3492 6.85748 91.9755C7.87537 91.4919 8.89326 91.0084 9.94199 90.5101C12.4594 89.4321 14.9072 88.5416 17.5251 87.7553C22.6118 86.1852 25.5017 83.2369 29.2477 79.4909C33.4774 75.2612 37.8533 71.3103 42.8459 68.0027C46.3255 65.3582 47.3128 63.5395 47.9109 59.2163C48.1946 56.3042 48.4266 53.3911 48.623 50.4719C49.2447 43.4628 52.0986 39.0568 57.5285 34.4724C60.0998 32.7839 62.7276 31.5797 65.5239 30.3131C71.7009 27.7532 71.7009 27.7532 76.347 23.226C76.9719 21.1462 77.3447 19.1535 77.6621 17.0093C78.5743 15.7401 79.5133 14.4898 80.4755 13.2581C81.0787 11.8586 81.6628 10.4508 82.2339 9.03796C83.836 5.32016 85.3617 3.19904 88.9158 1.06658C92.251 -0.247278 94.9985 -0.0302286 97.8836 2.19854ZM87.0402 5.75562C85.9607 7.50162 85.112 9.27205 84.2707 11.1444C82.8933 14.11 81.1891 16.8646 79.4937 19.6579C78.4502 22.04 78.4376 23.8137 78.5999 26.3874C83.3969 27.5304 83.3969 27.5304 87.8608 25.8013C90.0124 23.3965 90.5271 22.0573 90.7914 18.885C91.7198 18.885 92.6483 18.885 93.6048 18.885C90.6114 26.4399 90.6114 26.4399 87.978 28.2631C84.8327 29.3732 82.4978 29.0763 79.3033 28.4975C73.9079 27.8108 70.7997 30.0808 66.4084 32.9521C64.7478 33.8901 63.0871 34.828 61.4263 35.7655C57.2921 38.2563 54.5238 40.7784 52.3412 45.1436C51.9923 47.7035 51.6812 50.2543 51.4034 52.8219C50.8531 57.7788 50.2597 62.7174 49.5278 67.651C50.5788 68.4379 51.6348 69.2182 52.6929 69.9956C53.5742 70.6484 53.5742 70.6484 54.4733 71.3144C56.0371 72.5074 56.0371 72.5074 57.9681 72.3401C57.9681 73.2685 57.9681 74.197 57.9681 75.1535C56.7545 74.5721 55.5437 73.9849 54.3341 73.3951C53.6595 73.0687 52.985 72.7423 52.2899 72.406C50.4656 71.4023 50.4656 71.4023 48.59 69.5267C42.0714 69.9923 36.5396 76.5422 32.1197 80.7804C28.3413 84.3817 24.6023 87.9128 20.4557 91.0963C21.1327 91.5218 21.8097 91.9473 22.5072 92.3858C28.0536 97.5625 30.6864 104.932 31.2991 112.373C31.417 113.771 31.417 113.771 31.5373 115.197C31.5941 115.909 31.6509 116.621 31.7094 117.355C30.781 117.355 29.8526 117.355 28.896 117.355C28.9504 116.719 29.0048 116.083 29.0608 115.428C29.472 106.947 27.1691 101.383 21.921 94.7889C18.9324 92.5292 17.663 91.8918 13.891 92.0341C10.6297 93.3689 7.57097 94.9766 4.51296 96.7231C4.51296 97.3421 4.51296 97.961 4.51296 98.5988C5.20928 99.2177 5.9056 99.8367 6.62303 100.474C10.1351 103.786 11.4011 108.2 12.9532 112.666C13.8817 112.202 13.8817 112.202 14.8289 111.728C14.8289 111.109 14.8289 110.49 14.8289 109.852C17.1499 109.388 17.1499 109.388 19.5179 108.915C19.9821 109.843 19.9821 109.843 20.4557 110.79C19.6433 111.138 19.6433 111.138 18.8145 111.494C16.2507 112.918 14.7644 114.085 12.9532 116.417C12.7291 118.975 12.716 120.999 12.9532 123.509C12.9986 124.455 12.9986 124.455 13.0448 125.42C13.2802 128.459 13.536 130.124 15.7081 132.327C17.561 133.438 17.561 133.438 19.5179 133.298C23.2691 144.283 23.2691 144.283 23.2691 149.24C23.7132 154.634 27.0432 158.574 30.2148 162.764C33.3617 167.059 34.2402 170.169 34.5229 175.499C36.1451 175.391 37.7666 175.272 39.3877 175.147C40.7423 175.05 40.7423 175.05 42.1242 174.95C44.8529 174.559 47.0228 173.812 49.5278 172.686C49.5278 171.757 49.5278 170.829 49.5278 169.872C50.1044 170.335 50.6811 170.798 51.2752 171.275C52.0332 171.876 52.7912 172.477 53.5721 173.096C54.3228 173.694 55.0736 174.293 55.847 174.909C61.2492 178.8 68.4843 177.752 74.8487 177.375C79.1465 176.478 82.4553 175.117 86.1024 172.686C87.8969 172.476 87.8969 172.476 89.9049 172.495C90.6363 172.484 91.3677 172.473 92.1212 172.462C93.65 172.455 95.179 172.462 96.7077 172.484C100.923 172.432 100.923 172.432 104.565 170.536C106.574 168.232 107.687 166.769 107.613 163.659C106.797 161.591 105.938 159.624 104.859 157.681C106.106 158.377 106.106 158.377 107.379 159.087C110.399 160.455 111.943 161.105 115.174 160.494C117.05 159.144 117.05 159.144 117.988 156.743C118.305 151.909 117.844 147.441 117.05 142.676C117.979 142.676 118.907 142.676 119.864 142.676C120.173 143.604 120.482 144.533 120.801 145.489C122.831 142.444 122.949 141.245 123.146 137.694C123.433 133.717 124.23 130.515 125.49 126.733C126.067 120.776 125.208 116.662 121.739 111.728C118.769 108.413 116.302 106.388 111.951 105.281C111.158 105.242 110.365 105.203 109.548 105.163C109.548 104.854 109.548 104.544 109.548 104.226C114.832 103.71 117.416 105.21 121.739 107.977C122.049 106.913 122.358 105.849 122.677 104.753C122.851 104.155 123.025 103.556 123.204 102.94C124.369 95.9425 123.329 89.0742 122.267 82.1285C121.331 75.784 120.619 69.5464 120.391 63.1378C120.118 57.3694 119.079 52.9245 116.112 47.957C114.874 49.195 113.636 50.4329 112.361 51.7083C112.511 51.0361 112.661 50.364 112.815 49.6715C114.405 40.9541 113.544 32.8053 108.551 25.391C107.652 24.4916 107.652 24.4916 106.734 23.574C106.115 23.574 105.496 23.574 104.859 23.574C103.225 20.5601 102.224 17.5287 101.225 14.2545C99.0052 7.4313 99.0052 7.4313 93.6635 2.9422C90.6281 2.9422 89.383 3.82281 87.0402 5.75562Z" fill="#1ABC9C"/>
<path d="M97.3559 32.952C97.3559 35.7655 97.3559 35.7655 95.3045 37.9341C93.9989 39.1817 93.9989 39.1817 92.6669 40.4545C88.9621 44.4239 86.2591 48.2255 85.1644 53.5838C85.6333 55.6939 85.6333 55.6939 87.04 57.3351C89.9131 61.4724 90.4664 64.5731 90.7913 69.5266C90.327 70.455 90.327 70.455 89.8535 71.4022C89.2345 71.4022 88.6155 71.4022 87.9778 71.4022C87.886 70.8473 87.7941 70.2924 87.6994 69.7208C86.7984 64.9591 85.8223 61.8599 82.351 58.2729C81.6764 58.8169 81.0019 59.3609 80.3069 59.9214C78.6389 61.2474 76.9555 62.5545 75.2515 63.8338C69.0407 68.4511 69.0407 68.4511 65.4704 75.1535C65.3737 76.2173 65.277 77.2811 65.1773 78.3772C64.4038 82.3856 62.8963 83.8439 60.2026 86.7588C58.424 88.8489 57.823 90.2175 57.9679 92.9718C59.1928 94.5549 60.4484 96.1144 61.7192 97.6609C63.0268 99.5829 64.3161 101.518 65.5876 103.464C68.0889 107.334 68.0889 107.334 71.0973 110.79C72.9618 111.163 74.8386 111.482 76.7241 111.728C76.7241 112.656 76.7241 113.585 76.7241 114.541C74.0664 115.04 72.7194 115.233 70.1595 114.541C64.3696 109.841 60.5848 103.173 57.0301 96.7231C51.2392 105.531 48.4972 113.44 47.652 123.92C48.1852 123.944 48.7183 123.968 49.2676 123.993C55.5375 124.453 59.7188 125.955 64.474 130.25C64.8028 130.637 65.1316 131.023 65.4704 131.422C65.1609 132.35 64.8515 133.279 64.5326 134.235C63.9668 133.84 63.4011 133.445 62.8182 133.038C62.0687 132.524 61.3191 132.01 60.5469 131.481C59.4372 130.714 59.4372 130.714 58.305 129.931C54.2748 127.522 50.4415 127.171 45.7764 127.671C41.3375 131.876 40.9203 135.963 40.7357 141.855C40.7707 148.065 42.2753 152.572 45.7764 157.681C46.2926 158.171 46.8088 158.662 47.3407 159.168C48.5898 160.494 48.5898 160.494 48.5898 163.308C46.3948 162.944 45.1384 162.67 43.5455 161.073C37.6466 152.39 36.3098 145.809 37.3361 135.173C38.1551 132.053 39.1039 129.298 41.0874 126.733C43.0949 125.579 43.0949 125.579 44.8386 124.857C44.7951 124.322 44.7516 123.786 44.7067 123.235C44.3452 115.112 46.1722 106.932 50.4655 99.9468C52.2348 96.9057 53.146 94.3243 54.1581 90.979C55.7948 85.7597 55.7948 85.7597 58.4955 83.1248C61.1609 80.3911 61.4262 78.8277 62.2467 75.1535C64.0496 67.1284 67.7436 64.3293 74.4382 59.9104C79.0858 56.5811 81.2029 53.3922 83.5819 48.1914C90.8162 32.952 90.8162 32.952 97.3559 32.952Z" fill="#1ABC9C"/>
<path d="M112.361 89.2212C114.108 90.9503 114.108 90.9503 115.174 92.9725C115.174 93.9009 115.174 94.8293 115.174 95.7859C114.246 95.4764 113.318 95.1669 112.361 94.8481C111.897 93.9196 111.897 93.9196 111.423 92.9725C107.869 92.0664 105.514 91.8341 101.987 92.9138C98.8573 95.111 97.1313 97.4291 94.9713 100.541C93.2565 102.812 91.1332 104.341 88.9158 106.102C88.9158 107.03 88.9158 107.959 88.9158 108.915C87.9874 108.915 87.059 108.915 86.1024 108.915C86.1024 110.772 86.1024 112.629 86.1024 114.542C84.2455 115.471 84.2455 115.471 82.3512 116.418C82.1545 120.301 82.1545 120.301 83.289 123.92C83.6084 125.713 83.8971 127.512 84.1682 129.313C84.6682 132.491 85.19 135.245 86.2782 138.28C87.3258 141.745 86.9954 143.853 86.1024 147.365C85.3111 148.789 84.4882 150.195 83.6407 151.586C81.9029 154.488 81.0767 156.233 81.5892 159.616C81.8407 160.525 82.0921 161.434 82.3512 162.37C83.4247 162.573 83.4247 162.573 84.5199 162.781C87.0402 163.308 87.0402 163.308 89.8536 164.246C89.8536 164.865 89.8536 165.484 89.8536 166.122C87.1778 167.459 85.3198 167.35 82.3512 167.059C79.655 165.184 79.655 165.184 77.6621 163.308C77.1496 163.612 76.637 163.915 76.1089 164.228C73.5144 165.356 71.5751 165.465 68.7529 165.477C67.8729 165.493 66.9928 165.508 66.086 165.524C63.2362 165.135 61.9626 164.264 59.8438 162.37C60.1532 161.442 60.4627 160.513 60.7816 159.557C61.6906 160.06 62.5997 160.563 63.5364 161.081C67.2106 162.612 70.0706 162.645 73.9036 161.612C77.0808 159.727 77.6932 156.887 78.7465 153.483C79.5377 151.117 79.5377 151.117 81.7064 148.186C83.877 144.488 83.3806 142.032 82.3512 137.987C82.0417 137.078 81.7322 136.169 81.4134 135.232C80.3968 132.119 80.0415 129.268 79.7575 126.019C79.5498 123.667 79.5498 123.667 78.7758 120.403C78.5478 116.452 79.8159 115.575 82.3512 112.666C83.0985 109.677 83.0985 109.677 83.289 107.04C82.6942 106.82 82.0994 106.6 81.4866 106.373C79.5377 105.164 79.5377 105.164 78.7611 103.135C78.6306 102.373 78.5 101.611 78.3655 100.827C78.2253 100.06 78.085 99.2937 77.9405 98.5041C77.8027 97.6228 77.8027 97.6228 77.6621 96.7237C78.5906 96.4142 79.519 96.1047 80.4756 95.7859C81.0945 98.5712 81.7135 101.356 82.3512 104.226C87.7085 102.887 90.6547 100.245 93.6049 95.7273C98.2041 88.9722 104.557 87.6897 112.361 89.2212Z" fill="#1ABC9C"/>
<path d="M113.299 54.522C112.989 55.1603 112.68 55.7985 112.361 56.4562C110.67 61.425 110.956 65.1098 113.24 69.7611C115.554 74.5273 116.157 79.2549 116.112 84.5313C115.803 85.1503 115.493 85.7692 115.174 86.4069C114.246 86.0974 113.318 85.788 112.361 85.4691C112.438 84.4246 112.516 83.3802 112.595 82.3041C112.626 76.6205 110.172 71.7124 107.672 66.7133C107.281 62.8167 107.096 59.397 108.903 55.87C110.485 54.522 110.485 54.522 113.299 54.522Z" fill="#1ABC9C"/>
<path d="M94.5425 116.417C95.4709 116.417 96.3993 116.417 97.3559 116.417C97.8782 117.5 98.4004 118.584 98.9385 119.7C102.427 127.384 102.427 127.384 108.434 132.829C109.111 132.984 109.788 133.138 110.485 133.298C110.485 133.917 110.485 134.536 110.485 135.173C107.758 135.285 106.381 135.296 103.921 134.236C101.316 131.361 99.3414 128.18 97.3559 124.858C96.8288 124.06 96.3018 123.262 95.7587 122.44C94.5425 120.168 94.5425 120.168 94.5425 116.417Z" fill="#1ABC9C"/>
<path d="M70.1595 77.0294C74.2207 76.6313 76.0774 76.5264 79.3617 79.0809C83.0072 83.7678 83.5209 87.0529 83.2888 92.9722C82.3604 92.9722 81.432 92.9722 80.4754 92.9722C80.3618 92.4064 80.2481 91.8407 80.131 91.2578C79.9739 90.5082 79.8167 89.7587 79.6548 88.9865C79.4263 87.8767 79.4263 87.8767 79.1932 86.7445C78.5872 84.4848 78.0406 82.7206 76.7242 80.7807C74.2128 79.994 71.8721 80.0139 69.2217 79.8429C69.5312 78.9144 69.8406 77.986 70.1595 77.0294Z" fill="#1ABC9C"/>
<path d="M106.734 146.427C109.489 148.83 109.489 148.83 111.423 151.116C111.114 152.045 110.804 152.973 110.486 153.93C109.731 153.156 108.977 152.382 108.2 151.585C104.925 148.797 102.237 148.835 98.0669 149.076C97.5229 149.13 96.9789 149.184 96.4184 149.24C96.4184 149.859 96.4184 150.478 96.4184 151.116C95.49 150.807 94.5615 150.497 93.605 150.178C93.9145 149.25 94.2239 148.321 94.5428 147.365C98.8624 145.308 102.137 145.173 106.734 146.427Z" fill="#1ABC9C"/>
<path d="M62.6568 152.054C62.6568 152.982 62.6568 153.911 62.6568 154.867C60.1811 155.486 57.7054 156.105 55.1547 156.743C54.1032 160.304 54.1032 160.304 54.2169 163.307C52.979 162.688 51.7412 162.069 50.4658 161.431C50.8066 155.411 50.8066 155.411 53.3963 153.05C56.6241 151.857 59.2418 151.853 62.6568 152.054Z" fill="#1ABC9C"/>
</svg>
