<svg width="232" height="210" viewBox="0 0 232 210" fill="none" xmlns="http://www.w3.org/2000/svg">
<path d="M75.4537 0.224595C76.2348 0.232377 77.016 0.240159 77.8208 0.248177C87.1259 0.500443 94.5344 3.07666 102.65 7.55123C108.967 10.8945 115.252 12.2669 122.227 13.7056C135.379 16.4578 144.486 20.0439 152.178 31.5826C154.58 32.484 154.58 32.484 157.453 33.1651C170.209 36.8662 184.967 43.2921 192.328 54.6761C195.945 60.0828 199.587 61.3609 205.63 63.3216C209.74 64.9036 212.084 67.0542 214.074 70.9706C214.668 73.0909 215.068 75.1753 215.418 77.3484C216.172 80.2754 217.821 82.1268 219.675 84.4589C221.133 86.7546 220.695 88.9397 220.638 91.6024C221.821 93.5213 223.084 95.3917 224.389 97.2292C225.743 99.1398 227.092 101.054 228.434 102.973C229.107 103.924 229.78 104.874 230.474 105.853C231.892 108.483 231.892 108.483 231.767 110.578C230.76 112.63 229.272 113.878 227.628 115.432C222.571 120.965 219.516 128.42 216.411 135.148C213.904 139.459 210.349 140.871 205.926 142.889C200.373 145.611 195.712 148.879 191.566 153.498C190.469 156.788 190.457 159.585 190.335 163.052C189.851 171.515 188.145 176.059 181.895 181.808C179.368 183.946 176.815 185.869 174.041 187.669C170.583 190.012 168.703 193.103 166.582 196.648C165.307 198.513 165.307 198.513 162.494 200.388C159.166 201.005 155.848 201.517 152.493 201.964C147.988 202.657 145.153 203.561 141.862 206.953C141.553 207.881 141.243 208.81 140.924 209.766C126.284 206.093 126.284 206.093 123.106 201.326C122.862 198.449 122.811 195.597 122.765 192.71C122.414 189.951 122.414 189.951 120.23 188.391C116.399 186.815 112.515 186.288 108.431 185.803C106.599 185.512 106.599 185.512 103.412 184.446C101.711 181.86 100.599 180.068 100.599 176.943C97.5039 176.634 94.4091 176.324 91.2206 176.005C91.2206 176.624 91.2206 177.243 91.2206 177.881C90.2921 177.881 89.3637 177.881 88.4071 177.881C88.5039 177.185 88.6006 176.488 88.7002 175.771C88.6736 173.031 88.6736 173.031 86.3923 171.335C73.4798 162.19 57.4436 159.963 41.9709 159.872C41.2416 159.867 40.5123 159.861 39.7609 159.856C38.2289 159.847 36.6969 159.841 35.1649 159.837C32.8602 159.828 30.5563 159.799 28.2518 159.769C19.4238 159.712 11.5901 160.35 3.0665 162.876C2.75702 161.947 2.44754 161.019 2.12869 160.062C2.74764 160.062 3.3666 160.062 4.00431 160.062C4.2751 159.385 4.54589 158.709 4.82489 158.011C5.46903 156.401 6.14137 154.801 6.86169 153.223C9.83538 144.777 7.61943 136.024 4.00431 128.177C3.28974 126.916 3.28974 126.916 2.56073 125.629C0.0992615 120.097 0.596101 114.038 0.604748 108.073C0.603379 107.391 0.602009 106.709 0.600598 106.006C0.625628 96.9917 1.13155 90.0327 5.88359 82.1254C8.7096 77.1946 9.69712 71.5784 11.0379 66.1057C15.8646 47.037 15.8646 47.037 23.7569 40.4332C25.625 39.519 27.501 38.6207 29.3838 37.737C33.6282 35.4793 37.021 32.4193 38.7033 27.8314C38.7033 26.9029 38.7033 25.9745 38.7033 25.0179C39.5156 25.2307 40.328 25.4435 41.165 25.6627C45.2234 26.0384 46.7279 25.6538 49.957 23.1423C51.28 20.1103 51.9922 16.9719 52.7704 13.7642C54.7733 7.13227 54.7733 7.13227 57.1664 4.56196C63.3679 1.3774 68.5452 0.134947 75.4537 0.224595ZM58.3972 7.19955C55.1097 12.898 54.034 19.5488 52.7704 25.9557C52.224 26.0283 51.6775 26.1008 51.1146 26.1755C44.2292 27.6046 40.8596 30.913 36.2692 35.8989C33.5468 38.7982 31.4939 40.6419 27.6254 41.8985C22.8491 43.709 21.0147 46.8805 18.6796 51.2986C16.6054 55.9873 15.1863 60.887 13.7927 65.8126C13.5338 66.7204 13.2748 67.6281 13.0081 68.5633C12.7822 69.4254 12.5564 70.2875 12.3237 71.1757C12.1199 71.9488 11.9162 72.7219 11.7062 73.5184C11.4641 76.1178 11.9803 77.24 13.3824 79.4109C14.0014 80.0298 14.6203 80.6488 15.258 81.2865C15.7196 83.1841 15.7196 83.1841 16.0786 85.3894C16.8411 89.1956 17.8595 90.9406 20.8849 93.478C21.1944 94.4064 21.5038 95.3349 21.8227 96.2914C15.7773 92.1696 15.7773 92.1696 14.5034 88.4776C14.2334 87.0117 14.0079 85.5366 13.8367 84.056C13.5084 81.8518 13.5084 81.8518 10.569 80.3487C4.12791 88.2024 3.21161 96.2003 2.77343 106.138C2.70702 107.284 2.6406 108.43 2.57218 109.61C2.39167 117.238 3.84819 122.494 7.33815 129.257C8.96457 132.463 9.75702 135.274 10.4517 138.786C10.6621 139.807 10.8724 140.829 11.0892 141.881C11.227 142.62 11.3648 143.359 11.5068 144.12C12.3464 143.917 12.3464 143.917 13.2029 143.709C21.4156 141.952 29.417 142.068 37.7654 142.244C37.7654 140.078 37.7654 137.911 37.7654 135.679C38.6939 135.679 39.6223 135.679 40.5789 135.679C40.5789 137.846 40.5789 140.012 40.5789 142.244C45.7707 143.584 51.4125 143.947 56.5216 142.244C56.5216 143.173 56.5216 144.101 56.5216 145.058C51.0793 145.143 45.7028 145.168 40.2858 144.589C25.782 142.661 25.782 142.661 12.4446 146.933C10.3599 150.368 8.69335 154.115 8.69335 158.187C9.4851 158.035 10.2769 157.884 11.0926 157.728C14.4238 157.234 17.5805 157.112 20.9472 157.092C21.5731 157.088 22.1991 157.084 22.844 157.079C24.8677 157.07 26.8912 157.07 28.9149 157.073C29.6059 157.074 30.2969 157.074 31.0088 157.075C50.9495 157.119 70.9744 157.434 88.4071 168.503C88.8895 169.16 89.3718 169.818 89.8688 170.496C91.594 172.74 92.6266 172.82 95.3821 173.192C99.1356 173.888 101.128 174.645 103.412 177.881C103.758 179.123 104.076 180.373 104.35 181.632C105.457 181.881 106.565 182.13 107.705 182.387C109.166 182.721 110.626 183.056 112.087 183.39C112.816 183.554 113.545 183.717 114.296 183.885C115.003 184.048 115.71 184.211 116.439 184.38C117.087 184.527 117.735 184.674 118.403 184.826C120.431 185.424 122.183 186.263 124.044 187.259C126.904 171.034 126.904 171.034 121.055 156.231C117.172 152.13 112.595 150.734 107.163 149.747C106.854 149.128 106.544 148.509 106.226 147.871C113.937 149.406 119.285 150.531 124.271 156.85C129.514 165.184 126.905 176.873 126.147 186.182C124.958 194.959 124.958 194.959 127.737 202.85C131.452 204.518 134.917 206.053 139.049 206.015C141.472 203.905 141.472 203.905 143.738 201.326C147.174 200.066 150.796 199.509 154.446 199.355C159.783 198.897 162.322 197.17 165.749 193.224C167.847 190.652 169.855 188.018 171.872 185.383C172.786 184.422 173.71 183.468 174.686 182.57C173.816 182.456 172.947 182.343 172.052 182.226C170.367 181.99 170.367 181.99 168.648 181.749C166.967 181.521 166.967 181.521 165.253 181.288C163.887 180.994 163.887 180.994 162.494 180.694C162.185 180.075 161.875 179.456 161.556 178.819C162.226 178.969 162.896 179.118 163.586 179.273C170.393 180.511 177.168 180.712 183.126 176.943C187.387 172.121 187.368 166.909 187.509 160.707C187.601 157.158 187.918 154.698 189.691 151.622C189.578 146.563 187.345 143.11 184.064 139.431C183.135 138.812 182.207 138.193 181.25 137.555C180.941 136.627 180.631 135.698 180.312 134.742C184.557 136.739 186.666 139.499 189.288 143.241C190.556 144.959 191.894 146.405 193.442 147.871C194.193 147.242 194.193 147.242 194.958 146.6C199.468 142.94 203.795 140.159 209.139 137.87C214.214 134.873 216.342 129.55 218.763 124.426C221.492 118.648 224.392 113.873 229.079 109.421C228.502 108.595 227.925 107.769 227.331 106.919C226.565 105.819 225.8 104.718 225.034 103.618C224.466 102.805 224.466 102.805 223.886 101.975C217.813 93.2356 217.813 93.2356 217.883 89.1993C218.126 85.9735 218.126 85.9735 216.301 83.8069C211.984 80.7394 208.045 80.0999 202.82 80.3487C202.82 79.4202 202.82 78.4918 202.82 77.5352C205.915 77.8447 209.009 78.1542 212.198 78.4731C212.051 72.7478 212.051 72.7478 208.681 68.2744C203.01 64.5661 198.832 64.1528 192.211 64.2887C191.427 64.2972 190.643 64.3056 189.835 64.3143C187.911 64.3363 185.987 64.37 184.064 64.4059C183.754 63.787 183.445 63.168 183.126 62.5303C186.84 62.5303 190.553 62.5303 194.38 62.5303C185.686 48.2636 171.215 39.3199 154.992 35.3338C151.796 35.1307 151.796 35.1307 149.365 36.2716C147.018 38.6915 147.018 38.6915 146.551 41.8985C145.932 41.8985 145.313 41.8985 144.676 41.8985C145.76 38.2297 146.885 35.4515 149.365 32.5204C144.911 24.7272 137.976 20.5819 129.407 18.1785C122.975 16.5552 116.565 15.4554 109.977 14.702C110.441 16.0947 110.441 16.0947 110.915 17.5155C110.978 18.9795 110.994 20.4461 110.973 21.9114C110.965 22.6694 110.956 23.4274 110.948 24.2083C110.937 24.785 110.926 25.3616 110.915 25.9557C109.986 25.9557 109.058 25.9557 108.101 25.9557C108.411 25.3368 108.72 24.7178 109.039 24.0801C109.326 19.871 109.026 16.6303 107.163 12.8264C104.78 11.0878 102.194 9.98557 99.485 8.84072C98.7881 8.52399 98.0912 8.20726 97.3731 7.88093C89.9861 4.59204 83.4053 3.10874 75.3364 3.09664C74.5343 3.07367 73.7322 3.0507 72.9058 3.02703C67.4138 3.0019 62.8814 3.85153 58.3972 7.19955Z" fill="#1ABC9C"/>
<path d="M187.815 104.732C188.743 104.732 189.672 104.732 190.628 104.732C192.132 108.022 192.711 110.494 192.504 114.11C198.499 114.396 204.006 114.259 209.385 111.297C210.734 108.943 210.734 108.943 211.26 106.608C212.189 106.298 213.117 105.989 214.074 105.67C213.601 109.804 212.281 112.071 209.385 115.048C205.464 117.086 202.032 117.106 197.662 117.158C193.067 117.225 193.067 117.225 188.965 119.037C187.93 120.502 186.935 121.996 185.939 123.488C183.979 124.602 181.977 125.402 179.888 126.247C177.179 127.372 174.592 128.641 171.99 129.994C171.141 130.428 170.292 130.862 169.418 131.309C166.803 133.131 165.699 134.673 164.37 137.555C164.108 141.159 164.108 141.159 165.425 143.593C166.245 145.996 166.245 145.996 165.718 148.399C163.212 152.647 159.631 154.847 154.992 156.312C154.063 156.312 153.135 156.312 152.178 156.312C153.1 153.99 153.64 152.796 155.845 151.538C156.511 151.276 157.177 151.014 157.864 150.743C159.869 149.882 159.869 149.882 161.556 148.809C162.614 146.357 162.614 146.357 162.494 144.12C159.425 141.336 157.448 140.984 153.351 141.131C152.427 141.156 151.503 141.182 150.552 141.208C149.5 141.257 149.5 141.257 148.427 141.307C148.427 141.926 148.427 142.545 148.427 143.182C147.808 143.182 147.189 143.182 146.551 143.182C146.551 143.801 146.551 144.42 146.551 145.058C145.146 145.651 145.146 145.651 143.712 146.256C142.49 146.775 141.268 147.294 140.045 147.813C139.118 148.203 139.118 148.203 138.172 148.602C135.106 149.754 135.106 149.754 132.484 151.623C132.124 155.374 132.071 157.513 134.067 160.766C136.221 162.862 138.274 164.291 140.925 165.69C141.157 164.974 141.389 164.258 141.628 163.521C142.921 160.74 143.919 159.703 146.551 158.187C147.48 158.187 148.408 158.187 149.365 158.187C148.425 160.283 147.666 161.775 145.965 163.345C144.253 164.895 144.253 164.895 144.676 168.503C145.749 168.706 145.749 168.706 146.845 168.913C150.309 170.928 150.433 173.044 151.464 176.775C152.087 179.033 152.087 179.033 154.288 180.929C154.83 181.471 155.372 182.012 155.93 182.57C155.778 185.751 155.383 186.868 153.116 189.135C150.304 189.881 147.475 190.451 144.625 191.032C141.511 192.065 140.172 193.183 138.111 195.7C136.935 198.168 136.935 198.168 136.236 200.389C135.307 200.079 134.379 199.77 133.422 199.451C134.924 192.128 134.924 192.128 137.796 189.681C142.312 187.333 147.193 186.261 152.178 185.384C151.098 183.069 150.258 181.588 148.427 179.757C148.176 178.693 147.924 177.629 147.665 176.533C146.891 173.163 146.891 173.163 144.617 171.727C143.708 171.282 142.799 170.837 141.862 170.379C136.671 167.251 131.965 164.337 128.733 159.125C128.144 155.485 128.501 152.32 129.671 148.809C131.14 147.846 131.14 147.846 133.012 146.992C133.683 146.672 134.354 146.351 135.045 146.021C136.445 145.388 137.854 144.774 139.272 144.182C143.636 142.296 143.636 142.296 146.083 138.259C146.237 137.408 146.392 136.557 146.551 135.68C147.074 135.992 147.596 136.304 148.134 136.625C151.934 138.255 155.732 137.531 159.681 136.618C162.214 134.826 163.244 133.932 163.784 130.873C163.977 130.293 164.171 129.713 164.37 129.115C166.773 128.177 166.773 128.177 169.997 127.239C171.919 126.357 173.79 125.401 175.667 124.426C177.266 123.607 178.904 122.867 180.547 122.14C183.461 120.484 184.906 118.661 186.877 115.986C187.496 115.676 188.115 115.367 188.753 115.048C188.836 111.454 188.639 108.234 187.815 104.732Z" fill="#1ABC9C"/>
<path d="M51.8325 44.7124C54.0296 45.811 56.2183 46.9185 58.3972 48.0533C62.6594 50.0957 66.0308 50.4144 70.7675 50.5167C81.8 50.7995 81.8 50.7995 86.8245 53.563C91.8218 56.2944 96.4891 56.4946 102.064 56.8453C109.724 57.3491 115.154 58.4545 121.23 63.4686C122.159 64.0875 123.087 64.7065 124.044 65.3442C124.643 64.4931 125.243 63.6421 125.861 62.7652C129.349 58.607 133.983 56.2936 139.386 55.739C141.151 55.7327 142.915 55.8381 144.676 55.9661C144.366 56.8945 144.057 57.823 143.738 58.7795C141.349 59.4719 141.349 59.4719 138.345 60.0104C134.47 60.8686 131.97 61.4441 129.436 64.5822C128.895 65.4526 128.353 66.323 127.795 67.2198C133.627 74.2005 133.627 74.2005 141.84 77.3196C150.048 77.6641 157.311 76.0318 164.545 72.2019C169.638 69.9197 175.815 70.4613 181.25 70.9711C183.525 71.9272 183.525 71.9272 185.001 72.8467C185.001 73.7751 185.001 74.7035 185.001 75.6601C183.747 75.4407 183.747 75.4407 182.466 75.2169C181.369 75.0343 180.271 74.8518 179.14 74.6637C178.052 74.4787 176.964 74.2938 175.843 74.1032C173.161 73.8214 171.56 73.8371 169.059 74.7223C169.522 75.1309 169.985 75.5395 170.462 75.9605C175.43 80.5792 175.43 80.5792 176.503 84.5107C176.532 85.7002 176.532 85.7002 176.561 86.9138C173.292 85.824 172.909 85.0598 171.052 82.2834C169.35 79.9534 168.189 78.5194 165.776 76.891C163.313 76.3557 163.313 76.3557 160.933 77.9167C157.441 79.5852 154.217 80.1239 150.42 80.525C149.774 80.6018 149.129 80.6785 148.464 80.7576C146.889 80.9435 145.314 81.1165 143.738 81.287C144.357 81.8479 144.976 82.4088 145.613 82.9867C147.489 85.0382 147.489 85.0382 147.489 87.8516C143.469 87.4049 141.751 85.0562 139.049 82.2248C138.12 81.4511 137.192 80.6774 136.235 79.8803C133.422 77.5357 133.422 77.5357 131.37 75.3084C128.161 72.3125 124.681 70.1698 120.945 67.8829C118.867 66.5669 117.031 65.1973 115.135 63.6444C111.141 60.6759 106.363 60.3021 101.536 59.7174C102.001 61.2841 102.001 61.2841 102.474 62.8825C103.677 67.6593 104.747 73.9287 102.474 78.4735C101.546 78.4735 100.617 78.4735 99.6608 78.4735C99.6826 77.8268 99.7043 77.18 99.7267 76.5137C99.8408 70.5756 99.2919 65.4617 97.7852 59.7174C97.1844 59.6932 96.5835 59.669 95.9645 59.6441C94.7478 59.5643 94.7478 59.5643 93.5064 59.4829C92.7122 59.4394 91.9179 59.3959 91.0996 59.351C88.4071 58.7795 88.4071 58.7795 85.3226 56.8929C81.4554 54.5471 78.0135 54.5172 73.578 54.5008C66.2007 54.2761 59.2017 54.0336 53.122 49.4014C51.8325 47.5258 51.8325 47.5258 51.8325 44.7124Z" fill="#1ABC9C"/>
<path d="M166.245 107.545C166.245 108.474 166.245 109.402 166.245 110.359C158.508 110.049 150.771 109.74 142.8 109.421C142.8 110.04 142.8 110.659 142.8 111.296C143.786 111.645 144.773 111.993 145.789 112.351C150.42 114.329 152.658 117.477 155.285 121.73C155.929 123.488 155.929 123.488 155.929 127.239C153.116 126.301 153.116 126.301 152.145 124.528C151.827 123.798 151.509 123.068 151.182 122.316C148.805 117.909 146.326 115.782 141.734 113.809C136.561 112.581 131.921 113.748 126.857 115.048C125.739 115.327 124.621 115.606 123.469 115.894C117.66 117.282 117.66 117.282 112.915 120.623C111.626 122.594 111.626 122.594 111.852 125.364C113.042 125.683 113.042 125.683 114.255 126.008C117.963 127.424 121.125 129.219 124.044 131.928C124.508 133.321 124.508 133.321 124.982 134.742C120.506 134.742 119.834 133.789 116.541 130.99C113.071 128.597 109.36 128.546 105.288 129.115C95.5271 132.664 90.1729 143.941 85.2237 152.483C83.718 154.436 83.718 154.436 81.6556 155.187C81.0983 155.248 80.541 155.31 79.9668 155.373C79.9668 154.445 79.9668 153.517 79.9668 152.56C80.5858 152.56 81.2047 152.56 81.8424 152.56C82.0999 151.869 82.3574 151.177 82.6227 150.465C86.1356 142.146 92.8569 133.164 99.6608 127.239C101.873 126.463 101.873 126.463 104.115 126.067C104.865 125.927 105.614 125.786 106.387 125.642C107.235 125.504 107.235 125.504 108.101 125.364C108.188 124.377 108.188 124.377 108.277 123.371C109.322 119.673 110.624 117.279 113.728 115.048C119.462 112.85 125.422 111.573 131.429 110.359C134.303 109.775 136.493 108.861 139.049 107.428C147.087 103.22 157.629 106.361 166.245 107.545Z" fill="#1ABC9C"/>
<path d="M23.6982 73.7842C27.8997 74.3428 30.9226 76.0083 34.6003 78.0629C40.2835 81.0593 45.4082 82.7736 51.8325 81.2867C54.1819 79.5673 54.1819 79.5673 55.5838 77.5354C56.5122 77.5354 57.4406 77.5354 58.3972 77.5354C58.3972 78.1544 58.3972 78.7733 58.3972 79.411C58.9654 79.6842 59.5336 79.9575 60.1189 80.2389C65.2611 82.7547 70.1939 85.4708 75.0653 88.4777C78.7161 90.6618 81.0343 91.847 85.3592 91.7198C86.4835 91.6944 86.4835 91.6944 87.6305 91.6685C88.1962 91.6467 88.762 91.625 89.3449 91.6026C89.8091 90.2099 89.8091 90.2099 90.2827 88.7891C90.9017 88.7891 91.5206 88.7891 92.1583 88.7891C92.3904 89.5048 92.6225 90.2205 92.8617 90.9578C94.2015 93.8385 95.0934 94.6628 97.7852 96.2916C100.694 96.9088 103.574 97.2347 106.526 97.5811C109.039 98.1672 109.039 98.1672 110.915 100.981C116.041 102.743 122.8 102.893 127.736 100.688C129.665 99.1732 129.665 99.1732 131.195 97.5225C132.484 96.2916 132.484 96.2916 135.298 96.2916C133.834 100.242 131.092 102.242 127.795 104.732C121.454 106.846 114.378 105.836 108.101 103.794C107.173 103.175 106.244 102.556 105.288 101.918C102.706 101.201 100.109 100.611 97.4958 100.021C94.9718 99.105 94.9718 99.105 93.0888 97.1232C91.3579 95.1026 91.3579 95.1026 88.821 95.2183C87.9301 95.321 87.0391 95.4238 86.1212 95.5296C77.717 95.8485 71.5161 91.3803 64.819 86.7413C61.6574 84.7247 59.3036 84.3106 55.5838 84.1001C54.6553 84.4096 53.7269 84.719 52.7703 85.0379C45.1001 86.1669 39.243 84.9403 32.4316 81.5211C31.7798 81.1954 31.1279 80.8697 30.4564 80.5341C27.169 78.7686 24.8473 77.4546 23.6982 73.7842Z" fill="#1ABC9C"/>
<path d="M69.6509 21.267C70.5793 21.5764 71.5078 21.8859 72.4643 22.2048C72.5079 22.9253 72.5514 23.6458 72.5962 24.3881C73.1698 27.1095 73.1698 27.1095 75.7906 28.3445C77.2776 28.903 77.2776 28.903 78.7945 29.4728C79.7762 29.8548 80.7578 30.2368 81.7692 30.6304C87.3218 32.4625 92.2794 32.6388 98.0783 32.5793C98.8622 32.5751 99.6462 32.5708 100.454 32.5665C102.378 32.5555 104.302 32.5387 106.225 32.5207C106.69 33.9133 106.69 33.9133 107.163 35.3341C105.306 35.6436 103.45 35.9531 101.536 36.2719C106.395 38.366 109.395 39.6534 114.666 38.1475C115.285 37.8381 115.904 37.5286 116.541 37.2097C117.16 37.5192 117.779 37.8287 118.417 38.1475C118.881 39.5402 118.881 39.5402 119.355 40.961C123.171 43.0944 126.992 43.0886 131.253 43.1883C140.971 43.6361 147.302 46.3439 154.849 52.5114C160.413 56.864 164.839 58.3439 171.872 57.8415C171.872 58.77 171.872 59.6984 171.872 60.655C166.207 61.9808 162.079 61.432 156.867 58.7793C154.37 56.989 152.028 55.1008 149.702 53.0939C143.246 47.7921 137.863 47.3354 129.771 47.1227C125.187 46.9145 119.961 46.256 116.541 42.8366C114.804 42.7115 113.065 42.6197 111.325 42.5435C105.982 42.1546 100.815 41.1772 96.8474 37.2097C95.0904 36.9166 93.3324 36.6279 91.5706 36.3651C83.5824 35.1574 75.5958 33.7765 69.6509 27.8316C69.5337 24.4321 69.5337 24.4321 69.6509 21.267Z" fill="#1ABC9C"/>
<path d="M23.6982 96.2916C33.6439 95.5579 40.4441 96.2797 49.0191 101.918C49.638 102.537 50.257 103.156 50.8947 103.794C53.6965 104.121 56.4766 104.209 59.2947 104.318C62.1484 104.732 62.1484 104.732 64.3574 106.175C67.8218 108.089 70.9806 107.689 74.8088 107.487C82.5279 107.277 88.6351 108.656 95.9096 111.297C98.6394 112.048 101.377 112.751 104.123 113.443C106.225 114.11 106.225 114.11 109.039 115.986C109.039 116.914 109.039 117.843 109.039 118.799C107.385 118.19 107.385 118.19 105.698 117.568C99.4566 115.468 92.9927 114.373 86.5315 113.172C86.1289 113.901 85.7263 114.63 85.3116 115.381C83.3644 118.412 81.1512 119.777 78.0912 121.612C78.5554 124.862 78.5554 124.862 79.029 128.177C77.212 127.825 77.212 127.825 75.2778 127.239C73.8598 124.403 73.7944 122.889 74.3399 119.737C76.1218 118.089 77.9699 116.809 80.0181 115.509C82.0329 113.964 82.7694 112.685 83.718 110.359C82.6542 110.514 81.5904 110.668 80.4943 110.828C73.0155 111.726 68.2107 111.5 61.2106 108.483C59.476 108.3 57.7357 108.167 55.994 108.073C51.3471 107.757 49.0201 106.649 45.2679 103.794C38.4068 99.689 31.5686 99.329 23.6982 99.1051C23.6982 98.1766 23.6982 97.2482 23.6982 96.2916Z" fill="#1ABC9C"/>
<path d="M11.5068 119.737C13.8508 120.171 15.3513 120.735 17.3681 122.052C20.2635 123.664 22.5986 124.135 25.867 124.602C26.8692 124.75 27.8714 124.899 28.9039 125.052C30.0409 125.206 30.0409 125.206 31.2008 125.364C31.2008 124.435 31.2008 123.507 31.2008 122.55C31.8198 122.802 32.4387 123.053 33.0765 123.312C34.4691 123.863 34.4691 123.863 35.8899 124.426C37.4566 125.151 37.4566 125.151 39.055 125.891C44.8592 128.11 51.3137 127.945 57.4595 128.177C57.15 129.415 56.8405 130.653 56.5217 131.928C57.7016 132.102 58.8815 132.276 60.0971 132.456C60.7608 132.554 61.4245 132.652 62.1082 132.752C64.2141 132.996 64.2141 132.996 66.8376 131.928C69.1052 132.829 69.1052 132.829 71.7025 134.156C76.1738 136.302 79.7254 137.276 84.656 137.555C84.656 138.484 84.656 139.412 84.656 140.369C78.767 140.813 74.8022 139.605 69.3433 137.442C66.9583 136.657 65.3316 136.439 62.8519 136.559C57.6171 136.646 54.3128 134.832 49.957 131.928C48.2889 131.556 46.6056 131.25 44.9163 130.99C42.1748 130.567 39.8561 130.144 37.3003 129.053C34.5423 128.024 32.5467 128.083 29.6183 128.236C23.7219 128.338 17.4277 127.843 12.6535 124.034C11.5068 122.55 11.5068 122.55 11.5068 119.737Z" fill="#1ABC9C"/>
<path d="M67.7748 32.5209C66.8425 34.9865 66.2701 36.0684 63.9231 37.3568C63.1258 37.6395 62.3284 37.9223 61.5069 38.2136C60.6372 38.5315 59.7674 38.8494 58.8712 39.177C57.9604 39.4949 57.0495 39.8129 56.111 40.1404C54.3137 40.7846 52.5174 41.4317 50.7223 42.082C49.924 42.3626 49.1256 42.6432 48.303 42.9323C45.996 43.7754 45.996 43.7754 43.3922 45.65C42.7422 47.6048 42.7422 47.6048 42.5716 49.8114C42.4773 50.5452 42.383 51.279 42.2859 52.035C42.5005 54.6524 43.4366 55.1245 45.2678 56.9035C45.2678 58.1413 45.2678 59.3792 45.2678 60.6546C42.4544 59.7168 42.4544 59.7168 40.5788 57.8413C40.0239 58.2474 39.4691 58.6536 38.8974 59.0721C38.1563 59.5943 37.4153 60.1166 36.6518 60.6546C35.9228 61.1769 35.1939 61.6991 34.4429 62.2372C31.8729 63.61 30.3184 63.7126 27.4497 63.468C27.4497 62.8491 27.4497 62.2301 27.4497 61.5924C27.9586 61.3543 28.4676 61.1161 28.9919 60.8708C29.6629 60.548 30.3338 60.2252 31.025 59.8927C31.6887 59.5772 32.3524 59.2616 33.0362 58.9366C35.0609 57.779 36.3542 56.8881 37.7654 55.0279C38.2936 52.4625 38.5324 49.934 38.7801 47.3277C39.968 43.7186 42.1368 41.9663 45.2678 40.0232C47.7305 38.8358 50.2427 37.9153 52.8287 37.034C54.1293 36.5715 55.4297 36.1087 56.7301 35.6456C57.3407 35.4336 57.9513 35.2216 58.5805 35.0032C60.0399 34.4798 61.4761 33.8925 62.9063 33.2938C64.9614 32.5209 64.9614 32.5209 67.7748 32.5209Z" fill="#1ABC9C"/>
<path d="M194.145 84.9207C194.894 84.9376 195.644 84.9545 196.416 84.972C196.982 84.9937 197.547 85.0155 198.13 85.0379C198.13 85.6569 198.13 86.2758 198.13 86.9135C197.144 87.1039 197.144 87.1039 196.137 87.2981C190.173 88.6515 186.692 90.3058 182.356 94.5697C179.119 97.296 175.377 98.843 171.531 100.552C168.941 101.983 167.907 103.281 166.245 105.669C165.626 105.669 165.007 105.669 164.37 105.669C164.135 103.504 164.135 103.504 164.37 100.98C165.952 99.4235 165.952 99.4235 168.121 98.1084C168.891 97.6345 169.661 97.1606 170.454 96.6724C173.115 95.1825 175.826 93.8522 178.579 92.5439C181.358 91.034 183.55 88.977 185.939 86.9135C188.786 85.1813 190.829 84.8232 194.145 84.9207Z" fill="#1ABC9C"/>
<path d="M25.5738 62.5302C25.5738 63.4586 25.5738 64.387 25.5738 65.3436C24.6454 65.8658 24.6454 65.8658 23.6982 66.3986C21.6434 67.9582 21.6434 67.9582 21.5405 70.1132C21.5241 73.4949 21.684 76.1816 22.7604 79.4107C23.6888 79.7202 24.6172 80.0297 25.5738 80.3485C25.5738 81.277 25.5738 82.2054 25.5738 83.162C24.0264 83.162 22.479 83.162 20.8847 83.162C17.6036 78.1036 17.1005 73.0797 18.0713 67.2192C21.4732 62.5302 21.4732 62.5302 25.5738 62.5302Z" fill="#1ABC9C"/>
<path d="M150.302 85.0382C151.23 85.0382 152.159 85.0382 153.115 85.0382C152.899 88.7884 152.706 90.978 150.243 93.8884C146.539 95.8589 144.143 95.6354 139.986 95.3536C139.986 94.4252 139.986 93.4969 139.986 92.5403C141.166 92.521 142.346 92.5017 143.562 92.4817C145.629 92.3242 145.629 92.3242 147.488 91.6026C149.073 89.4553 149.542 87.6505 150.302 85.0382Z" fill="#1ABC9C"/>
<path d="M30.2631 107.545C31.1914 107.545 32.1198 107.545 33.0764 107.545C33.3858 111.878 33.6953 116.21 34.0141 120.674C33.0857 120.674 32.1573 120.674 31.2008 120.674C30.3229 117.715 30.1639 115.079 30.2044 112C30.2129 111.163 30.2214 110.327 30.2301 109.465C30.241 108.831 30.2518 108.198 30.2631 107.545Z" fill="#1ABC9C"/>
</svg>
