<svg width="247" height="224" viewBox="0 0 247 224" fill="none" xmlns="http://www.w3.org/2000/svg">
<path d="M80.1875 0.56254C81.0205 0.570838 81.8534 0.579136 82.7116 0.587686C92.6338 0.856681 100.534 3.60374 109.187 8.37504C115.924 11.94 122.625 13.4034 130.062 14.9375C144.087 17.8722 153.797 21.6962 162 34C164.561 34.9612 164.561 34.9612 167.625 35.6875C181.227 39.634 196.964 46.486 204.812 58.625C208.669 64.3903 212.552 65.7531 218.996 67.8438C223.379 69.5308 225.879 71.824 228 76C228.633 78.261 229.06 80.4836 229.434 82.8008C230.237 85.9219 231.996 87.8961 233.973 90.3829C235.528 92.8308 235.06 95.1608 235 98C236.261 100.046 237.608 102.041 239 104C240.444 106.037 241.881 108.079 243.312 110.125C244.03 111.138 244.748 112.151 245.488 113.195C247 116 247 116 246.867 118.234C245.792 120.423 244.206 121.753 242.453 123.41C237.061 129.309 233.803 137.259 230.492 144.434C227.819 149.031 224.028 150.536 219.312 152.688C213.391 155.59 208.421 159.075 204 164C202.83 167.509 202.817 170.491 202.687 174.188C202.171 183.212 200.352 188.057 193.687 194.188C190.992 196.467 188.271 198.518 185.312 200.438C181.625 202.936 179.621 206.232 177.359 210.012C176 212 176 212 173 214C169.451 214.658 165.913 215.204 162.336 215.68C157.532 216.419 154.509 217.383 151 221C150.67 221.99 150.34 222.98 150 224C134.389 220.083 134.389 220.083 131 215C130.74 211.932 130.686 208.891 130.637 205.813C130.262 202.87 130.262 202.87 127.934 201.207C123.848 199.526 119.706 198.964 115.352 198.447C113.398 198.137 113.398 198.137 110 197C108.186 194.243 107 192.332 107 189C103.7 188.67 100.4 188.34 97 188C97 188.66 97 189.32 97 190C96.01 190 95.02 190 94 190C94.1031 189.258 94.2062 188.515 94.3125 187.75C94.2842 184.829 94.2842 184.829 91.8515 183.02C78.0828 173.268 60.9831 170.894 44.4844 170.797C43.7067 170.791 42.929 170.786 42.1277 170.78C40.4942 170.77 38.8606 170.764 37.227 170.76C34.7695 170.75 32.3128 170.719 29.8554 170.688C20.442 170.626 12.0888 171.306 2.99998 174C2.66998 173.01 2.33998 172.02 1.99998 171C2.65998 171 3.31998 171 3.99998 171C4.28873 170.278 4.57748 169.556 4.87498 168.813C5.56183 167.095 6.27875 165.389 7.04685 163.707C10.2177 154.701 7.85483 145.367 3.99998 137C3.23802 135.655 3.23802 135.655 2.46067 134.283C-0.164031 128.384 0.365756 121.923 0.374977 115.563C0.373517 114.835 0.372056 114.108 0.370552 113.359C0.397242 103.747 0.936716 96.3263 6.00388 87.8946C9.0173 82.6368 10.0703 76.6482 11.5 70.8125C16.6468 50.4793 16.6468 50.4793 25.0625 43.4375C27.0545 42.4627 29.0549 41.5049 31.0625 40.5625C35.5883 38.1552 39.2062 34.8922 41 30C41 29.01 41 28.02 41 27C41.8662 27.2269 42.7325 27.4538 43.625 27.6875C47.9525 28.0882 49.5568 27.6781 53 25C54.4108 21.767 55.1702 18.4204 56 15C58.1357 7.9283 58.1357 7.9283 60.6875 5.18754C67.3002 1.7918 72.8209 0.466947 80.1875 0.56254ZM62 8.00004C58.4944 14.0764 57.3474 21.1682 56 28C55.4173 28.0774 54.8347 28.1547 54.2344 28.2344C46.8924 29.7582 43.2993 33.286 38.4045 38.6026C35.5016 41.6941 33.3126 43.6601 29.1875 45C24.0945 46.9306 22.1384 50.3124 19.6484 55.0235C17.4367 60.0231 15.9235 65.2477 14.4375 70.5C14.1614 71.468 13.8853 72.4359 13.6008 73.4331C13.36 74.3524 13.1192 75.2717 12.8711 76.2188C12.6538 77.0431 12.4365 77.8675 12.2126 78.7168C11.9545 81.4886 12.5049 82.6852 14 85C14.66 85.66 15.32 86.32 16 87C16.4922 89.0235 16.4922 89.0235 16.875 91.375C17.688 95.4337 18.7739 97.2943 22 100C22.33 100.99 22.66 101.98 23 103C16.5537 98.6049 16.5537 98.6049 15.1953 94.668C14.9074 93.1049 14.6669 91.532 14.4844 89.9532C14.1344 87.6028 14.1344 87.6028 11 86C4.13178 94.3746 3.15471 102.903 2.68748 113.5C2.61666 114.722 2.54584 115.943 2.47288 117.202C2.2804 125.336 3.83351 130.94 7.55491 138.152C9.28918 141.57 10.1342 144.567 10.875 148.313C11.0993 149.402 11.3236 150.491 11.5547 151.613C11.7016 152.401 11.8486 153.189 12 154C12.8952 153.783 12.8952 153.783 13.8086 153.563C22.5659 151.689 31.0979 151.812 40 152C40 149.69 40 147.38 40 145C40.99 145 41.98 145 43 145C43 147.31 43 149.62 43 152C48.5361 153.429 54.5521 153.816 60 152C60 152.99 60 153.98 60 155C54.1968 155.091 48.4638 155.118 42.6875 154.5C27.2218 152.445 27.2218 152.445 13 157C10.777 160.662 8.99998 164.659 8.99998 169C9.84423 168.839 10.6885 168.677 11.5583 168.511C15.1104 167.984 18.4765 167.854 22.0664 167.832C22.7339 167.828 23.4013 167.824 24.089 167.819C26.2469 167.809 28.4046 167.809 30.5625 167.813C31.2993 167.813 32.0361 167.814 32.7953 167.814C54.0583 167.862 75.4112 168.198 94 180C94.5143 180.701 95.0286 181.403 95.5586 182.125C97.3981 184.518 98.4993 184.604 101.437 185C105.44 185.742 107.564 186.549 110 190C110.369 191.324 110.708 192.657 111 194C112.181 194.266 113.362 194.531 114.578 194.805C116.135 195.161 117.693 195.518 119.25 195.875C120.027 196.049 120.805 196.223 121.605 196.402C122.36 196.576 123.114 196.75 123.891 196.93C124.582 197.087 125.273 197.244 125.985 197.406C128.147 198.044 130.016 198.938 132 200C135.05 182.7 135.05 182.7 128.812 166.914C124.672 162.542 119.792 161.053 114 160C113.67 159.34 113.34 158.68 113 158C121.223 159.637 126.925 160.836 132.242 167.574C137.833 176.461 135.051 188.925 134.242 198.852C132.975 208.211 132.975 208.211 135.937 216.625C139.899 218.404 143.594 220.041 148 220C150.583 217.75 150.583 217.75 153 215C156.664 213.656 160.526 213.062 164.418 212.898C170.109 212.41 172.816 210.569 176.471 206.361C178.707 203.618 180.849 200.81 183 198C183.975 196.975 184.96 195.958 186 195C185.073 194.879 184.146 194.758 183.191 194.633C181.395 194.381 181.395 194.381 179.562 194.125C177.77 193.881 177.77 193.881 175.941 193.633C174.485 193.32 174.485 193.32 173 193C172.67 192.34 172.34 191.68 172 191C172.714 191.16 173.428 191.32 174.164 191.484C181.422 192.804 188.647 193.019 195 189C199.544 183.858 199.523 178.3 199.673 171.687C199.772 167.903 200.11 165.28 202 162C201.88 156.605 199.499 152.923 196 149C195.01 148.34 194.02 147.68 193 147C192.67 146.01 192.34 145.02 192 144C196.526 146.13 198.775 149.073 201.57 153.063C202.922 154.895 204.349 156.437 206 158C206.8 157.329 206.8 157.329 207.617 156.645C212.426 152.742 217.04 149.777 222.738 147.336C228.15 144.14 230.419 138.465 233 133C235.91 126.839 239.003 121.747 244 117C243.385 116.12 242.77 115.239 242.137 114.332C241.32 113.159 240.504 111.986 239.687 110.813C239.081 109.945 239.081 109.945 238.463 109.061C231.987 99.7416 231.987 99.7416 232.062 95.4375C232.321 91.9979 232.321 91.9979 230.375 89.6875C225.772 86.4167 221.571 85.7347 216 86C216 85.01 216 84.02 216 83C219.3 83.33 222.6 83.66 226 84C225.843 77.8951 225.843 77.8951 222.25 73.125C216.202 69.1708 211.748 68.7302 204.687 68.875C203.852 68.8841 203.016 68.8931 202.154 68.9024C200.103 68.9258 198.051 68.9617 196 69C195.67 68.34 195.34 67.68 195 67C198.96 67 202.92 67 207 67C197.73 51.7872 182.299 42.2505 165 38C161.593 37.7834 161.593 37.7834 159 39C156.497 41.5803 156.497 41.5803 156 45C155.34 45 154.68 45 154 45C155.156 41.0879 156.355 38.1255 159 35C154.251 26.69 146.856 22.2698 137.719 19.7071C130.861 17.9761 124.025 16.8034 117 16C117.495 17.485 117.495 17.485 118 19C118.067 20.5612 118.085 22.1251 118.062 23.6875C118.053 24.4958 118.044 25.304 118.035 26.1368C118.024 26.7516 118.012 27.3665 118 28C117.01 28 116.02 28 115 28C115.33 27.34 115.66 26.68 116 26C116.306 21.5118 115.987 18.0561 114 14C111.459 12.1461 108.701 10.9708 105.812 9.75004C105.069 9.41231 104.326 9.07457 103.561 8.7266C95.6836 5.21961 88.6665 3.63795 80.0625 3.62504C79.2072 3.60055 78.3519 3.57606 77.4707 3.55082C71.6145 3.52402 66.7815 4.43 62 8.00004Z" fill="white"/>
<path d="M200 112C200.99 112 201.98 112 203 112C204.604 115.508 205.22 118.144 205 122C211.392 122.304 217.265 122.159 223 119C224.439 116.49 224.439 116.49 225 114C225.99 113.67 226.98 113.34 228 113C227.496 117.409 226.089 119.826 223 123C218.819 125.173 215.16 125.194 210.5 125.25C205.6 125.321 205.6 125.321 201.227 127.254C200.122 128.816 199.061 130.408 198 132C195.909 133.188 193.775 134.04 191.547 134.941C188.659 136.142 185.9 137.495 183.125 138.937C182.22 139.4 181.315 139.863 180.383 140.34C177.595 142.282 176.417 143.927 175 147C174.721 150.842 174.721 150.842 176.125 153.437C177 156 177 156 176.437 158.562C173.766 163.093 169.947 165.438 165 167C164.01 167 163.02 167 162 167C162.983 164.525 163.559 163.252 165.91 161.91C166.62 161.63 167.331 161.351 168.062 161.062C170.201 160.144 170.201 160.144 172 159C173.128 156.385 173.128 156.385 173 154C169.727 151.031 167.619 150.656 163.25 150.812C162.265 150.84 161.28 150.867 160.266 150.895C159.144 150.947 159.144 150.947 158 151C158 151.66 158 152.32 158 153C157.34 153 156.68 153 156 153C156 153.66 156 154.32 156 155C154.501 155.632 154.501 155.632 152.973 156.277C151.669 156.831 150.366 157.384 149.062 157.937C148.073 158.354 148.073 158.354 147.064 158.779C143.795 160.008 143.795 160.008 141 162C140.615 166 140.559 168.282 142.687 171.75C144.985 173.985 147.173 175.508 150 177C150.247 176.237 150.495 175.474 150.75 174.687C152.129 171.722 153.193 170.616 156 169C156.99 169 157.98 169 159 169C157.998 171.235 157.189 172.826 155.375 174.5C153.55 176.152 153.55 176.152 154 180C155.145 180.217 155.145 180.217 156.312 180.437C160.007 182.585 160.139 184.842 161.238 188.82C161.903 191.229 161.903 191.229 164.25 193.25C164.827 193.827 165.405 194.405 166 195C165.838 198.392 165.417 199.583 163 202C160.001 202.796 156.985 203.404 153.945 204.023C150.625 205.124 149.197 206.317 147 209C145.746 211.632 145.746 211.632 145 214C144.01 213.67 143.02 213.34 142 213C143.602 205.191 143.602 205.191 146.664 202.582C151.479 200.079 156.684 198.935 162 198C160.848 195.532 159.952 193.952 158 192C157.732 190.866 157.464 189.731 157.187 188.562C156.362 184.969 156.362 184.969 153.937 183.437C152.968 182.963 151.999 182.489 151 182C145.465 178.665 140.446 175.558 137 170C136.372 166.118 136.752 162.743 138 159C139.566 157.973 139.566 157.973 141.562 157.062C142.278 156.721 142.993 156.379 143.73 156.027C145.223 155.352 146.726 154.697 148.238 154.066C152.892 152.055 152.892 152.055 155.5 147.75C155.665 146.842 155.83 145.935 156 145C156.557 145.333 157.114 145.665 157.687 146.008C161.739 147.746 165.789 146.974 170 146C172.701 144.089 173.799 143.136 174.375 139.875C174.581 139.256 174.787 138.638 175 138C177.562 137 177.562 137 181 136C183.05 135.059 185.045 134.039 187.047 133C188.752 132.127 190.498 131.337 192.25 130.562C195.357 128.797 196.898 126.853 199 124C199.66 123.67 200.32 123.34 201 123C201.089 119.168 200.879 115.734 200 112Z" fill="white"/>
<path d="M55 48C57.3428 49.1714 59.6766 50.3524 62 51.5625C66.5448 53.7402 70.1398 54.0801 75.1907 54.1892C86.9547 54.4907 86.9547 54.4907 92.3125 57.4375C97.6411 60.35 102.618 60.5635 108.562 60.9375C116.731 61.4747 122.52 62.6535 129 68C129.99 68.66 130.98 69.32 132 70C132.639 69.0925 133.279 68.185 133.937 67.25C137.657 62.816 142.598 60.3492 148.359 59.7578C150.241 59.7511 152.123 59.8635 154 60C153.67 60.99 153.34 61.98 153 63C150.453 63.7383 150.453 63.7383 147.25 64.3125C143.117 65.2276 140.452 65.8413 137.75 69.1875C137.172 70.1156 136.595 71.0438 136 72C142.219 79.4436 142.219 79.4436 150.977 82.7695C159.729 83.1369 167.474 81.3964 175.187 77.3125C180.618 74.8789 187.204 75.4564 193 76C195.426 77.0195 195.426 77.0195 197 78C197 78.99 197 79.98 197 81C195.662 80.766 195.662 80.766 194.297 80.5273C193.126 80.3327 191.956 80.138 190.75 79.9375C189.59 79.7403 188.43 79.543 187.234 79.3398C184.375 79.0394 182.667 79.0561 180 80C180.494 80.4357 180.987 80.8714 181.496 81.3203C186.794 86.2453 186.794 86.2453 187.937 90.4375C187.968 91.7059 187.968 91.7059 188 93C184.514 91.8379 184.106 91.023 182.125 88.0625C180.311 85.578 179.072 84.0489 176.5 82.3125C173.873 81.7417 173.873 81.7417 171.336 83.4062C167.612 85.1854 164.174 85.7598 160.125 86.1875C159.437 86.2694 158.748 86.3512 158.039 86.4355C156.361 86.6337 154.68 86.8183 153 87C153.66 87.5981 154.32 88.1963 155 88.8125C157 91 157 91 157 94C152.713 93.5237 150.882 91.0191 148 88C147.01 87.175 146.02 86.35 145 85.5C142 83 142 83 139.812 80.625C136.39 77.4304 132.68 75.1456 128.695 72.707C126.48 71.3037 124.522 69.8433 122.5 68.1875C118.241 65.0221 113.147 64.6235 108 64C108.495 65.6706 108.495 65.6706 109 67.375C110.282 72.4686 111.423 79.1538 109 84C108.01 84 107.02 84 106 84C106.023 83.3104 106.046 82.6207 106.07 81.9102C106.192 75.5783 105.607 70.1253 104 64C103.359 63.9742 102.719 63.9484 102.059 63.9219C100.761 63.8368 100.761 63.8368 99.4375 63.75C98.5906 63.7036 97.7437 63.6572 96.8711 63.6094C94 63 94 63 90.7109 60.9883C86.5873 58.4868 82.9172 58.455 78.1875 58.4375C70.321 58.1979 62.8578 57.9393 56.375 53C55 51 55 51 55 48Z" fill="white"/>
<path d="M177 115C177 115.99 177 116.98 177 118C168.75 117.67 160.5 117.34 152 117C152 117.66 152 118.32 152 119C153.052 119.371 154.104 119.742 155.187 120.125C160.125 122.234 162.512 125.591 165.312 130.125C166 132 166 132 166 136C163 135 163 135 161.965 133.109C161.626 132.331 161.287 131.552 160.937 130.75C158.404 126.051 155.76 123.784 150.863 121.68C145.347 120.37 140.4 121.614 135 123C133.808 123.298 132.615 123.596 131.387 123.902C125.193 125.383 125.193 125.383 120.133 128.945C118.759 131.047 118.759 131.047 119 134C120.268 134.34 120.268 134.34 121.562 134.687C125.516 136.197 128.888 138.111 132 141C132.495 142.485 132.495 142.485 133 144C128.228 144 127.511 142.984 124 140C120.3 137.448 116.343 137.394 112 138C101.592 141.785 95.8829 153.81 90.6055 162.918C89 165 89 165 86.8008 165.801C86.2065 165.866 85.6123 165.932 85 166C85 165.01 85 164.02 85 163C85.66 163 86.32 163 87 163C87.2746 162.263 87.5491 161.525 87.832 160.766C91.5779 151.896 98.7449 142.318 106 136C108.359 135.172 108.359 135.172 110.75 134.75C111.549 134.6 112.348 134.451 113.172 134.297C114.077 134.15 114.077 134.15 115 134C115.093 132.948 115.093 132.948 115.187 131.875C116.302 127.932 117.691 125.379 121 123C127.115 120.656 133.47 119.294 139.875 118C142.939 117.378 145.275 116.403 148 114.875C156.572 110.388 167.812 113.737 177 115Z" fill="white"/>
<path d="M25 79C29.4801 79.5957 32.7034 81.3716 36.625 83.5625C42.6851 86.7575 48.1496 88.5855 55 87C57.5052 85.1666 57.5052 85.1666 59 83C59.99 83 60.98 83 62 83C62 83.66 62 84.32 62 85C62.6058 85.2913 63.2117 85.5827 63.8359 85.8828C69.3191 88.5654 74.579 91.4617 79.7734 94.668C83.6664 96.9969 86.1383 98.2606 90.75 98.125C91.9488 98.0979 91.9488 98.0979 93.1719 98.0703C93.7751 98.0471 94.3784 98.0239 95 98C95.495 96.515 95.495 96.515 96 95C96.66 95 97.32 95 98 95C98.2475 95.7631 98.495 96.5263 98.75 97.3125C100.179 100.384 101.13 101.263 104 103C107.101 103.658 110.173 104.006 113.32 104.375C116 105 116 105 118 108C123.466 109.879 130.673 110.04 135.937 107.687C137.994 106.073 137.994 106.073 139.625 104.312C141 103 141 103 144 103C142.44 107.212 139.515 109.345 136 112C129.238 114.254 121.693 113.177 115 111C114.01 110.34 113.02 109.68 112 109C109.247 108.235 106.478 107.606 103.691 106.977C101 106 101 106 98.9922 103.887C97.1464 101.732 97.1464 101.732 94.4414 101.855C93.4913 101.965 92.5413 102.075 91.5625 102.187C82.6009 102.528 75.9888 97.763 68.8476 92.8164C65.4763 90.666 62.9665 90.2245 59 90C58.01 90.33 57.02 90.66 56 91C47.8211 92.2039 41.5756 90.896 34.3125 87.25C33.6174 86.9027 32.9224 86.5554 32.2063 86.1975C28.7009 84.315 26.2253 82.9139 25 79Z" fill="white"/>
<path d="M74 23C74.99 23.33 75.98 23.66 77 24C77.0464 24.7683 77.0928 25.5366 77.1406 26.3281C77.7522 29.23 77.7522 29.23 80.5469 30.5469C82.1324 31.1424 82.1324 31.1424 83.75 31.75C84.7967 32.1573 85.8434 32.5647 86.9219 32.9844C92.8427 34.938 98.1291 35.1259 104.312 35.0625C105.148 35.058 105.984 35.0535 106.846 35.0488C108.897 35.0371 110.949 35.0192 113 35C113.495 36.485 113.495 36.485 114 38C112.02 38.33 110.04 38.66 108 39C113.181 41.233 116.38 42.6057 122 41C122.66 40.67 123.32 40.34 124 40C124.66 40.33 125.32 40.66 126 41C126.495 42.485 126.495 42.485 127 44C131.069 46.2749 135.144 46.2687 139.687 46.375C150.05 46.8526 156.8 49.74 164.848 56.3164C170.781 60.9576 175.501 62.5357 183 62C183 62.99 183 63.98 183 65C176.959 66.4138 172.558 65.8286 167 63C164.337 61.091 161.84 59.0776 159.359 56.9375C152.475 51.2841 146.735 50.7971 138.107 50.5703C133.219 50.3483 127.646 49.6462 124 46C122.148 45.8666 120.293 45.7688 118.437 45.6875C112.74 45.2728 107.231 44.2306 103 40C101.126 39.6874 99.2519 39.3796 97.3733 39.0994C88.8553 37.8115 80.3391 36.3391 74 30C73.875 26.375 73.875 26.375 74 23Z" fill="white"/>
<path d="M25 103C35.6052 102.218 42.8563 102.987 52 109C52.66 109.66 53.32 110.32 54 111C56.9875 111.349 59.9521 111.443 62.957 111.559C66 112 66 112 68.3554 113.539C72.0496 115.58 75.4178 115.153 79.5 114.938C87.7309 114.714 94.2431 116.184 102 119C104.911 119.801 107.83 120.551 110.758 121.289C113 122 113 122 116 124C116 124.99 116 125.98 116 127C114.237 126.35 114.237 126.35 112.437 125.688C105.782 123.448 98.8897 122.28 92 121C91.5707 121.777 91.1415 122.555 90.6992 123.356C88.6229 126.587 86.2629 128.042 83 130C83.495 133.465 83.495 133.465 84 137C82.0625 136.625 82.0625 136.625 80 136C78.488 132.976 78.4183 131.361 79 128C80.9 126.243 82.8706 124.878 85.0547 123.492C87.2031 121.844 87.9884 120.481 89 118C87.8656 118.165 86.7312 118.33 85.5625 118.5C77.5878 119.458 72.4642 119.217 65 116C63.1503 115.805 61.2947 115.663 59.4375 115.563C54.4824 115.225 52.001 114.044 48 111C40.6839 106.623 33.3923 106.239 25 106C25 105.01 25 104.02 25 103Z" fill="white"/>
<path d="M12 128C14.4994 128.463 16.0994 129.065 18.25 130.469C21.3373 132.188 23.8273 132.69 27.3125 133.187C28.3811 133.346 29.4497 133.505 30.5508 133.668C31.7631 133.832 31.7631 133.832 33 134C33 133.01 33 132.02 33 131C33.66 131.268 34.32 131.536 35 131.812C36.485 132.4 36.485 132.4 38 133C39.6706 133.773 39.6706 133.773 41.375 134.562C47.5641 136.928 54.4466 136.753 61 137C60.67 138.32 60.34 139.64 60 141C61.2581 141.186 62.5162 141.371 63.8125 141.562C64.5202 141.667 65.2279 141.771 65.957 141.879C68.2025 142.139 68.2025 142.139 71 141C73.4179 141.961 73.4179 141.961 76.1875 143.375C80.9553 145.664 84.7425 146.702 90 147C90 147.99 90 148.98 90 150C83.7205 150.474 79.4928 149.186 73.6719 146.879C71.1286 146.042 69.3941 145.809 66.75 145.937C61.168 146.031 57.6446 144.096 53 141C51.2212 140.603 49.4263 140.276 47.625 140C44.7016 139.549 42.2293 139.098 39.5039 137.934C36.5631 136.837 34.4351 136.9 31.3125 137.062C25.0251 137.171 18.3135 136.644 13.2226 132.582C12 131 12 131 12 128Z" fill="white"/>
<path d="M72 35C71.0059 37.6291 70.3955 38.7829 67.8928 40.1567C67.0426 40.4582 66.1924 40.7597 65.3164 41.0703C64.3889 41.4093 63.4614 41.7484 62.5058 42.0977C61.5345 42.4367 60.5632 42.7757 59.5625 43.125C57.646 43.8119 55.7306 44.5019 53.8164 45.1953C52.965 45.4945 52.1137 45.7938 51.2365 46.1021C48.7765 47.0011 48.7765 47.0011 46 49C45.3069 51.0845 45.3069 51.0845 45.125 53.4375C45.0244 54.22 44.9239 55.0024 44.8203 55.8086C45.0491 58.5997 46.0474 59.103 48 61C48 62.32 48 63.64 48 65C45 64 45 64 43 62C42.4083 62.4331 41.8166 62.8662 41.207 63.3125C40.4168 63.8694 39.6266 64.4263 38.8125 65C38.0352 65.5569 37.2579 66.1138 36.457 66.6875C33.7166 68.1514 32.059 68.2608 29 68C29 67.34 29 66.68 29 66C29.5427 65.7461 30.0854 65.4921 30.6445 65.2305C31.3599 64.8863 32.0754 64.5421 32.8125 64.1875C33.5202 63.8511 34.2279 63.5146 34.957 63.168C37.116 61.9336 38.4951 60.9837 40 59C40.5632 56.2645 40.8179 53.5682 41.082 50.7891C42.3487 46.9405 44.6613 45.072 48 43C50.626 41.7338 53.3049 40.7523 56.0625 39.8125C57.4493 39.3193 58.836 38.8258 60.2226 38.332C60.8738 38.106 61.5249 37.8799 62.1958 37.647C63.752 37.0889 65.2835 36.4627 66.8086 35.8242C69 35 69 35 72 35Z" fill="white"/>
<path d="M206.75 90.875C207.549 90.8931 208.348 90.9111 209.172 90.9297C209.775 90.9529 210.378 90.9761 211 91C211 91.66 211 92.32 211 93C209.948 93.2031 209.948 93.2031 208.875 93.4102C202.515 94.8533 198.803 96.6174 194.18 101.164C190.728 104.071 186.738 105.721 182.637 107.543C179.874 109.069 178.772 110.454 177 113C176.34 113 175.68 113 175 113C174.75 110.691 174.75 110.691 175 108C176.687 106.34 176.687 106.34 179 104.938C179.821 104.432 180.642 103.927 181.488 103.406C184.326 101.818 187.216 100.399 190.152 99.0039C193.116 97.3938 195.452 95.2005 198 93C201.036 91.1529 203.215 90.771 206.75 90.875Z" fill="white"/>
<path d="M27 67C27 67.99 27 68.98 27 70C26.01 70.5569 26.01 70.5569 25 71.125C22.8089 72.788 22.8089 72.788 22.6992 75.0859C22.6817 78.6919 22.8522 81.5568 24 85C24.99 85.33 25.98 85.66 27 86C27 86.99 27 87.98 27 89C25.35 89 23.7 89 22 89C18.5013 83.6062 17.9648 78.2491 19 72C22.6274 67 22.6274 67 27 67Z" fill="white"/>
<path d="M160 91C160.99 91 161.98 91 163 91C162.769 94.9991 162.564 97.334 159.937 100.437C155.987 102.539 153.432 102.3 149 102C149 101.01 149 100.02 149 99C150.258 98.9794 151.516 98.9587 152.812 98.9375C155.017 98.7696 155.017 98.7696 157 98C158.69 95.7102 159.19 93.7857 160 91Z" fill="white"/>
<path d="M32 115C32.99 115 33.98 115 35 115C35.33 119.62 35.66 124.24 36 129C35.01 129 34.02 129 33 129C32.0638 125.845 31.8943 123.034 31.9375 119.75C31.9465 118.858 31.9555 117.966 31.9648 117.047C31.9764 116.371 31.988 115.696 32 115Z" fill="white"/>
</svg>
