<svg width="256" height="134" viewBox="0 0 256 134" fill="none" xmlns="http://www.w3.org/2000/svg">
<path d="M100.541 1.02554C101.472 1.0135 102.403 1.00146 103.361 0.98906C104.36 0.982133 105.358 0.975205 106.387 0.968068C107.95 0.956713 107.95 0.956713 109.546 0.945129C111.754 0.932169 113.963 0.922105 116.172 0.914721C118.409 0.903964 120.646 0.884859 122.883 0.857024C139.98 0.644466 155.565 0.725962 169.843 11.5074C171.101 13.0643 172.352 14.6267 173.594 16.1965C175.754 17.1967 177.946 18.1323 180.159 19.0099C185.612 22.2417 185.612 22.2417 186.723 25.5746C189.33 26.7938 189.33 26.7938 192.467 27.8019C197.547 29.6808 201.547 31.1954 205.479 34.9527C207.23 38.7739 207.64 42.1689 206.417 46.2064C208.859 47.1883 211.303 48.1568 213.762 49.0931C228.571 54.9158 228.571 54.9158 231.679 61.7388C233.606 67.9712 233.893 73.9412 234.196 80.4401C234.515 83.3858 234.795 85.0527 236.427 87.47C237.201 88.0889 237.975 88.7079 238.772 89.3456C241.197 91.2859 241.96 92.1123 242.992 94.9725C242.958 97.026 242.852 99.0788 242.699 101.127C242.582 108.667 245.148 112.549 249.556 118.418C250.655 120.102 251.731 121.802 252.78 123.517C253.243 124.251 253.706 124.985 254.183 125.741C255.183 127.796 255.183 127.796 255.183 131.547C242.755 131.892 231.024 130.431 218.902 127.796C218.183 127.64 217.464 127.484 216.723 127.324C213.34 126.556 210.439 125.597 207.355 124.045C204.512 124.298 201.859 124.663 199.12 125.482C194.368 126.483 189.346 126.094 184.501 126.094C182.474 126.096 180.447 126.113 178.42 126.131C169.634 126.167 160.951 126.188 152.962 122.169C150.512 122.406 149.216 123.103 147.174 124.495C143.941 126.232 141.308 126.572 137.664 126.975C137.015 127.049 136.366 127.123 135.697 127.198C129.75 127.843 123.79 128.206 117.816 128.503C114.779 128.715 111.883 129.164 108.885 129.671C102.62 130.129 98.5625 129.802 92.9423 126.858C90.24 127.517 88.4481 128.604 86.1432 130.14C79.8576 133.569 73.0394 133.71 66.0389 133.305C65.2743 133.284 64.5096 133.262 63.7218 133.239C58.5641 132.973 55.9627 131.751 51.6787 128.734C48.5777 128.094 48.5777 128.094 45.3485 127.913C38.1206 127.028 32.5225 124.986 27.5887 119.458C24.6224 115.177 23.8205 111.38 23.5444 106.226C22.4032 106.149 21.262 106.071 20.0862 105.992C16.1465 105.464 14.0831 104.571 11.3529 101.537C9.85442 98.8168 8.74927 95.9788 7.60165 93.0968C7.20272 92.2313 6.80378 91.3657 6.39276 90.4739C0.852224 78.2264 -1.39846 63.5314 2.61954 50.4851C4.82828 44.693 6.94584 40.193 12.4665 36.9455C16.2074 35.8416 19.5348 35.5144 23.4162 35.4252C24.4081 35.1913 24.4081 35.1913 25.42 34.9527C26.5924 33.1697 26.5924 33.1697 27.2956 31.2014C30.1357 28.475 33.6284 27.1919 37.2232 25.7248C39.6309 24.639 39.6309 24.639 42.1687 22.7941C45.2563 20.7933 48.0817 19.604 51.5615 18.4238C52.1642 18.2192 52.767 18.0146 53.3881 17.8038C57.9472 16.352 62.2818 15.8369 67.0353 15.4931C72.1856 15.0782 75.2001 14.0797 78.8166 10.2179C79.4488 9.46601 80.0811 8.71408 80.7325 7.93936C85.745 2.4905 93.4123 1.10644 100.541 1.02554ZM82.6264 9.63181C82.6264 10.2508 82.6264 10.8697 82.6264 11.5074C82.0461 11.7589 81.4659 12.0103 80.868 12.2694C78.5943 13.3414 78.5943 13.3414 76.9995 16.1965C78.1021 17.1829 78.1021 17.1829 79.2268 18.1893C81.767 20.9714 82.6426 22.9096 83.5642 26.5124C82.9453 26.8219 82.3263 27.1313 81.6886 27.4502C81.4565 26.5991 81.2244 25.7481 80.9852 24.8712C79.7324 21.6137 78.7276 20.2664 76.0617 18.0721C69.0749 16.2265 61.4944 18.6857 54.7266 20.5338C53.8949 20.7543 53.0633 20.9748 52.2064 21.2019C47.1093 22.6945 43.3715 24.6212 39.3097 28.0574C37.4451 29.4502 35.7688 30.1181 33.5672 30.8497C30.21 31.882 30.21 31.882 28.2921 33.6632C26.7585 37.0911 26.5883 40.6112 26.3578 44.3308C25.7389 44.0213 25.1199 43.7118 24.4822 43.3929C23.8961 40.5209 23.8961 40.5209 23.5444 37.7661C16.0441 38.3494 16.0441 38.3494 10.0048 42.3965C2.82362 52.4918 2.88257 63.2896 4.77334 75.0674C5.82682 82.0023 5.82682 82.0023 8.53946 88.4078C9.10039 88.1177 9.66132 87.8275 10.2392 87.5286C12.2907 86.5322 12.2907 86.5322 15.1041 85.5944C14.0887 86.958 14.0887 86.958 13.0527 88.3492C11.7221 90.6449 11.302 91.7476 11.6313 94.4083C12.8743 98.3275 13.4629 100.13 16.9797 102.475C24.5364 104.288 30.7537 103.153 37.6115 99.6615C40.2697 97.9489 42.6899 96.0593 45.114 94.0346C46.36 93.0909 47.6092 92.1515 48.8653 91.2212C47.0291 82.6045 47.0291 82.6045 41.3628 76.2163C43.5461 76.3042 43.5461 76.3042 46.0518 77.1541C47.5025 79.8796 47.5025 79.8796 48.6308 83.2498C49.6635 87.0434 49.6635 87.0434 51.6787 90.2834C56.3435 90.6904 60.6222 90.8485 64.9839 89.0525C65.5448 88.5303 66.1057 88.008 66.6836 87.47C66.6836 86.5415 66.6836 85.6131 66.6836 84.6566C67.6508 85.1401 68.6179 85.6237 69.6143 86.1219C73.0968 87.5834 75.202 87.7566 78.8752 86.5322C79.8679 85.7709 80.8436 84.9872 81.8058 84.1877C85.6238 81.2181 89.2933 81.3459 93.99 81.1105C97.8235 80.8196 100.024 80.2014 103.258 78.0919C105.821 72.8646 104.93 69.3174 103.258 64.0247C104.187 64.0247 105.115 64.0247 106.072 64.0247C106.173 66.1338 106.246 68.2443 106.306 70.355C106.35 71.53 106.393 72.7051 106.438 73.9157C106.072 77.1541 106.072 77.1541 104.332 79.385C100.352 82.3932 96.5614 82.8054 91.7114 83.0154C86.6039 83.3693 83.8482 85.1136 79.813 88.1184C77.1911 89.8339 75.3563 89.9123 72.3105 89.3456C70.0832 88.4078 70.0832 88.4078 68.5593 87.47C67.979 88.0696 67.3987 88.6692 66.8009 89.287C63.7042 92.2925 61.815 92.2669 57.5986 92.4521C51.2385 92.939 47.7959 94.5286 42.9453 98.7237C39.304 101.433 35.2757 102.778 31.0469 104.351C29.4824 104.972 27.9189 105.596 26.3578 106.226C26.8859 112.826 28.9894 116.312 33.5672 120.997C37.0343 123.66 40.6981 125.198 45.114 124.982C48.1048 123.588 50.459 121.854 52.6165 119.355C53.3216 117.372 53.3216 117.372 53.5543 115.604C54.4827 115.604 55.4112 115.604 56.3677 115.604C54.6336 119.419 52.9312 122.178 49.8031 124.982C50.6735 125.408 51.5439 125.833 52.4407 126.272C55.4299 127.796 55.4299 127.796 58.2434 129.671C67.6059 131.545 77.9345 131.618 86.3776 126.858C89.2499 124.944 89.2499 124.944 91.0667 123.107C90.6068 120.715 89.9195 118.955 88.7808 116.777C87.5547 114.226 87.0788 112.665 86.6121 109.977C85.7217 105.928 83.6152 104.22 80.3368 101.841C78.8752 100.599 78.8752 100.599 77.9374 97.7859C80.2233 98.5479 80.2233 98.5479 82.6264 99.6615C82.9359 100.59 83.2454 101.518 83.5642 102.475C84.1735 102.904 84.7828 103.333 85.4105 103.775C87.7787 105.656 88.0432 106.894 88.7222 109.802C89.8179 113.921 91.3708 116.813 93.8801 120.293C94.2089 121.144 94.5378 121.995 94.8765 122.872C95.6555 125.291 95.6555 125.291 98.5692 126.858C102.007 127.195 105.436 126.985 108.885 126.858C110.122 126.865 110.122 126.865 111.383 126.873C117.064 126.697 120.315 125.153 124.352 121.125C126.423 118.533 126.903 117.058 126.703 113.729C125.934 110.842 124.983 108.067 123.89 105.288C124.818 105.598 125.747 105.907 126.703 106.226C128.7 112.017 129.069 116.676 126.762 122.521C125.766 124.045 125.766 124.045 123.89 124.982C139.725 124.725 139.725 124.725 152.577 116.37C153.928 114.63 154.866 112.916 155.776 110.915C156.085 111.534 156.394 112.153 156.713 112.791C155.805 114.371 154.866 115.934 153.9 117.48C153.9 118.099 153.9 118.718 153.9 119.355C160.083 122.663 164.817 123.333 171.718 123.107C172.337 122.797 172.956 122.488 173.594 122.169C173.515 121.378 173.437 120.588 173.356 119.773C173.213 118.232 173.213 118.232 173.066 116.659C172.968 115.637 172.871 114.614 172.77 113.56C172.656 110.915 172.656 110.915 173.594 109.04C175.528 108.453 175.528 108.453 177.345 108.102C177.345 108.721 177.345 109.34 177.345 109.977C176.417 110.287 175.488 110.596 174.532 110.915C174.665 112.264 174.802 113.612 174.942 114.96C175.018 115.71 175.094 116.461 175.173 117.234C175.425 119.506 175.425 119.506 176.407 122.169C188.577 124.163 188.577 124.163 200.582 121.934C206.161 120.052 209.686 121.776 214.858 124.045C217.035 124.425 219.223 124.758 221.422 124.982C221.56 123.963 221.56 123.963 221.701 122.924C223.223 113.078 223.223 113.078 227.049 109.04C230.097 108.219 230.097 108.219 232.676 108.102C232.676 108.721 232.676 109.34 232.676 109.977C231.98 109.977 231.283 109.977 230.566 109.977C227.595 111.058 227.309 111.565 225.877 114.256C224.134 118.143 223.6 121.69 223.298 125.92C232.666 128.224 241.799 128.922 251.432 128.734C250.177 124.167 248.099 120.853 245.278 117.128C241.308 111.637 240.006 108.244 240.248 101.457C240.351 97.1836 240.188 94.5482 237.365 91.2212C235.409 90.3976 235.409 90.3976 233.614 90.2834C233.285 90.9991 232.956 91.7147 232.617 92.4521C230.186 95.8245 228.105 96.3989 224.236 97.7859C224.211 98.3299 224.187 98.8739 224.162 99.4344C223.791 104.549 223.053 107.885 219.547 111.853C216.613 113.938 213.59 115.401 210.168 116.542C210.168 115.614 210.168 114.685 210.168 113.729C210.845 113.671 211.522 113.613 212.22 113.553C216.669 112.267 218.925 109.035 221.422 105.288C222.011 99.4957 221.222 95.0253 217.671 90.2834C215.254 88.8104 215.254 88.8104 212.982 88.4078C212.982 87.7888 212.982 87.1699 212.982 86.5322C204.868 79.8185 195.622 75.7257 185.045 76.3775C182.783 76.5941 180.535 76.8485 178.283 77.1541C178.592 76.5351 178.902 75.9162 179.221 75.2785C189.699 74.7545 197.878 74.8646 207.355 79.9675C208.527 80.5355 209.699 81.1025 210.872 81.6673C211.568 82.0348 212.264 82.4023 212.982 82.7809C212.955 74.7955 211.865 69.1314 206.417 63.0869C202.879 60.7281 199.185 59.6611 195.164 58.3979C193.45 57.8575 193.45 57.8575 191.702 57.3062C190.433 56.908 189.164 56.5099 187.896 56.112C187.254 55.9098 186.612 55.7076 185.951 55.4993C182.837 54.5234 179.722 53.5865 176.58 52.7051C175.498 52.398 174.416 52.091 173.301 51.7746C172.337 51.5123 171.374 51.25 170.381 50.9797C167.623 49.812 166.842 48.6042 165.154 46.2064C162.379 46.05 162.379 46.05 159.527 46.2064C158.734 45.7639 158.734 45.7639 157.926 45.3125C154.872 43.9181 151.811 43.8945 148.508 43.7446C147.854 43.7084 147.199 43.6721 146.526 43.6347C144.92 43.5468 143.314 43.4689 141.708 43.3929C142.289 44.2053 142.869 45.0177 143.467 45.8547C146.04 50.278 146.271 54.9548 146.863 59.9585C147.419 63.6446 148.43 66.3714 150.149 69.6516C149.22 69.6516 148.292 69.6516 147.335 69.6516C145.871 64.7236 144.463 59.9693 144.112 54.8225C143.671 50.1691 142.023 47.1459 138.422 44.0597C134.641 41.4805 131.568 41.2001 127.084 41.6602C124.837 42.4518 123.632 43.3135 121.776 44.763C118.123 47.4873 114.805 48.1533 110.35 48.7267C99.8459 49.9569 99.8459 49.9569 90.715 54.8225C86.6683 57.6745 84.3366 57.7532 79.5529 56.9399C70.2642 55.4207 61.5946 56.8671 52.6165 59.3357C52.4356 62.0561 52.4356 62.0561 52.6165 64.9626C54.6843 67.2735 54.6843 67.2735 57.3055 68.7138C58.234 68.7138 59.1624 68.7138 60.119 68.7138C59.8095 69.3327 59.5 69.9517 59.1812 70.5894C52.6406 68.6999 52.6406 68.6999 50.7409 65.9004C50.0961 62.9111 50.0961 62.9111 49.8031 60.2735C47.0791 61.2074 45.1323 62.1342 42.8867 63.9661C40.0467 66.1976 37.1936 67.3558 33.8603 68.7138C32.4677 69.6422 32.4677 69.6422 31.0469 70.5894C29.0577 70.6004 29.0577 70.6004 26.8854 70.2963C26.1709 70.2033 25.4564 70.1102 24.7203 70.0143C22.7316 69.673 20.8044 69.2332 18.8554 68.7138C18.8554 67.1664 18.8554 65.619 18.8554 64.0247C20.248 63.5605 20.248 63.5605 21.6688 63.0869C21.3593 64.0154 21.0498 64.9438 20.731 65.9004C24.2966 68.4173 26.6793 69.3507 31.0469 68.7138C32.6531 67.5194 34.2136 66.2621 35.7359 64.9626C37.9222 64.0202 40.1103 63.082 42.3006 62.1491C42.7842 61.6656 43.2677 61.182 43.7659 60.6838C47.0354 57.4144 51.9393 57.2677 56.3091 56.6395C61.8546 55.7393 65.92 54.7043 69.8524 50.4265C71.6563 47.8547 72.3841 46.1408 72.1163 42.968C71.6583 40.8724 71.1171 38.861 70.4349 36.8283C72.6062 38.799 73.2552 39.6634 74.1861 42.5724C74.1861 47.5351 72.165 50.5755 69.4971 54.6467C71.3539 54.9561 73.2108 55.2656 75.1239 55.5845C75.1239 54.9655 75.1239 54.3466 75.1239 53.7089C76.8357 54.2021 76.8357 54.2021 78.5821 54.7053C81.8387 55.5022 84.0993 55.8636 87.3154 54.6467C88.8976 53.4205 90.4605 52.1692 92.0045 50.8954C95.6986 48.9457 99.2568 48.6762 103.361 48.4044C103.946 48.298 104.531 48.1916 105.134 48.082C105.598 47.1536 105.598 47.1536 106.072 46.2064C105.598 45.944 105.124 45.6817 104.636 45.4114C102.715 44.2266 101.095 43.1252 99.507 41.5173C99.0967 37.9419 99.0967 37.9419 99.507 34.9527C100.435 34.6432 101.364 34.3337 102.32 34.0149C102.011 36.1812 101.701 38.3475 101.383 40.5795C106.898 45.1766 106.898 45.1766 113.691 46.3822C117.182 45.6228 119.704 43.902 122.443 41.6639C126.762 38.4271 132.855 39.3709 137.957 39.6417C140.848 40.1074 143.563 40.7614 146.397 41.5173C145.933 40.5502 145.469 39.5831 144.991 38.5867C143.608 35.3986 143.328 32.8236 143.584 29.3258C144.512 29.0163 145.441 28.7069 146.397 28.388C146.146 29.1617 145.895 29.9354 145.635 30.7325C145.42 34.7567 146.298 36.6364 148.515 39.9238C150.989 42.3368 153.464 42.7164 156.816 43.1548C158.589 43.3929 158.589 43.3929 159.527 44.3308C160.957 44.2469 162.384 44.1006 163.806 43.9205C164.58 43.825 165.355 43.7295 166.154 43.6311C166.752 43.5525 167.351 43.4739 167.967 43.3929C168.025 43.9539 168.083 44.5148 168.143 45.0927C169.282 48.1587 170.614 48.5853 173.594 49.9576C176.982 51.0221 180.409 51.902 183.851 52.771C189.523 54.2085 194.669 55.6097 199.853 58.3979C200.936 58.63 202.019 58.8621 203.135 59.1013C208.039 60.8527 210.34 64.1956 213.095 68.4684C214.056 70.9396 214.259 73.2925 214.466 75.9225C215.018 82.9189 216.027 87.4236 221.422 92.159C222.351 93.5517 222.351 93.5517 223.298 94.9725C225.956 94.6771 227.758 94.1798 230.027 92.7415C232.769 88.8029 232.002 84.9092 231.679 80.2606C231.641 79.3642 231.603 78.4678 231.564 77.5442C231.188 70.8998 230.431 64.3863 226.272 58.984C223.898 57.2073 221.521 55.9231 218.843 54.6467C217.362 53.9304 217.362 53.9304 215.85 53.1996C214.43 52.5233 214.43 52.5233 212.982 51.8332C205.627 48.2298 205.627 48.2298 204.542 47.1442C204.313 44.7846 204.182 42.4262 204.051 40.0593C203.53 37.3863 202.9 36.6142 200.79 34.9527C197.165 32.6324 193.957 31.0569 189.83 29.8533C185.904 28.6332 184.431 27.0876 182.034 23.699C179.386 21.7269 177.058 20.18 173.946 19.0685C171.718 18.0721 171.718 18.0721 170.154 15.9107C167.385 12.71 164.528 11.2654 160.758 9.45597C160.13 9.13501 159.502 8.81405 158.855 8.48336C149.637 3.94936 141.036 3.75246 130.865 3.88773C129.043 3.90043 129.043 3.90043 127.185 3.91338C124.211 3.93532 121.237 3.96607 118.263 4.00496C118.714 4.85844 119.165 5.71192 119.63 6.59126C121.183 9.85505 121.657 12.6193 122.014 16.1965C121.086 16.1965 120.158 16.1965 119.201 16.1965C119.298 15.4034 119.394 14.6104 119.494 13.7933C119.106 9.51983 117.799 6.81823 114.512 4.00496C111.303 3.09584 108.27 3.20409 104.958 3.36021C104.076 3.38152 103.195 3.40283 102.286 3.42478C94.6501 3.73648 88.9766 5.39831 82.6264 9.63181Z" fill="#1ABC9C"/>
<path d="M127.641 64.9628C128.57 64.9628 129.498 64.9628 130.455 64.9628C130.378 68.4608 130.273 71.9574 130.161 75.4545C130.14 76.444 130.119 77.4335 130.097 78.4529C130.064 79.411 130.031 80.369 129.997 81.3561C129.972 82.2352 129.948 83.1143 129.922 84.02C129.4 87.255 128.1 89.8243 125.765 92.1592C129.369 90.4781 132.659 88.9151 135.73 86.3565C138.556 84.1997 140.017 83.7862 143.584 83.719C145.08 84.1519 146.564 84.625 148.038 85.1257C155.87 87.6892 162.455 85.8916 169.843 82.7811C170.771 82.4717 171.699 82.1622 172.656 81.8433C172.656 81.2244 172.656 80.6054 172.656 79.9677C174.049 80.4319 174.049 80.4319 175.469 80.9055C173.832 84.8581 171.95 85.8328 168.194 87.5801C165.041 88.8215 161.901 89.574 158.589 90.2836C159.053 92.1405 159.053 92.1405 159.527 94.0349C158.598 94.0349 157.67 94.0349 156.713 94.0349C156.249 92.6422 156.249 92.6422 155.775 91.2214C151.301 88.9744 145.732 87.5638 140.77 87.4702C137.816 88.9967 137.816 88.9967 135.144 91.2214C130.374 94.5998 126.44 96.5296 120.608 97.2586C117.319 97.5908 117.319 97.5908 114.746 99.2514C110.358 101.192 106.12 101.002 101.382 100.6C100.764 100.29 100.145 99.9806 99.5068 99.6617C99.5068 98.7333 99.5068 97.8048 99.5068 96.8483C100.322 96.8918 101.136 96.9353 101.976 96.9802C110.34 97.3261 110.34 97.3261 117.325 93.097C118.138 92.4781 118.95 91.8591 119.787 91.2214C120.522 90.6025 121.257 89.9835 122.014 89.3458C122.666 88.8731 123.317 88.4005 123.989 87.9135C126.689 84.3898 126.362 80.9537 126.41 76.6268C126.45 75.0234 126.492 73.4201 126.538 71.8168C126.549 71.109 126.559 70.4011 126.57 69.6717C126.703 67.7762 126.703 67.7762 127.641 64.9628Z" fill="#1ABC9C"/>
<path d="M190.475 84.6567C195.927 85.1679 200.673 88.224 204.425 92.1006C206.623 96.1308 207.625 99.7611 207.355 104.351C206.427 104.041 205.498 103.732 204.542 103.413C203.809 101.263 203.809 101.263 203.135 98.548C201.561 93.7499 199.845 92.0106 195.398 89.6389C193.772 88.8832 192.135 88.1485 190.475 87.4702C190.475 86.5417 190.475 85.6133 190.475 84.6567Z" fill="#1ABC9C"/>
<path d="M17.9174 48.082C17.9174 49.0104 17.9174 49.9388 17.9174 50.8953C16.989 51.5143 16.0606 52.1332 15.1041 52.7709C15.1041 53.3898 15.1041 54.0087 15.1041 54.6464C16.0325 54.9559 16.9609 55.2653 17.9174 55.5842C17.9174 56.5125 17.9174 57.4409 17.9174 58.3975C14.4916 57.2255 13.4343 56.8305 11.353 53.7086C11.5875 51.247 11.5875 51.247 12.2908 49.0198C14.1663 48.082 14.1663 48.082 17.9174 48.082Z" fill="#1ABC9C"/>
</svg>
