<svg width="272" height="142" viewBox="0 0 272 142" fill="none" xmlns="http://www.w3.org/2000/svg">
<path d="M106.594 0.228595C107.586 0.21576 108.578 0.202925 109.601 0.189701C110.665 0.182314 111.73 0.174927 112.827 0.167316C114.494 0.155209 114.494 0.155209 116.195 0.142856C118.55 0.129036 120.906 0.118305 123.261 0.110431C125.646 0.0989612 128.032 0.0785892 130.417 0.048908C148.648 -0.177745 165.266 -0.0908451 180.491 11.4056C181.832 13.0657 183.167 14.7317 184.491 16.4056C186.795 17.4721 189.131 18.4698 191.491 19.4056C197.306 22.8518 197.306 22.8518 198.491 26.4056C201.27 27.7056 201.27 27.7056 204.616 28.7806C210.032 30.7841 214.298 32.3992 218.491 36.4056C220.357 40.4803 220.795 44.1004 219.491 48.4056C222.094 49.4527 224.7 50.4854 227.323 51.4837C243.114 57.6926 243.114 57.6926 246.428 64.9681C248.482 71.6138 248.789 77.9797 249.112 84.9095C249.452 88.0505 249.75 89.828 251.491 92.4056C252.316 93.0656 253.141 93.7256 253.991 94.4056C256.577 96.4746 257.391 97.3558 258.491 100.406C258.455 102.595 258.342 104.784 258.178 106.968C258.053 115.008 260.79 119.148 265.491 125.406C266.662 127.202 267.809 129.014 268.928 130.843C269.422 131.626 269.916 132.408 270.424 133.214C271.491 135.406 271.491 135.406 271.491 139.406C258.238 139.773 245.729 138.216 232.803 135.406C232.037 135.24 231.27 135.074 230.48 134.903C226.873 134.083 223.779 133.061 220.491 131.406C217.459 131.676 214.63 132.065 211.71 132.938C206.643 134.006 201.288 133.591 196.121 133.591C193.96 133.593 191.799 133.611 189.637 133.63C180.269 133.669 171.009 133.691 162.491 129.406C159.878 129.658 158.496 130.402 156.319 131.886C152.872 133.738 150.064 134.101 146.178 134.531C145.486 134.609 144.794 134.688 144.081 134.769C137.739 135.456 131.384 135.843 125.014 136.16C121.776 136.386 118.688 136.864 115.491 137.406C108.81 137.893 104.484 137.545 98.4909 134.406C95.6094 135.108 93.6986 136.267 91.2409 137.906C84.5385 141.561 77.2681 141.712 69.8034 141.281C68.988 141.257 68.1727 141.234 67.3326 141.21C61.8329 140.926 59.0589 139.623 54.4909 136.406C51.1842 135.724 51.1842 135.724 47.7409 135.531C40.0336 134.587 34.0643 132.409 28.8034 126.515C25.6403 121.95 24.7853 117.901 24.4909 112.406C23.274 112.323 22.0571 112.241 20.8034 112.156C16.6023 111.592 14.4021 110.64 11.4909 107.406C9.89302 104.505 8.71458 101.479 7.49085 98.4056C7.06546 97.4826 6.64007 96.5597 6.20179 95.6087C0.293838 82.549 -2.1061 66.8796 2.17835 52.9681C4.53357 46.7918 6.79155 41.9934 12.6784 38.5306C16.6673 37.3535 20.2153 37.0046 24.3541 36.9095C25.4118 36.6601 25.4118 36.6601 26.4909 36.4056C27.741 34.5044 27.741 34.5044 28.4909 32.4056C31.5192 29.4984 35.2436 28.1302 39.0768 26.5658C41.6441 25.4079 41.6441 25.4079 44.3502 23.4408C47.6426 21.3073 50.6553 20.0391 54.3659 18.7806C55.0086 18.5624 55.6514 18.3442 56.3136 18.1195C61.175 16.5714 65.7971 16.0221 70.8659 15.6556C76.3576 15.2132 79.5721 14.1484 83.4284 10.0306C84.1025 9.2288 84.7767 8.427 85.4713 7.60091C90.8163 1.79071 98.9921 0.314866 106.594 0.228595ZM87.4909 9.4056C87.4909 10.0656 87.4909 10.7256 87.4909 11.4056C86.8721 11.6737 86.2533 11.9418 85.6159 12.2181C83.1913 13.3612 83.1913 13.3612 81.4909 16.4056C82.6665 17.4575 82.6665 17.4575 83.8659 18.5306C86.5745 21.4972 87.5081 23.5638 88.4909 27.4056C87.8308 27.7356 87.1709 28.0656 86.4909 28.4056C86.2434 27.4981 85.9958 26.5906 85.7409 25.6556C84.4049 22.1821 83.3335 20.7455 80.4909 18.4056C73.0406 16.4376 64.9575 19.0598 57.7409 21.0306C56.8541 21.2657 55.9673 21.5008 55.0536 21.743C49.6185 23.3345 45.6328 25.389 41.3016 29.0531C39.3133 30.5382 37.5259 31.2505 35.1784 32.0306C31.5985 33.1313 31.5985 33.1313 29.5534 35.0306C27.9181 38.6858 27.7366 42.4394 27.4909 46.4056C26.8309 46.0756 26.1709 45.7456 25.4909 45.4056C24.8659 42.3431 24.8659 42.3431 24.4909 39.4056C16.4932 40.0276 16.4932 40.0276 10.0534 44.3431C2.39597 55.1078 2.45883 66.6217 4.47498 79.1805C5.59832 86.5754 5.59832 86.5754 8.49085 93.4056C9.08898 93.0962 9.6871 92.7868 10.3034 92.4681C12.4909 91.4056 12.4909 91.4056 15.4909 90.4056C14.408 91.8597 14.408 91.8597 13.3034 93.3431C11.8846 95.791 11.4366 96.9669 11.7877 99.804C13.1131 103.983 13.7407 105.906 17.4909 108.406C25.5487 110.338 32.1783 109.128 39.4909 105.406C42.3252 103.579 44.9059 101.564 47.4909 99.4056C48.8194 98.3993 50.1515 97.3976 51.4909 96.4056C49.5329 87.2174 49.5329 87.2174 43.4909 80.4056C45.819 80.4993 45.819 80.4993 48.4909 81.4056C50.0377 84.3118 50.0377 84.3118 51.2409 87.9056C52.3421 91.9507 52.3421 91.9507 54.4909 95.4056C59.465 95.8396 64.0274 96.0082 68.6784 94.0931C69.2765 93.5362 69.8746 92.9793 70.4909 92.4056C70.4909 91.4156 70.4909 90.4256 70.4909 89.4056C71.5221 89.9212 72.5534 90.4368 73.6159 90.9681C77.3293 92.5265 79.5741 92.7112 83.4909 91.4056C84.5494 90.5938 85.5898 89.7581 86.6159 88.9056C90.687 85.7391 94.5998 85.8754 99.608 85.6243C103.696 85.3142 106.042 84.655 109.491 82.4056C112.223 76.8317 111.273 73.0493 109.491 67.4056C110.481 67.4056 111.471 67.4056 112.491 67.4056C112.599 69.6545 112.677 71.905 112.741 74.1556C112.787 75.4086 112.834 76.6615 112.881 77.9525C112.491 81.4056 112.491 81.4056 110.635 83.7845C106.392 86.9921 102.35 87.4317 97.1784 87.6556C91.7321 88.033 88.7937 89.8929 84.4909 93.097C81.6951 94.9263 79.7386 95.0098 76.4909 94.4056C74.1159 93.4056 74.1159 93.4056 72.4909 92.4056C71.8721 93.045 71.2533 93.6843 70.6159 94.3431C67.3139 97.548 65.2993 97.5207 60.8034 97.7181C54.0215 98.2373 50.3506 99.9323 45.1784 104.406C41.2956 107.295 37.0001 108.729 32.4909 110.406C30.8226 111.068 29.1555 111.734 27.4909 112.406C28.0539 119.443 30.2969 123.161 35.1784 128.156C38.8754 130.996 42.7821 132.635 47.4909 132.406C50.6799 130.918 53.1902 129.07 55.4909 126.406C56.2427 124.29 56.2427 124.29 56.4909 122.406C57.4809 122.406 58.4709 122.406 59.4909 122.406C57.6417 126.474 55.8264 129.415 52.4909 132.406C53.419 132.859 54.3471 133.313 55.3034 133.781C58.4909 135.406 58.4909 135.406 61.4909 137.406C71.4743 139.404 82.4879 139.481 91.4909 134.406C94.5536 132.365 94.5536 132.365 96.4909 130.406C96.0005 127.856 95.2676 125.979 94.0534 123.656C92.746 120.936 92.2386 119.271 91.7409 116.406C90.7915 112.088 88.5452 110.266 85.0494 107.73C83.4909 106.406 83.4909 106.406 82.4909 103.406C84.9284 104.218 84.9284 104.218 87.4909 105.406C87.8209 106.396 88.1509 107.386 88.4909 108.406C89.1405 108.863 89.7902 109.321 90.4596 109.792C92.9848 111.798 93.2669 113.118 93.9909 116.218C95.1593 120.611 96.8152 123.694 99.4909 127.406C99.8415 128.313 100.192 129.221 100.553 130.156C101.384 132.735 101.384 132.735 104.491 134.406C108.157 134.765 111.814 134.541 115.491 134.406C116.81 134.413 116.81 134.413 118.155 134.421C124.212 134.234 127.679 132.588 131.983 128.292C134.192 125.529 134.704 123.956 134.491 120.406C133.671 117.328 132.656 114.369 131.491 111.406C132.481 111.736 133.471 112.066 134.491 112.406C136.62 118.58 137.013 123.549 134.553 129.781C133.491 131.406 133.491 131.406 131.491 132.406C148.376 132.131 148.376 132.131 162.081 123.222C163.521 121.367 164.52 119.539 165.491 117.406C165.821 118.066 166.151 118.726 166.491 119.406C165.522 121.091 164.521 122.757 163.491 124.406C163.491 125.066 163.491 125.726 163.491 126.406C170.084 129.932 175.131 130.647 182.491 130.406C183.151 130.076 183.811 129.746 184.491 129.406C184.407 128.563 184.323 127.719 184.237 126.851C184.084 125.207 184.084 125.207 183.928 123.531C183.824 122.44 183.72 121.35 183.612 120.226C183.491 117.406 183.491 117.406 184.491 115.406C186.553 114.781 186.553 114.781 188.491 114.406C188.491 115.066 188.491 115.726 188.491 116.406C187.501 116.736 186.511 117.066 185.491 117.406C185.633 118.844 185.779 120.281 185.928 121.718C186.01 122.519 186.091 123.319 186.174 124.144C186.444 126.566 186.444 126.566 187.491 129.406C200.467 131.532 200.467 131.532 213.268 129.156C219.218 127.148 222.977 128.987 228.491 131.406C230.813 131.811 233.146 132.166 235.491 132.406C235.638 131.319 235.638 131.319 235.788 130.21C237.412 119.712 237.412 119.712 241.491 115.406C244.741 114.531 244.741 114.531 247.491 114.406C247.491 115.066 247.491 115.726 247.491 116.406C246.748 116.406 246.006 116.406 245.241 116.406C242.074 117.557 241.768 118.099 240.241 120.968C238.382 125.113 237.813 128.895 237.491 133.406C247.48 135.862 257.219 136.606 267.491 136.406C266.153 131.537 263.937 128.002 260.928 124.031C256.696 118.175 255.308 114.557 255.565 107.32C255.675 102.763 255.501 99.9532 252.491 96.4056C250.406 95.5274 250.406 95.5274 248.491 95.4056C248.14 96.1687 247.79 96.9318 247.428 97.7181C244.836 101.314 242.616 101.927 238.491 103.406C238.465 103.986 238.439 104.566 238.413 105.163C238.017 110.617 237.23 114.175 233.491 118.406C230.362 120.629 227.14 122.189 223.491 123.406C223.491 122.416 223.491 121.426 223.491 120.406C224.213 120.344 224.935 120.282 225.678 120.218C230.423 118.847 232.828 115.401 235.491 111.406C236.119 105.229 235.277 100.462 231.491 95.4056C228.913 93.8349 228.913 93.8349 226.491 93.4056C226.491 92.7456 226.491 92.0856 226.491 91.4056C217.839 84.2467 207.98 79.8825 196.702 80.5775C194.29 80.8085 191.892 81.0798 189.491 81.4056C189.821 80.7456 190.151 80.0856 190.491 79.4056C201.664 78.8469 210.386 78.9643 220.491 84.4056C221.74 85.0113 222.99 85.6158 224.241 86.2181C224.983 86.61 225.726 87.0018 226.491 87.4056C226.462 78.8906 225.3 72.8509 219.491 66.4056C215.718 63.8903 211.779 62.7526 207.491 61.4056C205.664 60.8294 205.664 60.8294 203.799 60.2415C202.447 59.8169 201.094 59.3924 199.741 58.9681C199.057 58.7525 198.372 58.5369 197.667 58.3148C194.346 57.2742 191.026 56.2752 187.674 55.3353C186.521 55.0079 185.367 54.6804 184.178 54.3431C183.151 54.0634 182.124 53.7836 181.065 53.4954C178.124 52.2504 177.291 50.9624 175.491 48.4056C172.533 48.2389 172.533 48.2389 169.491 48.4056C168.646 47.9338 168.646 47.9338 167.784 47.4525C164.527 45.9656 161.263 45.9404 157.741 45.7806C157.043 45.7419 156.346 45.7033 155.628 45.6634C153.916 45.5696 152.203 45.4865 150.491 45.4056C151.11 46.2718 151.728 47.1381 152.366 48.0306C155.109 52.7472 155.356 57.7342 155.987 63.0697C156.581 67.0003 157.659 69.9078 159.491 73.4056C158.501 73.4056 157.511 73.4056 156.491 73.4056C154.929 68.1508 153.428 63.0812 153.053 57.5931C152.584 52.6311 150.826 49.4074 146.987 46.1165C142.955 43.3663 139.678 43.0673 134.897 43.5579C132.501 44.402 131.216 45.3208 129.237 46.8665C125.341 49.7714 121.804 50.4816 117.053 51.0931C105.852 52.4048 105.852 52.4048 96.1159 57.5931C91.8008 60.6342 89.3145 60.7182 84.2135 59.8509C74.3088 58.2309 65.0644 59.7733 55.4909 62.4056C55.2979 65.3064 55.2979 65.3064 55.4909 68.4056C57.6957 70.8698 57.6957 70.8698 60.4909 72.4056C61.4809 72.4056 62.4709 72.4056 63.4909 72.4056C63.1609 73.0656 62.8309 73.7256 62.4909 74.4056C55.5165 72.3908 55.5165 72.3908 53.4909 69.4056C52.8034 66.2181 52.8034 66.2181 52.4909 63.4056C49.5863 64.4015 47.5104 65.3897 45.1159 67.3431C42.0875 69.7225 39.0452 70.9575 35.4909 72.4056C34.0059 73.3956 34.0059 73.3956 32.4909 74.4056C30.3698 74.4173 30.3698 74.4173 28.0534 74.0931C27.2915 73.9938 26.5297 73.8946 25.7448 73.7923C23.6241 73.4285 21.5691 72.9595 19.4909 72.4056C19.4909 70.7556 19.4909 69.1056 19.4909 67.4056C20.9759 66.9106 20.9759 66.9106 22.4909 66.4056C22.1609 67.3956 21.8309 68.3856 21.4909 69.4056C25.2929 72.0894 27.8337 73.0848 32.4909 72.4056C34.2036 71.132 35.8675 69.7914 37.4909 68.4056C39.8221 67.4007 42.1553 66.4004 44.4909 65.4056C45.0065 64.89 45.5221 64.3743 46.0534 63.8431C49.5396 60.3568 54.7687 60.2004 59.4284 59.5306C65.3416 58.5707 69.6765 57.4671 73.8698 52.9056C75.7932 50.1632 76.5693 48.3356 76.2838 44.9525C75.7954 42.7179 75.2183 40.5731 74.4909 38.4056C76.8062 40.507 77.4982 41.4287 78.4909 44.5306C78.4909 49.8225 76.3357 53.0645 73.4909 57.4056C75.4709 57.7356 77.4509 58.0656 79.4909 58.4056C79.4909 57.7456 79.4909 57.0856 79.4909 56.4056C81.3162 56.9315 81.3162 56.9315 83.1784 57.4681C86.651 58.3179 89.0614 58.7032 92.4909 57.4056C94.1779 56.0981 95.8445 54.7639 97.4909 53.4056C101.43 51.3266 105.224 51.0392 109.6 50.7493C110.224 50.6359 110.848 50.5225 111.491 50.4056C111.986 49.4156 111.986 49.4156 112.491 48.4056C111.986 48.1259 111.48 47.8461 110.96 47.5579C108.912 46.2945 107.184 45.1201 105.491 43.4056C105.053 39.5931 105.053 39.5931 105.491 36.4056C106.481 36.0756 107.471 35.7456 108.491 35.4056C108.161 37.7156 107.831 40.0256 107.491 42.4056C113.372 47.3075 113.372 47.3075 120.616 48.5931C124.338 47.7833 127.027 45.9484 129.948 43.5618C134.554 40.1105 141.051 41.1168 146.491 41.4056C149.574 41.9021 152.468 42.5995 155.491 43.4056C154.996 42.3743 154.501 41.3431 153.991 40.2806C152.516 36.8811 152.218 34.1354 152.491 30.4056C153.481 30.0756 154.471 29.7456 155.491 29.4056C155.223 30.2306 154.955 31.0556 154.678 31.9056C154.448 36.1966 155.385 38.201 157.749 41.7064C160.387 44.2794 163.026 44.6842 166.6 45.1517C168.491 45.4056 168.491 45.4056 169.491 46.4056C171.016 46.3162 172.538 46.1602 174.053 45.9681C174.88 45.8663 175.706 45.7644 176.557 45.6595C177.195 45.5757 177.833 45.4919 178.491 45.4056C178.553 46.0037 178.615 46.6018 178.678 47.2181C179.893 50.4874 181.314 50.9423 184.491 52.4056C188.103 53.5406 191.758 54.4789 195.428 55.4056C201.476 56.9384 206.963 58.4325 212.491 61.4056C213.646 61.6531 214.801 61.9006 215.991 62.1556C221.22 64.0232 223.674 67.5878 226.612 72.1439C227.636 74.779 227.853 77.288 228.073 80.0924C228.662 87.5527 229.738 92.3561 235.491 97.4056C236.481 98.8906 236.481 98.8906 237.491 100.406C240.326 100.091 242.247 99.5604 244.667 98.0267C247.59 93.8269 246.772 89.675 246.428 84.7181C246.388 83.7623 246.347 82.8064 246.305 81.8216C245.904 74.7366 245.097 67.7912 240.663 62.0306C238.131 60.1361 235.596 58.7667 232.741 57.4056C231.161 56.6418 231.161 56.6418 229.549 55.8626C228.035 55.1414 228.035 55.1414 226.491 54.4056C218.648 50.5632 218.648 50.5632 217.491 49.4056C217.247 46.8895 217.107 44.3747 216.967 41.8509C216.412 39.0007 215.74 38.1773 213.491 36.4056C209.625 33.9314 206.205 32.2515 201.803 30.9681C197.617 29.6671 196.047 28.019 193.491 24.4056C190.667 22.3028 188.184 20.6532 184.866 19.4681C182.491 18.4056 182.491 18.4056 180.823 16.1009C177.87 12.6879 174.824 11.1475 170.803 9.2181C170.134 8.87585 169.464 8.53361 168.774 8.18099C158.945 3.34632 149.774 3.13636 138.928 3.2806C136.986 3.29413 136.986 3.29413 135.005 3.30794C131.833 3.33135 128.662 3.36414 125.491 3.4056C125.972 4.31568 126.452 5.22575 126.948 6.16341C128.604 9.64364 129.109 12.5912 129.491 16.4056C128.501 16.4056 127.511 16.4056 126.491 16.4056C126.594 15.56 126.697 14.7143 126.803 13.8431C126.389 9.28619 124.996 6.40543 121.491 3.4056C118.069 2.43619 114.835 2.55162 111.303 2.7181C110.363 2.74082 109.423 2.76354 108.454 2.78695C100.312 3.11931 94.2622 4.89135 87.4909 9.4056Z" fill="white"/>
<path d="M135.491 68.4056C136.481 68.4056 137.471 68.4056 138.491 68.4056C138.41 72.1357 138.297 75.8641 138.178 79.5931C138.156 80.6482 138.133 81.7033 138.11 82.7904C138.075 83.812 138.039 84.8336 138.003 85.8861C137.976 86.8235 137.95 87.7609 137.923 88.7267C137.366 92.1762 135.981 94.9158 133.491 97.4056C137.333 95.6131 140.842 93.9464 144.116 91.2181C147.129 88.9183 148.688 88.4774 152.491 88.4056C154.086 88.8673 155.669 89.3717 157.241 89.9056C165.592 92.6392 172.614 90.7224 180.491 87.4056C181.481 87.0756 182.471 86.7456 183.491 86.4056C183.491 85.7456 183.491 85.0856 183.491 84.4056C184.976 84.9006 184.976 84.9006 186.491 85.4056C184.745 89.6204 182.738 90.6597 178.733 92.5228C175.371 93.8465 172.022 94.6489 168.491 95.4056C168.986 97.3856 168.986 97.3856 169.491 99.4056C168.501 99.4056 167.511 99.4056 166.491 99.4056C165.996 97.9206 165.996 97.9206 165.491 96.4056C160.719 94.0096 154.782 92.5055 149.491 92.4056C146.341 94.0334 146.341 94.0334 143.491 96.4056C138.405 100.008 134.21 102.066 127.991 102.843C124.484 103.197 124.484 103.197 121.741 104.968C117.062 107.038 112.542 106.835 107.491 106.406C106.831 106.076 106.171 105.746 105.491 105.406C105.491 104.416 105.491 103.426 105.491 102.406C106.36 102.452 107.229 102.498 108.124 102.546C117.043 102.915 117.043 102.915 124.491 98.4056C125.357 97.7456 126.223 97.0856 127.116 96.4056C127.9 95.7456 128.683 95.0856 129.491 94.4056C130.186 93.9016 130.88 93.3976 131.596 92.8783C134.475 89.1209 134.126 85.457 134.178 80.8431C134.22 79.1334 134.266 77.4238 134.315 75.7142C134.326 74.9594 134.337 74.2046 134.349 73.4269C134.491 71.4056 134.491 71.4056 135.491 68.4056Z" fill="white"/>
<path d="M202.491 89.4056C208.305 89.9507 213.366 93.2095 217.366 97.3431C219.71 101.641 220.779 105.512 220.491 110.406C219.501 110.076 218.511 109.746 217.491 109.406C216.71 107.113 216.71 107.113 215.991 104.218C214.312 99.1018 212.483 97.2472 207.741 94.7181C206.007 93.9123 204.261 93.129 202.491 92.4056C202.491 91.4156 202.491 90.4256 202.491 89.4056Z" fill="white"/>
<path d="M18.4909 50.4056C18.4909 51.3956 18.4909 52.3856 18.4909 53.4056C17.5009 54.0656 16.5109 54.7256 15.4909 55.4056C15.4909 56.0656 15.4909 56.7256 15.4909 57.4056C16.4809 57.7356 17.4709 58.0656 18.4909 58.4056C18.4909 59.3956 18.4909 60.3856 18.4909 61.4056C14.8377 60.1559 13.7102 59.7347 11.4909 56.4056C11.7409 53.7806 11.7409 53.7806 12.4909 51.4056C14.4909 50.4056 14.4909 50.4056 18.4909 50.4056Z" fill="white"/>
</svg>
